<svg width="70" height="88" viewBox="0 0 70 88" fill="none" xmlns="http://www.w3.org/2000/svg">
<g clip-path="url(#clip0_30_801)">
<mask id="mask0_30_801" style="mask-type:luminance" maskUnits="userSpaceOnUse" x="-48" y="-15" width="118" height="118">
<path d="M68.4356 35.9281C63.9775 4.20729 34.6488 -17.8935 2.92798 -13.4354C-28.7928 -8.97738 -50.8936 20.3514 -46.4355 52.0721C-41.9775 83.7929 -12.6487 105.894 19.0721 101.436C50.7928 96.9776 72.8936 67.6488 68.4356 35.9281Z" fill="white"/>
</mask>
<g mask="url(#mask0_30_801)">
<path d="M68.4356 35.9281C63.9775 4.20729 34.6488 -17.8935 2.92798 -13.4354C-28.7928 -8.97738 -50.8936 20.3514 -46.4355 52.0721C-41.9775 83.7929 -12.6487 105.894 19.0721 101.436C50.7928 96.9776 72.8936 67.6488 68.4356 35.9281Z" fill="url(#paint0_linear_30_801)"/>
<g filter="url(#filter0_f_30_801)">
<path opacity="0.8" d="M-92.6782 73.9945L-55.5135 56.1031C-44.7404 50.9167 -32.6134 49.2351 -20.8355 51.2941L1.12929 55.1341C12.8381 57.1811 24.894 55.5312 35.6225 50.4137L57.1753 40.133C67.8391 35.0462 79.816 33.3849 91.4616 35.3768L114.221 39.2698C126.006 41.2856 138.126 39.5596 148.882 34.3338L169.402 24.3622C180.221 19.1051 192.42 17.3906 204.268 19.462L226.629 23.3712C238.478 25.4426 250.677 23.7279 261.496 18.471L281.912 8.54966C292.731 3.29274 304.931 1.57807 316.78 3.64944L357.365 10.745" stroke="#D66C14" stroke-width="32"/>
<path opacity="0.5" d="M-112.111 95.8155L-74.9458 77.9238C-64.1727 72.7377 -52.0457 71.0558 -40.2678 73.115L-18.303 76.955C-6.59418 79.002 5.4617 77.3521 16.1901 72.2346L37.7428 61.9537C48.4066 56.8671 60.3836 55.2056 72.0295 57.1977L94.7886 61.0907C106.574 63.1066 118.694 61.3805 129.448 56.1547L149.97 46.1829C160.787 40.926 172.988 39.2113 184.836 41.2827L207.197 45.1919C219.046 47.2633 231.245 45.5488 242.064 40.2917L262.48 30.3706C273.299 25.1137 285.498 23.399 297.348 25.4704L337.932 32.5659" stroke="#D66C14" stroke-width="24"/>
<path d="M-99.2776 81.9504L-62.1128 64.059C-51.3397 58.8726 -39.2126 57.191 -27.4348 59.25L-5.47017 63.09C6.23887 65.137 18.2946 63.4871 29.023 58.3696L50.5758 48.0889C61.2397 43.0021 73.2167 41.3408 84.8625 43.3327L107.62 47.2257C119.406 49.2415 131.528 47.5155 142.281 42.2899L162.802 32.3181C173.621 27.061 185.82 25.3465 197.669 27.4179L220.03 31.3271C231.878 33.3985 244.077 31.6838 254.896 26.4269L275.314 16.5056C286.131 11.2486 298.332 9.53416 310.18 11.6055L350.766 18.7009" stroke="#D66C14" stroke-width="16"/>
<path d="M-105.803 86.7722L-68.6382 68.8808C-57.8651 63.6944 -45.7381 62.0128 -33.9602 64.0718L-11.9954 67.9118C-0.286555 69.9588 11.7693 68.3089 22.4978 63.1914L44.0504 52.9107C54.7143 47.8239 66.6913 46.1625 78.3371 48.1545L101.095 52.0474C112.881 54.0633 125.001 52.3372 135.756 47.1116L156.277 37.1399C167.095 31.8828 179.295 30.1683 191.144 32.2396L213.505 36.1489C225.353 38.2202 237.552 36.5056 248.371 31.2486L268.789 21.3275C279.606 16.0704 291.807 14.3559 303.655 16.4273L344.241 23.5226" stroke="#D66C14" stroke-width="8"/>
<path d="M-103.4 88.2812L-66.2354 70.3897C-55.4623 65.2033 -43.3353 63.5217 -31.5574 65.5807L-9.5926 69.4207C2.11625 71.4677 14.1721 69.8178 24.9006 64.7003L46.4532 54.4196C57.1171 49.3328 69.0941 47.6715 80.7399 49.6634L103.498 53.5564C115.284 55.5723 127.404 53.8462 138.159 48.6204L158.68 38.6488C169.498 33.3917 181.698 31.6772 193.547 33.7486L215.906 37.6578C227.756 39.7292 239.955 38.0145 250.774 32.7576L271.19 22.8363C282.009 17.5794 294.208 15.8647 306.057 17.9361L346.644 25.0316" stroke="#D66C14" stroke-width="4"/>
<path d="M-108.083 91.1567L-70.9177 73.2653C-60.1446 68.0789 -48.0176 66.3973 -36.2397 68.4563L-14.2749 72.2963C-2.56609 74.3433 9.48978 72.6936 20.2182 67.5761L41.7708 57.2952C52.4347 52.2084 64.4117 50.5471 76.0576 52.5392L98.816 56.4321C110.602 58.448 122.722 56.7219 133.477 51.4961L153.997 41.5244C164.816 36.2675 177.015 34.5528 188.865 36.6242L211.224 40.5334C223.073 42.6047 235.273 40.8903 246.092 35.6331L266.508 25.7121C277.326 20.4549 289.526 18.7405 301.375 20.8118L341.962 27.9074" stroke="#D66C14" stroke-width="4"/>
<path d="M-95.4167 108.477L-56.0105 89.9415C-45.5108 85.0026 -33.7577 83.3722 -22.3102 85.2665L2.49347 89.3708C13.8738 91.254 25.5578 89.654 36.0128 84.7807L60.2694 73.4741C70.6615 68.6302 82.269 67.0195 93.5881 68.8508L119.207 72.9962C130.662 74.8495 142.409 73.1772 152.889 68.201L176.095 57.1846C186.639 52.1785 198.464 50.5168 209.981 52.4222L235.212 56.5975C246.727 58.5032 258.552 56.8415 269.096 51.8353L292.201 40.8669C302.746 35.8607 314.57 34.199 326.085 36.1047L369.007 43.2068" stroke="#D66C14" stroke-width="2"/>
<path d="M-103.184 112.427L-63.7781 93.8914C-53.2784 88.9525 -41.5253 87.3222 -30.0778 89.2164L-5.27411 93.3207C6.10626 95.2038 17.7902 93.6038 28.2453 88.7304L52.5018 77.4239C62.8939 72.5799 74.5014 70.9693 85.8197 72.8007L111.439 76.946C122.894 78.7994 134.64 77.1271 145.123 72.1507L168.327 61.1344C178.873 56.1282 190.696 54.4665 202.212 56.3722L227.444 60.5474C238.961 62.4529 250.784 60.7912 261.33 55.785L284.433 44.8169C294.978 39.8107 306.802 38.149 318.319 40.0547L361.239 47.1568" stroke="#D66C14" stroke-width="2"/>
<path d="M-94.1323 113.873L-54.726 95.3374C-44.2263 90.3985 -32.4733 88.7681 -21.0257 90.6624L3.77783 94.7666C15.1582 96.6497 26.8421 95.0497 37.2974 90.1763L61.554 78.8698C71.946 74.0258 83.5533 72.4152 94.8718 74.2466L120.49 78.3919C131.945 80.2454 143.692 78.573 154.175 73.5968L177.379 62.5803C187.925 57.5741 199.747 55.9124 211.264 57.8181L236.496 61.9933C248.013 63.8988 259.835 62.2371 270.382 57.231L293.485 46.2628C304.03 41.2566 315.854 39.5949 327.371 41.5006L370.291 48.6027" stroke="#D66C14" stroke-width="8"/>
<path opacity="0.8" d="M-97.6924 116.326L-58.2861 97.79C-47.7863 92.8511 -36.0334 91.2207 -24.5857 93.115L0.217761 97.2193C11.5981 99.1025 23.282 97.5025 33.7373 92.629L57.9939 81.3226C68.3859 76.4787 79.9933 74.8678 91.3126 76.6993L116.931 80.8447C128.384 82.698 140.133 81.0257 150.614 76.0495L173.819 65.033C184.364 60.0268 196.188 58.3651 207.705 60.2708L232.937 64.446C244.452 66.3517 256.276 64.69 266.821 59.6838L289.926 48.7154C300.47 43.7093 312.295 42.0475 323.809 43.9532L366.731 51.0553" stroke="#D66C14" stroke-width="16"/>
<path d="M-97.2769 122.136L-57.8707 103.6C-47.3709 98.6615 -35.6178 97.0311 -24.1702 98.9254L0.633343 103.03C12.0137 104.913 23.6976 103.313 34.1527 98.4394L58.4093 87.1329C68.8013 82.2891 80.4089 80.6782 91.7264 82.5097L117.347 86.6551C128.8 88.5084 140.547 86.8361 151.029 81.8599L174.235 70.8434C184.78 65.8372 196.604 64.1755 208.121 66.0812L233.351 70.2564C244.868 72.1621 256.692 70.5004 267.236 65.4942L290.34 54.5258C300.886 49.5197 312.708 47.858 324.225 49.7637L367.145 56.8658" stroke="#D66C14" stroke-width="4"/>
<path d="M-99.8562 70.513L-62.6914 52.6213C-51.9183 47.4352 -39.7912 45.7534 -28.0134 47.8125L-6.04879 51.6525C5.66025 53.6995 17.7159 52.0496 28.4444 46.9321L49.9972 36.6512C60.6611 31.5646 72.6381 29.9031 84.2839 31.8952L107.042 35.7882C118.828 37.8041 130.948 36.078 141.703 30.8522L162.223 20.8804C173.042 15.6235 185.242 13.9088 197.091 15.9802L219.452 19.8894C231.299 21.9608 243.499 20.2463 254.318 14.9894L274.734 5.06809C285.553 -0.188832 297.754 -1.9035 309.601 0.167872L350.188 7.2634" stroke="#D66C14" stroke-width="8"/>
<path d="M-104.843 68.7371L-67.6777 50.8457C-56.9046 45.6593 -44.7776 43.9775 -32.9997 46.0367L-11.0351 49.8767C0.673946 51.9237 12.7296 50.2738 23.4581 45.1562L45.0109 34.8755C55.6748 29.7887 67.6518 28.1272 79.2976 30.1193L102.056 34.0123C113.842 36.0282 125.962 34.3021 136.717 29.0763L157.237 19.1046C168.056 13.8476 180.256 12.133 192.105 14.2045L214.464 18.1137C226.313 20.1851 238.513 18.4704 249.332 13.2135L269.748 3.29222C280.567 -1.96471 292.766 -3.67938 304.615 -1.60801L345.202 5.48752" stroke="#D66C14" stroke-width="4"/>
<path opacity="0.5" d="M-126.354 32.0665L-86.9475 13.5307C-76.4479 8.59198 -64.6947 6.9616 -53.2471 8.85588L-28.4436 12.9602C-17.0632 14.8432 -5.37929 13.2432 5.07579 8.36984L29.3324 -2.93668C39.7244 -7.78065 51.332 -9.3913 62.6503 -7.55986L88.2694 -3.4146C99.7246 -1.56111 111.472 -3.23344 121.952 -8.20984L145.158 -19.2262C155.702 -24.2323 167.527 -25.894 179.044 -23.9884L204.275 -19.8133C215.79 -17.9076 227.615 -19.5693 238.159 -24.5755L261.264 -35.5437C271.809 -40.5499 283.633 -42.2118 295.148 -40.3061L338.07 -33.2038" stroke="#D66C14" stroke-width="8"/>
<path d="M-119.339 27.9475L-79.9324 9.4117C-69.4327 4.473 -57.6798 2.84262 -46.2321 4.7369L-21.4284 8.84118C-10.048 10.7242 1.63588 9.12422 12.091 4.25086L36.3475 -7.05566C46.7396 -11.8996 58.3471 -13.5103 69.6654 -11.6788L95.2856 -7.53358C106.739 -5.68009 118.486 -7.35242 128.968 -12.3288L152.174 -23.3452C162.718 -28.3513 174.543 -30.013 186.057 -28.1073L211.289 -23.9323C222.806 -22.0266 234.631 -23.6883 245.175 -28.6945L268.278 -39.6627C278.825 -44.6689 290.647 -46.3305 302.164 -44.4251L345.084 -37.3228" stroke="#D66C14" stroke-width="4"/>
<path opacity="0.7" d="M-118.746 14.3309L-79.3401 -4.2047C-68.8404 -9.14359 -57.0874 -10.774 -45.6398 -8.87969L-20.8363 -4.77542C-9.45573 -2.89216 2.22818 -4.49219 12.6833 -9.36574L36.9398 -20.6723C47.3319 -25.5162 58.9394 -27.1269 70.2577 -25.2954L95.8771 -21.15C107.332 -19.2967 119.079 -20.969 129.56 -25.9452L152.765 -36.9618C163.31 -41.9679 175.134 -43.6296 186.651 -41.7239L211.883 -37.5487C223.398 -35.643 235.222 -37.3049 245.767 -42.3109L268.872 -53.2793C279.416 -58.2855 291.24 -59.9472 302.755 -58.0415L345.677 -50.9394" stroke="#D66C14" stroke-width="4"/>
<path opacity="0.8" d="M-126.608 37.9024L-87.2016 19.3665C-76.7018 14.4276 -64.9489 12.7973 -53.5012 14.6915L-28.6977 18.7958C-17.3172 20.6791 -5.63344 19.079 4.82183 14.2057L29.0784 2.89917C39.4704 -1.9448 51.078 -3.55546 62.3963 -1.7242L88.0155 2.42125C99.4693 4.27455 111.216 2.60221 121.699 -2.37399L144.905 -13.3905C155.449 -18.3965 167.273 -20.0584 178.788 -18.1527L204.02 -13.9775C215.537 -12.0718 227.361 -13.7335 237.906 -18.7397L261.009 -29.708C271.555 -34.7142 283.378 -36.3759 294.894 -34.4702L337.814 -27.3681" stroke="#D66C14" stroke-width="16"/>
<path opacity="0.7" d="M-124.487 47.3492L-85.0807 28.8136C-74.581 23.8747 -62.828 22.2443 -51.3804 24.1386L-26.5769 28.2428C-15.1965 30.1261 -3.5126 28.5261 6.94267 23.6525L31.1992 12.3462C41.5913 7.50223 53.1986 5.89138 64.517 7.72282L90.1371 11.8683C101.59 13.7216 113.337 12.0492 123.82 7.07303L147.025 -3.94349C157.57 -8.94967 169.394 -10.6114 180.909 -8.70568L206.141 -4.53045C217.658 -2.62476 229.482 -4.28647 240.027 -9.29264L263.13 -20.261C273.676 -25.2672 285.498 -26.9289 297.015 -25.0232L339.935 -17.9211" stroke="#D66C14" stroke-width="8"/>
<path opacity="0.7" d="M-135.116 44.9383L-95.7096 26.4027C-85.2098 21.4638 -73.4569 19.8334 -62.0092 21.7277L-37.2057 25.8319C-25.8252 27.7152 -14.1413 26.1152 -3.68617 21.2416L20.5704 9.93511C30.9625 5.09134 42.57 3.48049 53.8883 5.31193L79.5075 9.45738C90.9627 11.3107 102.71 9.63835 113.19 4.66214L136.396 -6.35438C146.94 -11.3606 158.765 -13.0223 170.282 -11.1166L195.513 -6.94134C207.028 -5.03565 218.853 -6.69755 229.397 -11.7035L252.502 -22.6719C263.047 -27.6781 274.871 -29.3398 286.386 -27.4341L329.308 -20.332" stroke="#D66C14" stroke-width="8"/>
<path d="M-133.468 36.0844L-94.0617 17.5488C-83.5619 12.6099 -71.809 10.9795 -60.3613 12.8738L-35.5578 16.9781C-24.1775 18.8613 -12.4936 17.2613 -2.03829 12.388L22.2183 1.08143C32.6103 -3.76254 44.2177 -5.3734 55.5362 -3.54195L81.1552 0.603508C92.61 2.4568 104.357 0.784467 114.839 -4.19174L138.043 -15.2083C148.588 -20.2144 160.412 -21.8761 171.929 -19.9704L197.161 -15.7952C208.678 -13.8895 220.5 -15.5512 231.046 -20.5574L254.15 -31.5258C264.694 -36.532 276.518 -38.1937 288.035 -36.288L330.955 -29.1859" stroke="#D66C14" stroke-width="4"/>
<path opacity="0.7" d="M61.9928 61.628C62.618 63.9708 55.3713 68.843 47.5778 71.1673C39.7844 73.4915 32.7092 74.8122 32.0839 72.4693C31.4587 70.1265 37.5203 65.0075 45.3139 62.6832C53.1074 60.359 61.3675 59.2852 61.9928 61.628Z" fill="#D66C14"/>
<path opacity="0.6" d="M58.6963 62.4818C59.181 64.2982 53.3659 68.4121 47.3237 70.2142C41.2813 72.0163 35.2639 73.3213 34.7793 71.5049C34.2946 69.6885 39.526 65.4385 45.5684 63.6364C51.6107 61.8344 58.2117 60.6655 58.6963 62.4818Z" fill="#F8B375"/>
<path d="M47.7382 11.2413C48.1326 13.0793 45.3517 16.1094 42.2755 16.8638C39.1996 17.6182 36.0993 17.8955 35.7047 16.0574C35.3103 14.2194 37.7709 10.9619 40.8468 10.2076C43.9229 9.45316 47.3436 9.40329 47.7382 11.2413Z" fill="#F8B375"/>
<path opacity="0.6" d="M45.5859 12.0465C45.8399 13.2305 44.0487 15.1822 42.0674 15.6681C40.0859 16.1541 38.089 16.3327 37.8349 15.1488C37.5809 13.9648 39.1656 11.8666 41.1471 11.3807C43.1284 10.8949 45.3316 10.8626 45.5859 12.0465Z" fill="#BA6824"/>
<path opacity="0.5" d="M56.5215 62.9827C56.8269 64.127 51.9584 67.5183 47.3886 68.8811C42.8188 70.2439 37.7935 71.7803 37.488 70.636C37.1827 69.4916 41.7129 66.1 46.2827 64.737C50.8525 63.3742 56.2162 61.8384 56.5215 62.9827Z" fill="#D66C14"/>
<path opacity="0.6" d="M53.7795 64.3089C53.996 65.1204 50.4681 67.312 47.2278 68.2783C43.9875 69.2446 41.0144 69.9933 40.7979 69.1819C40.5814 68.3705 43.2034 66.3063 46.4436 65.34C49.6839 64.3735 53.5629 63.4975 53.7795 64.3089Z" fill="#91470A"/>
<path opacity="0.6" d="M8.67757 47.8376C8.62441 48.6757 4.58201 49.629 1.20273 49.5126C-2.17654 49.3962 -5.23315 49.1586 -5.17998 48.3205C-5.12662 47.4824 -1.9836 46.3611 1.39568 46.4775C4.77495 46.5941 8.73093 46.9995 8.67757 47.8376Z" fill="#91470A"/>
<path d="M1.7969 79.2126C1.92198 80.043 -0.35297 81.563 -2.42628 81.9371C-4.49958 82.3114 -6.39986 82.5198 -6.52475 81.6894C-6.64984 80.859 -4.95257 79.3041 -2.87926 78.93C-0.805954 78.5557 1.67181 78.382 1.7969 79.2126Z" fill="#CE7422"/>
<path opacity="0.5" d="M5.6347 5.84782C5.46128 4.97801 2.51198 4.55983 -0.888174 5.23766C-4.28833 5.91568 -7.60825 7.65201 -7.43464 8.52201C-7.26122 9.39201 -3.60779 9.3284 -0.207637 8.65057C3.19232 7.97255 5.80812 6.71782 5.6347 5.84782Z" fill="#D66C14"/>
<path opacity="0.4" d="M19.1649 -0.25881C18.7665 -1.05128 17.3404 -1.43873 16.1284 -0.829146C14.9164 -0.219759 14.1329 1.35378 14.5315 2.14626C14.93 2.93873 16.4799 2.88923 17.6919 2.27985C18.9039 1.67027 19.5634 0.533663 19.1649 -0.25881Z" fill="#D66C14"/>
</g>
<g filter="url(#filter1_f_30_801)">
<path d="M-6.90571 -33.6575C-47.2735 23.882 -6.34718 103.071 63.9395 103.423L86.4751 103.536L-112.22 109.627L-6.90571 -33.6575Z" fill="url(#paint1_linear_30_801)" fill-opacity="0.4"/>
</g>
</g>
</g>
<defs>
<filter id="filter0_f_30_801" x="-141.818" y="-65.8093" width="517.762" height="194.755" filterUnits="userSpaceOnUse" color-interpolation-filters="sRGB">
<feFlood flood-opacity="0" result="BackgroundImageFix"/>
<feBlend mode="normal" in="SourceGraphic" in2="BackgroundImageFix" result="shape"/>
<feGaussianBlur stdDeviation="2.5" result="effect1_foregroundBlur_30_801"/>
</filter>
<filter id="filter1_f_30_801" x="-152.22" y="-73.6575" width="278.695" height="223.285" filterUnits="userSpaceOnUse" color-interpolation-filters="sRGB">
<feFlood flood-opacity="0" result="BackgroundImageFix"/>
<feBlend mode="normal" in="SourceGraphic" in2="BackgroundImageFix" result="shape"/>
<feGaussianBlur stdDeviation="20" result="effect1_foregroundBlur_30_801"/>
</filter>
<linearGradient id="paint0_linear_30_801" x1="63.7284" y1="19.7993" x2="-46.153" y2="54.0824" gradientUnits="userSpaceOnUse">
<stop stop-color="#F4E8D5"/>
<stop offset="1" stop-color="#FC7100"/>
</linearGradient>
<linearGradient id="paint1_linear_30_801" x1="-54.8195" y1="77.8498" x2="-0.696614" y2="57.6301" gradientUnits="userSpaceOnUse">
<stop stop-color="#511D04"/>
<stop offset="1" stop-color="#CD7121"/>
</linearGradient>
<clipPath id="clip0_30_801">
<rect width="70" height="88" fill="white"/>
</clipPath>
</defs>
</svg>
