<svg width="66" height="88" viewBox="0 0 66 88" fill="none" xmlns="http://www.w3.org/2000/svg">
<g clip-path="url(#clip0_30_585)">
<mask id="mask0_30_585" style="mask-type:luminance" maskUnits="userSpaceOnUse" x="-51" y="-15" width="118" height="118">
<path d="M65.7794 38.945C62.9876 7.03437 34.8557 -16.5711 2.94507 -13.7793C-28.9656 -10.9875 -52.571 17.1444 -49.7792 49.0551C-46.9874 80.9657 -18.8555 104.571 13.0551 101.779C44.9658 98.9875 68.5712 70.8556 65.7794 38.945Z" fill="white"/>
</mask>
<g mask="url(#mask0_30_585)">
<path d="M65.7794 38.945C62.9876 7.03437 34.8557 -16.5711 2.94507 -13.7793C-28.9656 -10.9875 -52.571 17.1444 -49.7792 49.0551C-46.9874 80.9657 -18.8555 104.571 13.0551 101.779C44.9658 98.9875 68.5712 70.8556 65.7794 38.945Z" fill="url(#paint0_linear_30_585)"/>
<g filter="url(#filter0_i_30_585)">
<path d="M3.04045 14.1699C0.0996552 15.97 -2.54379 14.8027 -4.39129 11.7845C-6.23878 8.76641 -5.35254 4.8605 -2.41174 3.06018C0.528857 1.26005 4.04462 2.27892 5.89211 5.29704C7.73961 8.31517 5.98124 12.3698 3.04045 14.1699Z" fill="#E31949"/>
</g>
<g filter="url(#filter1_i_30_585)">
<path d="M2.90629 11.7479C1.04893 12.8849 -1.93884 12.644 -3.07584 10.7867C-4.21283 8.92932 -3.18546 5.6529 -1.32811 4.51591C0.529244 3.37891 3.07371 4.46912 4.21051 6.32647C5.3475 8.18363 4.76364 10.6109 2.90629 11.7479Z" fill="#C60C38"/>
</g>
<g filter="url(#filter2_i_30_585)">
<path d="M18.2762 96.1008C15.5685 97.7583 10.5798 95.3586 8.92231 92.651C7.26506 89.9433 8.76262 85.1668 11.4701 83.5094C14.1777 81.8521 17.887 83.4411 19.5444 86.1488C21.2019 88.8564 20.9838 94.4434 18.2762 96.1008Z" fill="#BA1F44"/>
</g>
<g filter="url(#filter3_i_30_585)">
<path d="M39.3741 29.397C35.3353 33.9274 32.2347 31.5556 27.585 27.4107C22.9355 23.2657 20.4926 17.9832 24.5313 13.4528C28.57 8.92245 35.0125 8.84937 39.6621 12.9944C44.3116 17.1395 43.4128 24.8666 39.3741 29.397Z" fill="#E31949"/>
</g>
<g filter="url(#filter4_i_30_585)">
<path d="M37.9146 25.3843C35.3637 28.2455 31.9386 27.4178 29.0775 24.8672C26.2162 22.3163 24.5471 18.2151 27.098 15.3538C29.6486 12.4927 34.4912 13.034 37.3524 15.5848C40.2137 18.1357 40.4654 22.523 37.9146 25.3843Z" fill="#C60C38"/>
</g>
<g filter="url(#filter5_i_30_585)">
<path d="M49.303 101.78C43.364 102.702 42.4862 98.9371 41.5406 92.8418C40.5951 86.7466 42.052 81.1707 47.991 80.2493C53.93 79.3278 58.9012 83.3267 59.8468 89.422C60.7926 95.5174 55.242 100.859 49.303 101.78Z" fill="#E31949"/>
</g>
<g filter="url(#filter6_i_30_585)">
<path d="M50.713 97.7943C46.9621 98.3762 44.8644 95.5878 44.2825 91.8367C43.7006 88.0859 45.0059 83.9 48.7568 83.3181C52.5077 82.7361 55.869 86.198 56.4509 89.9488C57.0328 93.6999 54.4638 97.2123 50.713 97.7943Z" fill="#C60C38"/>
</g>
<g filter="url(#filter7_i_30_585)">
<path d="M62.7807 48.9058C59.9704 50.3952 57.5451 48.7627 56.0556 45.9526C54.5662 43.1425 54.4517 39.4704 57.2618 37.9809C60.0719 36.4915 63.6826 38.3106 65.1721 41.1207C66.6615 43.931 65.5908 47.4164 62.7807 48.9058Z" fill="#E31949"/>
</g>
<g filter="url(#filter8_i_30_585)">
<path d="M61.4967 74.3777C60.9432 75.2243 61.014 76.6147 61.8606 77.1683C62.7072 77.7218 64.2424 77.2901 64.7959 76.4434C65.3495 75.5968 64.8783 74.4005 64.0317 73.847C63.1851 73.2935 62.0502 73.5311 61.4967 74.3777Z" fill="#C60C38"/>
</g>
<g filter="url(#filter9_i_30_585)">
<path d="M22.0488 -13.6906C18.8509 -8.79867 20.6959 -4.26114 25.7164 -0.979115C30.737 2.30311 37.3995 0.998108 40.5976 -3.8938C43.7955 -8.78553 42.2464 -14.7934 37.2257 -18.0756C32.205 -21.3576 25.247 -18.5825 22.0488 -13.6906Z" fill="#E31949"/>
</g>
<path d="M22.0126 73.8968C22.7831 73.8294 23.3531 73.1501 23.2857 72.3796C23.2183 71.609 22.539 71.039 21.7685 71.1065C20.9979 71.1739 20.4279 71.8532 20.4954 72.6237C20.5628 73.3942 21.2421 73.9642 22.0126 73.8968Z" fill="#E31949"/>
<path d="M9.76136 13.4522C10.5319 13.3848 11.1019 12.7055 11.0345 11.935C10.9671 11.1645 10.2878 10.5945 9.51724 10.6619C8.74671 10.7293 8.17672 11.4086 8.24413 12.1791C8.31155 12.9496 8.99083 13.5196 9.76136 13.4522Z" fill="#E31949"/>
<path d="M-318.867 96.6621L-279.564 80.447C-268.694 75.962 -256.705 74.9349 -245.23 77.5056L-221.937 82.7233C-210.529 85.2788 -198.612 84.279 -187.789 79.8585L-164.207 70.2266C-153.45 65.8329 -141.61 64.8181 -130.261 67.3171L-106.166 72.6234C-94.6819 75.1526 -82.6971 74.0821 -71.8426 69.5579L-49.3175 60.1696C-38.3979 55.6181 -26.336 54.5629 -14.7921 57.149L8.91023 62.4585C20.4544 65.0445 32.516 63.9891 43.4357 59.4378L65.8558 50.0931C76.7755 45.5418 88.8366 44.4866 100.38 47.0726L141.825 56.3567" stroke="#A60823" stroke-width="16"/>
<path d="M-327.486 109.061L-288.183 92.8452C-277.312 88.3603 -265.324 87.3333 -253.849 89.9039L-230.556 95.1216C-219.148 97.6772 -207.231 96.6775 -196.408 92.2569L-172.826 82.6251C-162.069 78.2312 -150.229 77.2164 -138.88 79.7156L-114.785 85.0218C-103.301 87.5508 -91.3161 86.4805 -80.4614 81.9563L-57.9366 72.5679C-47.0169 68.0166 -34.955 66.9612 -23.4109 69.5472L0.291168 74.8567C11.8353 77.4428 23.8972 76.3876 34.8168 71.8363L57.2369 62.4915C68.1566 57.9403 80.2185 56.8849 91.7616 59.4709L133.207 68.755" stroke="#A60823" stroke-width="16"/>
<path d="M-336.611 115.681L-297.308 99.4658C-286.437 94.9808 -274.448 93.9538 -262.973 96.5244L-239.68 101.742C-228.272 104.298 -216.355 103.298 -205.533 98.8775L-181.951 89.2456C-171.193 84.8517 -159.353 83.8369 -148.005 86.3359L-123.91 91.6422C-112.425 94.1713 -100.44 93.1011 -89.5858 88.5769L-67.0609 79.1884C-56.1412 74.6369 -44.0794 73.5817 -32.5352 76.1678L-8.83313 81.4773C2.71099 84.0633 14.7729 83.0079 25.6925 78.4566L48.1126 69.1121C59.0323 64.5606 71.094 63.5054 82.6381 66.0914L124.083 75.3755" stroke="#A60823" stroke-width="24"/>
<path d="M-324.309 101.02L-285.005 84.8043C-274.134 80.3194 -262.146 79.2924 -250.671 81.863L-227.378 87.0808C-215.97 89.6363 -204.053 88.6366 -193.23 84.216L-169.648 74.5842C-158.891 70.1903 -147.051 69.1755 -135.702 71.6747L-111.607 76.9809C-100.123 79.5099 -88.1381 78.4396 -77.2836 73.9154L-54.7586 64.527C-43.8389 59.9757 -31.777 58.9205 -20.2329 61.5063L3.46921 66.8158C15.0133 69.4019 27.0752 68.3467 37.9949 63.7954L60.4148 54.4506C71.3346 49.8994 83.3963 48.844 94.94 51.43L136.385 60.7141" stroke="#A60823" stroke-width="8"/>
<path d="M-316.268 104.197L-276.964 87.9824C-266.093 83.4974 -254.105 82.4704 -242.63 85.041L-219.337 90.2587C-207.929 92.8142 -196.012 91.8144 -185.189 87.3941L-161.607 77.7622C-150.85 73.3683 -139.01 72.3535 -127.661 74.8525L-103.566 80.1588C-92.082 82.6879 -80.0972 81.6176 -69.2426 77.0935L-46.7176 67.705C-35.7979 63.1537 -23.736 62.0983 -12.1919 64.6844L11.5102 69.9939C23.0543 72.5799 35.116 71.5247 46.0358 66.9732L68.4557 57.6287C79.3754 53.0772 91.4369 52.022 102.981 54.608L144.426 63.8921" stroke="#A60823" stroke-width="8"/>
<g opacity="0.3" filter="url(#filter10_f_30_585)">
<path d="M-12.9796 -32.2294C-50.2805 27.3438 -5.26573 104.283 64.9431 100.955L87.4542 99.8884L-110.651 116.371L-12.9796 -32.2294Z" fill="#86041B"/>
</g>
</g>
</g>
<defs>
<filter id="filter0_i_30_585" x="-5.35571" y="2.16931" width="12.0049" height="16.5178" filterUnits="userSpaceOnUse" color-interpolation-filters="sRGB">
<feFlood flood-opacity="0" result="BackgroundImageFix"/>
<feBlend mode="normal" in="SourceGraphic" in2="BackgroundImageFix" result="shape"/>
<feColorMatrix in="SourceAlpha" type="matrix" values="0 0 0 0 0 0 0 0 0 0 0 0 0 0 0 0 0 0 127 0" result="hardAlpha"/>
<feOffset dy="3.66408"/>
<feGaussianBlur stdDeviation="3.66408"/>
<feComposite in2="hardAlpha" operator="arithmetic" k2="-1" k3="1"/>
<feColorMatrix type="matrix" values="0 0 0 0 0.541667 0 0 0 0 0.040625 0 0 0 0 0.142143 0 0 0 1 0"/>
<feBlend mode="normal" in2="shape" result="effect1_innerShadow_30_585"/>
</filter>
<filter id="filter1_i_30_585" x="-3.55151" y="4.05261" width="8.34277" height="12.0471" filterUnits="userSpaceOnUse" color-interpolation-filters="sRGB">
<feFlood flood-opacity="0" result="BackgroundImageFix"/>
<feBlend mode="normal" in="SourceGraphic" in2="BackgroundImageFix" result="shape"/>
<feColorMatrix in="SourceAlpha" type="matrix" values="0 0 0 0 0 0 0 0 0 0 0 0 0 0 0 0 0 0 127 0" result="hardAlpha"/>
<feOffset dy="3.66408"/>
<feGaussianBlur stdDeviation="3.66408"/>
<feComposite in2="hardAlpha" operator="arithmetic" k2="-1" k3="1"/>
<feColorMatrix type="matrix" values="0 0 0 0 0.541667 0 0 0 0 0.040625 0 0 0 0 0.142143 0 0 0 1 0"/>
<feBlend mode="normal" in2="shape" result="effect1_innerShadow_30_585"/>
</filter>
<filter id="filter2_i_30_585" x="8.229" y="82.8341" width="12.366" height="17.4762" filterUnits="userSpaceOnUse" color-interpolation-filters="sRGB">
<feFlood flood-opacity="0" result="BackgroundImageFix"/>
<feBlend mode="normal" in="SourceGraphic" in2="BackgroundImageFix" result="shape"/>
<feColorMatrix in="SourceAlpha" type="matrix" values="0 0 0 0 0 0 0 0 0 0 0 0 0 0 0 0 0 0 127 0" result="hardAlpha"/>
<feOffset dy="3.66408"/>
<feGaussianBlur stdDeviation="3.66408"/>
<feComposite in2="hardAlpha" operator="arithmetic" k2="-1" k3="1"/>
<feColorMatrix type="matrix" values="0 0 0 0 0.541667 0 0 0 0 0.040625 0 0 0 0 0.142143 0 0 0 1 0"/>
<feBlend mode="normal" in2="shape" result="effect1_innerShadow_30_585"/>
</filter>
<filter id="filter3_i_30_585" x="22.4893" y="9.96729" width="20.302" height="25.5499" filterUnits="userSpaceOnUse" color-interpolation-filters="sRGB">
<feFlood flood-opacity="0" result="BackgroundImageFix"/>
<feBlend mode="normal" in="SourceGraphic" in2="BackgroundImageFix" result="shape"/>
<feColorMatrix in="SourceAlpha" type="matrix" values="0 0 0 0 0 0 0 0 0 0 0 0 0 0 0 0 0 0 127 0" result="hardAlpha"/>
<feOffset dy="3.66408"/>
<feGaussianBlur stdDeviation="3.66408"/>
<feComposite in2="hardAlpha" operator="arithmetic" k2="-1" k3="1"/>
<feColorMatrix type="matrix" values="0 0 0 0 0.541667 0 0 0 0 0.040625 0 0 0 0 0.142143 0 0 0 1 0"/>
<feBlend mode="normal" in2="shape" result="effect1_innerShadow_30_585"/>
</filter>
<filter id="filter4_i_30_585" x="25.8403" y="13.4296" width="13.8342" height="17.4205" filterUnits="userSpaceOnUse" color-interpolation-filters="sRGB">
<feFlood flood-opacity="0" result="BackgroundImageFix"/>
<feBlend mode="normal" in="SourceGraphic" in2="BackgroundImageFix" result="shape"/>
<feColorMatrix in="SourceAlpha" type="matrix" values="0 0 0 0 0 0 0 0 0 0 0 0 0 0 0 0 0 0 127 0" result="hardAlpha"/>
<feOffset dy="3.66408"/>
<feGaussianBlur stdDeviation="3.66408"/>
<feComposite in2="hardAlpha" operator="arithmetic" k2="-1" k3="1"/>
<feColorMatrix type="matrix" values="0 0 0 0 0.541667 0 0 0 0 0.040625 0 0 0 0 0.142143 0 0 0 1 0"/>
<feBlend mode="normal" in2="shape" result="effect1_innerShadow_30_585"/>
</filter>
<filter id="filter5_i_30_585" x="41.2756" y="80.1174" width="18.677" height="25.4652" filterUnits="userSpaceOnUse" color-interpolation-filters="sRGB">
<feFlood flood-opacity="0" result="BackgroundImageFix"/>
<feBlend mode="normal" in="SourceGraphic" in2="BackgroundImageFix" result="shape"/>
<feColorMatrix in="SourceAlpha" type="matrix" values="0 0 0 0 0 0 0 0 0 0 0 0 0 0 0 0 0 0 127 0" result="hardAlpha"/>
<feOffset dy="3.66408"/>
<feGaussianBlur stdDeviation="3.66408"/>
<feComposite in2="hardAlpha" operator="arithmetic" k2="-1" k3="1"/>
<feColorMatrix type="matrix" values="0 0 0 0 0.541667 0 0 0 0 0.040625 0 0 0 0 0.142143 0 0 0 1 0"/>
<feBlend mode="normal" in2="shape" result="effect1_innerShadow_30_585"/>
</filter>
<filter id="filter6_i_30_585" x="44.1499" y="83.2538" width="12.3833" height="18.2815" filterUnits="userSpaceOnUse" color-interpolation-filters="sRGB">
<feFlood flood-opacity="0" result="BackgroundImageFix"/>
<feBlend mode="normal" in="SourceGraphic" in2="BackgroundImageFix" result="shape"/>
<feColorMatrix in="SourceAlpha" type="matrix" values="0 0 0 0 0 0 0 0 0 0 0 0 0 0 0 0 0 0 127 0" result="hardAlpha"/>
<feOffset dy="3.66408"/>
<feGaussianBlur stdDeviation="3.66408"/>
<feComposite in2="hardAlpha" operator="arithmetic" k2="-1" k3="1"/>
<feColorMatrix type="matrix" values="0 0 0 0 0.541667 0 0 0 0 0.040625 0 0 0 0 0.142143 0 0 0 1 0"/>
<feBlend mode="normal" in2="shape" result="effect1_innerShadow_30_585"/>
</filter>
<filter id="filter7_i_30_585" x="55.02" y="37.4479" width="10.8237" height="15.6848" filterUnits="userSpaceOnUse" color-interpolation-filters="sRGB">
<feFlood flood-opacity="0" result="BackgroundImageFix"/>
<feBlend mode="normal" in="SourceGraphic" in2="BackgroundImageFix" result="shape"/>
<feColorMatrix in="SourceAlpha" type="matrix" values="0 0 0 0 0 0 0 0 0 0 0 0 0 0 0 0 0 0 127 0" result="hardAlpha"/>
<feOffset dy="3.66408"/>
<feGaussianBlur stdDeviation="3.66408"/>
<feComposite in2="hardAlpha" operator="arithmetic" k2="-1" k3="1"/>
<feColorMatrix type="matrix" values="0 0 0 0 0.541667 0 0 0 0 0.040625 0 0 0 0 0.142143 0 0 0 1 0"/>
<feBlend mode="normal" in2="shape" result="effect1_innerShadow_30_585"/>
</filter>
<filter id="filter8_i_30_585" x="61.1409" y="73.5482" width="3.89404" height="7.53188" filterUnits="userSpaceOnUse" color-interpolation-filters="sRGB">
<feFlood flood-opacity="0" result="BackgroundImageFix"/>
<feBlend mode="normal" in="SourceGraphic" in2="BackgroundImageFix" result="shape"/>
<feColorMatrix in="SourceAlpha" type="matrix" values="0 0 0 0 0 0 0 0 0 0 0 0 0 0 0 0 0 0 127 0" result="hardAlpha"/>
<feOffset dy="3.66408"/>
<feGaussianBlur stdDeviation="3.66408"/>
<feComposite in2="hardAlpha" operator="arithmetic" k2="-1" k3="1"/>
<feColorMatrix type="matrix" values="0 0 0 0 0.541667 0 0 0 0 0.040625 0 0 0 0 0.142143 0 0 0 1 0"/>
<feBlend mode="normal" in2="shape" result="effect1_innerShadow_30_585"/>
</filter>
<filter id="filter9_i_30_585" x="20.4624" y="-19.5004" width="21.8035" height="23.9954" filterUnits="userSpaceOnUse" color-interpolation-filters="sRGB">
<feFlood flood-opacity="0" result="BackgroundImageFix"/>
<feBlend mode="normal" in="SourceGraphic" in2="BackgroundImageFix" result="shape"/>
<feColorMatrix in="SourceAlpha" type="matrix" values="0 0 0 0 0 0 0 0 0 0 0 0 0 0 0 0 0 0 127 0" result="hardAlpha"/>
<feOffset dy="3.66408"/>
<feGaussianBlur stdDeviation="3.66408"/>
<feComposite in2="hardAlpha" operator="arithmetic" k2="-1" k3="1"/>
<feColorMatrix type="matrix" values="0 0 0 0 0.541667 0 0 0 0 0.040625 0 0 0 0 0.142143 0 0 0 1 0"/>
<feBlend mode="normal" in2="shape" result="effect1_innerShadow_30_585"/>
</filter>
<filter id="filter10_f_30_585" x="-140.651" y="-62.2294" width="258.105" height="208.6" filterUnits="userSpaceOnUse" color-interpolation-filters="sRGB">
<feFlood flood-opacity="0" result="BackgroundImageFix"/>
<feBlend mode="normal" in="SourceGraphic" in2="BackgroundImageFix" result="shape"/>
<feGaussianBlur stdDeviation="15" result="effect1_foregroundBlur_30_585"/>
</filter>
<linearGradient id="paint0_linear_30_585" x1="46.0927" y1="1.3678" x2="-74.2942" y2="137.077" gradientUnits="userSpaceOnUse">
<stop stop-color="#F3164E"/>
<stop offset="1" stop-color="#8B0119"/>
</linearGradient>
<clipPath id="clip0_30_585">
<rect width="66" height="88" fill="white"/>
</clipPath>
</defs>
</svg>
