<svg width="66" height="88" viewBox="0 0 66 88" fill="none" xmlns="http://www.w3.org/2000/svg">
<g clip-path="url(#clip0_30_86)">
<mask id="mask0_30_86" style="mask-type:luminance" maskUnits="userSpaceOnUse" x="-51" y="-15" width="118" height="118">
<path d="M65.8588 39.9542C63.6243 7.99968 35.9087 -16.0932 3.95418 -13.8587C-28.0003 -11.6242 -52.0931 16.0914 -49.8587 48.0459C-47.6242 80.0004 -19.9086 104.093 12.0459 101.859C44.0004 99.6243 68.0932 71.9086 65.8588 39.9542Z" fill="white"/>
</mask>
<g mask="url(#mask0_30_86)">
<path d="M65.8588 39.9542C63.6243 7.99968 35.9087 -16.0932 3.95418 -13.8587C-28.0003 -11.6242 -52.0931 16.0914 -49.8587 48.0459C-47.6242 80.0004 -19.9086 104.093 12.0459 101.859C44.0004 99.6243 68.0932 71.9086 65.8588 39.9542Z" fill="url(#paint0_linear_30_86)"/>
<g opacity="0.5" filter="url(#filter0_i_30_86)">
<path d="M5.13957 64.3671C2.16784 66.1156 -0.454717 64.9022 -2.24924 61.8522C-4.04395 58.8024 -3.08966 54.9123 -0.117933 53.1638C2.85379 51.4153 6.35119 52.4952 8.14571 55.5453C9.94023 58.5951 8.11129 62.6184 5.13957 64.3671Z" fill="#C0B1E2"/>
</g>
<g opacity="0.7" filter="url(#filter1_i_30_86)">
<path d="M5.04781 61.943C3.17093 63.0473 0.187801 62.7544 -0.916519 60.8776C-2.02084 59.0007 -0.936637 55.7426 0.940243 54.6383C2.81712 53.5338 5.34225 54.6683 6.44657 56.5452C7.55089 58.422 6.92469 60.8387 5.04781 61.943Z" fill="#A896D3"/>
</g>
<g opacity="0.5" filter="url(#filter2_i_30_86)">
<path d="M17.3651 96.2723C14.6291 97.8822 9.68304 95.3957 8.07316 92.6597C6.46327 89.9236 8.04397 85.174 10.78 83.5641C13.5161 81.9543 17.1971 83.6078 18.807 86.3439C20.4169 89.0799 20.1014 94.6624 17.3651 96.2723Z" fill="#A896D3"/>
</g>
<g opacity="0.5" filter="url(#filter3_i_30_86)">
<path d="M39.624 29.9468C35.507 34.406 32.448 31.9805 27.8715 27.755C23.2951 23.5295 20.9445 18.2053 25.0617 13.746C29.179 9.28679 35.6218 9.32623 40.1982 13.5517C44.7748 17.7772 43.7412 25.4877 39.624 29.9468Z" fill="#C0B1E2"/>
</g>
<g opacity="0.7" filter="url(#filter4_i_30_86)">
<path d="M38.2352 25.9092C35.6349 28.7255 32.2247 27.8383 29.4084 25.2379C26.5921 22.6376 24.9948 18.5078 27.5951 15.6915C30.1955 12.8752 35.0278 13.501 37.8441 16.1014C40.6604 18.7017 40.8356 23.0929 38.2352 25.9092Z" fill="#C0B1E2"/>
</g>
<g opacity="0.5" filter="url(#filter5_i_30_86)">
<path d="M48.2882 102.492C42.3341 103.31 41.5223 99.5305 40.683 93.4196C39.844 87.3089 41.3982 81.7591 47.3523 80.9415C53.3063 80.1239 58.207 84.209 59.0462 90.3199C59.8853 96.4308 54.2425 101.675 48.2882 102.492Z" fill="#E6D7FF"/>
</g>
<g opacity="0.7" filter="url(#filter6_i_30_86)">
<path d="M49.7677 98.5314C46.0072 99.0478 43.9586 96.2232 43.4423 92.4627C42.9259 88.7022 44.3039 84.5399 48.0645 84.0235C51.825 83.5071 55.1254 87.0269 55.6418 90.7875C56.1582 94.548 53.5283 98.015 49.7677 98.5314Z" fill="#C0B1E2"/>
</g>
<g opacity="0.7" filter="url(#filter7_i_30_86)">
<path d="M62.6868 49.8612C59.8512 51.3014 57.4546 49.6267 56.0145 46.7911C54.5743 43.9553 54.5239 40.2818 57.3595 38.8416C60.1953 37.4015 63.7735 39.2834 65.2137 42.119C66.6538 44.9546 65.5226 48.4209 62.6868 49.8612Z" fill="#E6D7FF"/>
</g>
<g opacity="0.7" filter="url(#filter8_i_30_86)">
<path d="M67.259 32.099C64.4232 33.5391 62.0266 31.8647 60.5865 29.0289C59.1463 26.1932 59.0959 22.5197 61.9317 21.0796C64.7673 19.6394 68.3457 21.5211 69.7859 24.3568C71.226 27.1926 70.0946 30.6588 67.259 32.099Z" fill="#E6D7FF"/>
</g>
<g opacity="0.7" filter="url(#filter9_i_30_86)">
<path d="M60.9584 75.3069C60.3904 76.1436 60.4366 77.5352 61.2735 78.1032C62.1103 78.6715 63.6529 78.2666 64.2211 77.4299C64.7893 76.5929 64.3392 75.3885 63.5024 74.8205C62.6655 74.2522 61.5266 74.4701 60.9584 75.3069Z" fill="#C0B1E2"/>
</g>
<g opacity="0.8">
<g opacity="0.5" filter="url(#filter10_i_30_86)">
<path d="M29.3431 48.6247C21.8545 52.9679 21.2743 60.1999 25.7316 67.8857C30.1891 75.5713 39.8734 78.2809 47.3619 73.9378C54.8503 69.5946 56.8008 60.6141 52.3435 52.9285C47.886 45.2429 36.8316 44.2817 29.3431 48.6247Z" fill="#E6D7FF"/>
</g>
<g opacity="0.7" filter="url(#filter11_i_30_86)">
<path d="M34.5315 51.8145C29.8019 54.5577 26.7641 61.4433 29.5071 66.1728C32.2501 70.9025 40.7129 72.5486 45.4426 69.8055C50.1721 67.0625 50.8049 60.1412 48.0619 55.4117C45.3189 50.682 39.2612 49.0715 34.5315 51.8145Z" fill="#C0B1E2"/>
</g>
<g opacity="0.7" filter="url(#filter12_i_30_86)">
<path d="M34.0013 56.5428C31.3648 58.0719 29.6716 61.9101 31.2005 64.5464C32.7296 67.1829 37.4471 68.1005 40.0834 66.5714C42.7199 65.0425 43.0725 61.1844 41.5436 58.5479C40.0146 55.9114 36.6378 55.0137 34.0013 56.5428Z" fill="#A896D3"/>
</g>
<g opacity="0.7" filter="url(#filter13_i_30_86)">
<path d="M22.1618 36.3392C20.4403 37.3375 19.3347 39.8435 20.333 41.565C21.3314 43.2864 24.4116 43.8855 26.133 42.8872C27.8545 41.8888 28.0847 39.3697 27.0864 37.6484C26.088 35.927 23.8832 35.3408 22.1618 36.3392Z" fill="#C0B1E2"/>
</g>
</g>
<g opacity="0.8">
<g opacity="0.5" filter="url(#filter14_i_30_86)">
<path d="M11.469 -17.3882C9.99696 -26.5352 2.99192 -29.8851 -6.39577 -28.3744C-15.7836 -26.8635 -22.2006 -18.2236 -20.7285 -9.0766C-19.2565 0.0705757 -11.029 5.45936 -1.64113 3.94865C7.74656 2.43775 12.9412 -8.24102 11.469 -17.3882Z" fill="#E6D7FF"/>
</g>
</g>
<g opacity="0.5" filter="url(#filter15_i_30_86)">
<path d="M23.0536 -13.4368C19.7706 -8.60138 21.5362 -4.03233 26.4986 -0.663109C31.4613 2.70611 38.1456 1.51769 41.4284 -3.31758C44.7112 -8.15304 43.2672 -14.1868 38.3045 -17.5562C33.3421 -20.9254 26.3364 -18.2721 23.0536 -13.4368Z" fill="#C0B1E2"/>
</g>
<path d="M20.9494 66.4223C21.721 66.3684 22.3028 65.6991 22.2488 64.9275C22.1948 64.1559 21.5256 63.5742 20.754 63.6281C19.9824 63.6821 19.4007 64.3513 19.4546 65.1229C19.5086 65.8945 20.1778 66.4763 20.9494 66.4223Z" fill="#C0B1E2"/>
<path d="M10.2944 13.4878C11.066 13.4338 11.6477 12.7646 11.5938 11.993C11.5398 11.2214 10.8706 10.6397 10.099 10.6936C9.3274 10.7476 8.74564 11.4168 8.7996 12.1884C8.85355 12.96 9.52279 13.5418 10.2944 13.4878Z" fill="#C0B1E2"/>
<g filter="url(#filter16_f_30_86)">
<path d="M-11.6458 -32.584C-49.9807 26.3291 -6.31561 104.042 63.9404 101.94L86.4664 101.266L-111.896 114.289L-11.6458 -32.584Z" fill="url(#paint1_linear_30_86)" fill-opacity="0.4"/>
</g>
</g>
</g>
<defs>
<filter id="filter0_i_30_86" x="-3.15527" y="52.3258" width="12.011" height="16.5112" filterUnits="userSpaceOnUse" color-interpolation-filters="sRGB">
<feFlood flood-opacity="0" result="BackgroundImageFix"/>
<feBlend mode="normal" in="SourceGraphic" in2="BackgroundImageFix" result="shape"/>
<feColorMatrix in="SourceAlpha" type="matrix" values="0 0 0 0 0 0 0 0 0 0 0 0 0 0 0 0 0 0 127 0" result="hardAlpha"/>
<feOffset dy="3.66408"/>
<feGaussianBlur stdDeviation="3.66408"/>
<feComposite in2="hardAlpha" operator="arithmetic" k2="-1" k3="1"/>
<feColorMatrix type="matrix" values="0 0 0 0 0.356863 0 0 0 0 0.262745 0 0 0 0 0.623529 0 0 0 0.5 0"/>
<feBlend mode="normal" in2="shape" result="effect1_innerShadow_30_86"/>
</filter>
<filter id="filter1_i_30_86" x="-1.36011" y="54.2039" width="8.35205" height="12.0468" filterUnits="userSpaceOnUse" color-interpolation-filters="sRGB">
<feFlood flood-opacity="0" result="BackgroundImageFix"/>
<feBlend mode="normal" in="SourceGraphic" in2="BackgroundImageFix" result="shape"/>
<feColorMatrix in="SourceAlpha" type="matrix" values="0 0 0 0 0 0 0 0 0 0 0 0 0 0 0 0 0 0 127 0" result="hardAlpha"/>
<feOffset dy="3.66408"/>
<feGaussianBlur stdDeviation="3.66408"/>
<feComposite in2="hardAlpha" operator="arithmetic" k2="-1" k3="1"/>
<feColorMatrix type="matrix" values="0 0 0 0 0.356863 0 0 0 0 0.262745 0 0 0 0 0.623529 0 0 0 0.5 0"/>
<feBlend mode="normal" in2="shape" result="effect1_innerShadow_30_86"/>
</filter>
<filter id="filter2_i_30_86" x="7.42651" y="82.9309" width="12.3564" height="17.5142" filterUnits="userSpaceOnUse" color-interpolation-filters="sRGB">
<feFlood flood-opacity="0" result="BackgroundImageFix"/>
<feBlend mode="normal" in="SourceGraphic" in2="BackgroundImageFix" result="shape"/>
<feColorMatrix in="SourceAlpha" type="matrix" values="0 0 0 0 0 0 0 0 0 0 0 0 0 0 0 0 0 0 127 0" result="hardAlpha"/>
<feOffset dy="3.66408"/>
<feGaussianBlur stdDeviation="3.66408"/>
<feComposite in2="hardAlpha" operator="arithmetic" k2="-1" k3="1"/>
<feColorMatrix type="matrix" values="0 0 0 0 0.356863 0 0 0 0 0.262745 0 0 0 0 0.623529 0 0 0 0.5 0"/>
<feBlend mode="normal" in2="shape" result="effect1_innerShadow_30_86"/>
</filter>
<filter id="filter3_i_30_86" x="22.9319" y="10.3918" width="20.2671" height="25.5993" filterUnits="userSpaceOnUse" color-interpolation-filters="sRGB">
<feFlood flood-opacity="0" result="BackgroundImageFix"/>
<feBlend mode="normal" in="SourceGraphic" in2="BackgroundImageFix" result="shape"/>
<feColorMatrix in="SourceAlpha" type="matrix" values="0 0 0 0 0 0 0 0 0 0 0 0 0 0 0 0 0 0 127 0" result="hardAlpha"/>
<feOffset dy="3.66408"/>
<feGaussianBlur stdDeviation="3.66408"/>
<feComposite in2="hardAlpha" operator="arithmetic" k2="-1" k3="1"/>
<feColorMatrix type="matrix" values="0 0 0 0 0.356863 0 0 0 0 0.262745 0 0 0 0 0.623529 0 0 0 0.5 0"/>
<feBlend mode="normal" in2="shape" result="effect1_innerShadow_30_86"/>
</filter>
<filter id="filter4_i_30_86" x="26.2795" y="13.8468" width="13.7969" height="17.4634" filterUnits="userSpaceOnUse" color-interpolation-filters="sRGB">
<feFlood flood-opacity="0" result="BackgroundImageFix"/>
<feBlend mode="normal" in="SourceGraphic" in2="BackgroundImageFix" result="shape"/>
<feColorMatrix in="SourceAlpha" type="matrix" values="0 0 0 0 0 0 0 0 0 0 0 0 0 0 0 0 0 0 127 0" result="hardAlpha"/>
<feOffset dy="3.66408"/>
<feGaussianBlur stdDeviation="3.66408"/>
<feComposite in2="hardAlpha" operator="arithmetic" k2="-1" k3="1"/>
<feColorMatrix type="matrix" values="0 0 0 0 0.356863 0 0 0 0 0.262745 0 0 0 0 0.623529 0 0 0 0.5 0"/>
<feBlend mode="normal" in2="shape" result="effect1_innerShadow_30_86"/>
</filter>
<filter id="filter5_i_30_86" x="40.4722" y="80.8375" width="18.6572" height="25.4297" filterUnits="userSpaceOnUse" color-interpolation-filters="sRGB">
<feFlood flood-opacity="0" result="BackgroundImageFix"/>
<feBlend mode="normal" in="SourceGraphic" in2="BackgroundImageFix" result="shape"/>
<feColorMatrix in="SourceAlpha" type="matrix" values="0 0 0 0 0 0 0 0 0 0 0 0 0 0 0 0 0 0 127 0" result="hardAlpha"/>
<feOffset dy="3.66408"/>
<feGaussianBlur stdDeviation="3.66408"/>
<feComposite in2="hardAlpha" operator="arithmetic" k2="-1" k3="1"/>
<feColorMatrix type="matrix" values="0 0 0 0 0.356863 0 0 0 0 0.262745 0 0 0 0 0.623529 0 0 0 0.5 0"/>
<feBlend mode="normal" in2="shape" result="effect1_innerShadow_30_86"/>
</filter>
<filter id="filter6_i_30_86" x="43.3379" y="83.9729" width="12.3687" height="18.2836" filterUnits="userSpaceOnUse" color-interpolation-filters="sRGB">
<feFlood flood-opacity="0" result="BackgroundImageFix"/>
<feBlend mode="normal" in="SourceGraphic" in2="BackgroundImageFix" result="shape"/>
<feColorMatrix in="SourceAlpha" type="matrix" values="0 0 0 0 0 0 0 0 0 0 0 0 0 0 0 0 0 0 127 0" result="hardAlpha"/>
<feOffset dy="3.66408"/>
<feGaussianBlur stdDeviation="3.66408"/>
<feComposite in2="hardAlpha" operator="arithmetic" k2="-1" k3="1"/>
<feColorMatrix type="matrix" values="0 0 0 0 0.356863 0 0 0 0 0.262745 0 0 0 0 0.623529 0 0 0 0.5 0"/>
<feBlend mode="normal" in2="shape" result="effect1_innerShadow_30_86"/>
</filter>
<filter id="filter7_i_30_86" x="55.0461" y="38.3459" width="10.793" height="15.706" filterUnits="userSpaceOnUse" color-interpolation-filters="sRGB">
<feFlood flood-opacity="0" result="BackgroundImageFix"/>
<feBlend mode="normal" in="SourceGraphic" in2="BackgroundImageFix" result="shape"/>
<feColorMatrix in="SourceAlpha" type="matrix" values="0 0 0 0 0 0 0 0 0 0 0 0 0 0 0 0 0 0 127 0" result="hardAlpha"/>
<feOffset dy="3.66408"/>
<feGaussianBlur stdDeviation="3.66408"/>
<feComposite in2="hardAlpha" operator="arithmetic" k2="-1" k3="1"/>
<feColorMatrix type="matrix" values="0 0 0 0 0.356863 0 0 0 0 0.262745 0 0 0 0 0.623529 0 0 0 0.5 0"/>
<feBlend mode="normal" in2="shape" result="effect1_innerShadow_30_86"/>
</filter>
<filter id="filter8_i_30_86" x="59.6182" y="20.5839" width="10.7932" height="15.7058" filterUnits="userSpaceOnUse" color-interpolation-filters="sRGB">
<feFlood flood-opacity="0" result="BackgroundImageFix"/>
<feBlend mode="normal" in="SourceGraphic" in2="BackgroundImageFix" result="shape"/>
<feColorMatrix in="SourceAlpha" type="matrix" values="0 0 0 0 0 0 0 0 0 0 0 0 0 0 0 0 0 0 127 0" result="hardAlpha"/>
<feOffset dy="3.66408"/>
<feGaussianBlur stdDeviation="3.66408"/>
<feComposite in2="hardAlpha" operator="arithmetic" k2="-1" k3="1"/>
<feColorMatrix type="matrix" values="0 0 0 0 0.356863 0 0 0 0 0.262745 0 0 0 0 0.623529 0 0 0 0.5 0"/>
<feBlend mode="normal" in2="shape" result="effect1_innerShadow_30_86"/>
</filter>
<filter id="filter9_i_30_86" x="60.5803" y="74.504" width="3.89453" height="7.52761" filterUnits="userSpaceOnUse" color-interpolation-filters="sRGB">
<feFlood flood-opacity="0" result="BackgroundImageFix"/>
<feBlend mode="normal" in="SourceGraphic" in2="BackgroundImageFix" result="shape"/>
<feColorMatrix in="SourceAlpha" type="matrix" values="0 0 0 0 0 0 0 0 0 0 0 0 0 0 0 0 0 0 127 0" result="hardAlpha"/>
<feOffset dy="3.66408"/>
<feGaussianBlur stdDeviation="3.66408"/>
<feComposite in2="hardAlpha" operator="arithmetic" k2="-1" k3="1"/>
<feColorMatrix type="matrix" values="0 0 0 0 0.356863 0 0 0 0 0.262745 0 0 0 0 0.623529 0 0 0 0.5 0"/>
<feBlend mode="normal" in2="shape" result="effect1_innerShadow_30_86"/>
</filter>
<filter id="filter10_i_30_86" x="22.9185" y="46.0479" width="31.7883" height="33.625" filterUnits="userSpaceOnUse" color-interpolation-filters="sRGB">
<feFlood flood-opacity="0" result="BackgroundImageFix"/>
<feBlend mode="normal" in="SourceGraphic" in2="BackgroundImageFix" result="shape"/>
<feColorMatrix in="SourceAlpha" type="matrix" values="0 0 0 0 0 0 0 0 0 0 0 0 0 0 0 0 0 0 127 0" result="hardAlpha"/>
<feOffset dy="3.66408"/>
<feGaussianBlur stdDeviation="3.66408"/>
<feComposite in2="hardAlpha" operator="arithmetic" k2="-1" k3="1"/>
<feColorMatrix type="matrix" values="0 0 0 0 0.356863 0 0 0 0 0.262745 0 0 0 0 0.623529 0 0 0 0.5 0"/>
<feBlend mode="normal" in2="shape" result="effect1_innerShadow_30_86"/>
</filter>
<filter id="filter11_i_30_86" x="28.468" y="50.4769" width="21.22" height="24.3214" filterUnits="userSpaceOnUse" color-interpolation-filters="sRGB">
<feFlood flood-opacity="0" result="BackgroundImageFix"/>
<feBlend mode="normal" in="SourceGraphic" in2="BackgroundImageFix" result="shape"/>
<feColorMatrix in="SourceAlpha" type="matrix" values="0 0 0 0 0 0 0 0 0 0 0 0 0 0 0 0 0 0 127 0" result="hardAlpha"/>
<feOffset dy="3.66408"/>
<feGaussianBlur stdDeviation="3.66408"/>
<feComposite in2="hardAlpha" operator="arithmetic" k2="-1" k3="1"/>
<feColorMatrix type="matrix" values="0 0 0 0 0.356863 0 0 0 0 0.262745 0 0 0 0 0.623529 0 0 0 0.5 0"/>
<feBlend mode="normal" in2="shape" result="effect1_innerShadow_30_86"/>
</filter>
<filter id="filter12_i_30_86" x="30.6213" y="55.7971" width="11.8286" height="15.179" filterUnits="userSpaceOnUse" color-interpolation-filters="sRGB">
<feFlood flood-opacity="0" result="BackgroundImageFix"/>
<feBlend mode="normal" in="SourceGraphic" in2="BackgroundImageFix" result="shape"/>
<feColorMatrix in="SourceAlpha" type="matrix" values="0 0 0 0 0 0 0 0 0 0 0 0 0 0 0 0 0 0 127 0" result="hardAlpha"/>
<feOffset dy="3.66408"/>
<feGaussianBlur stdDeviation="3.66408"/>
<feComposite in2="hardAlpha" operator="arithmetic" k2="-1" k3="1"/>
<feColorMatrix type="matrix" values="0 0 0 0 0.356863 0 0 0 0 0.262745 0 0 0 0 0.623529 0 0 0 0.5 0"/>
<feBlend mode="normal" in2="shape" result="effect1_innerShadow_30_86"/>
</filter>
<filter id="filter13_i_30_86" x="19.9548" y="35.8523" width="7.72339" height="11.1825" filterUnits="userSpaceOnUse" color-interpolation-filters="sRGB">
<feFlood flood-opacity="0" result="BackgroundImageFix"/>
<feBlend mode="normal" in="SourceGraphic" in2="BackgroundImageFix" result="shape"/>
<feColorMatrix in="SourceAlpha" type="matrix" values="0 0 0 0 0 0 0 0 0 0 0 0 0 0 0 0 0 0 127 0" result="hardAlpha"/>
<feOffset dy="3.66408"/>
<feGaussianBlur stdDeviation="3.66408"/>
<feComposite in2="hardAlpha" operator="arithmetic" k2="-1" k3="1"/>
<feColorMatrix type="matrix" values="0 0 0 0 0.356863 0 0 0 0 0.262745 0 0 0 0 0.623529 0 0 0 0.5 0"/>
<feBlend mode="normal" in2="shape" result="effect1_innerShadow_30_86"/>
</filter>
<filter id="filter14_i_30_86" x="-20.9387" y="-28.7231" width="32.655" height="36.5882" filterUnits="userSpaceOnUse" color-interpolation-filters="sRGB">
<feFlood flood-opacity="0" result="BackgroundImageFix"/>
<feBlend mode="normal" in="SourceGraphic" in2="BackgroundImageFix" result="shape"/>
<feColorMatrix in="SourceAlpha" type="matrix" values="0 0 0 0 0 0 0 0 0 0 0 0 0 0 0 0 0 0 127 0" result="hardAlpha"/>
<feOffset dy="3.66408"/>
<feGaussianBlur stdDeviation="3.66408"/>
<feComposite in2="hardAlpha" operator="arithmetic" k2="-1" k3="1"/>
<feColorMatrix type="matrix" values="0 0 0 0 0.356863 0 0 0 0 0.262745 0 0 0 0 0.623529 0 0 0 0.5 0"/>
<feBlend mode="normal" in2="shape" result="effect1_innerShadow_30_86"/>
</filter>
<filter id="filter15_i_30_86" x="21.3823" y="-19.0677" width="21.8103" height="23.9854" filterUnits="userSpaceOnUse" color-interpolation-filters="sRGB">
<feFlood flood-opacity="0" result="BackgroundImageFix"/>
<feBlend mode="normal" in="SourceGraphic" in2="BackgroundImageFix" result="shape"/>
<feColorMatrix in="SourceAlpha" type="matrix" values="0 0 0 0 0 0 0 0 0 0 0 0 0 0 0 0 0 0 127 0" result="hardAlpha"/>
<feOffset dy="3.66408"/>
<feGaussianBlur stdDeviation="3.66408"/>
<feComposite in2="hardAlpha" operator="arithmetic" k2="-1" k3="1"/>
<feColorMatrix type="matrix" values="0 0 0 0 0.356863 0 0 0 0 0.262745 0 0 0 0 0.623529 0 0 0 0.5 0"/>
<feBlend mode="normal" in2="shape" result="effect1_innerShadow_30_86"/>
</filter>
<filter id="filter16_f_30_86" x="-131.896" y="-52.584" width="238.362" height="186.873" filterUnits="userSpaceOnUse" color-interpolation-filters="sRGB">
<feFlood flood-opacity="0" result="BackgroundImageFix"/>
<feBlend mode="normal" in="SourceGraphic" in2="BackgroundImageFix" result="shape"/>
<feGaussianBlur stdDeviation="10" result="effect1_foregroundBlur_30_86"/>
</filter>
<linearGradient id="paint0_linear_30_86" x1="46.8309" y1="2.03912" x2="-75.9061" y2="135.627" gradientUnits="userSpaceOnUse">
<stop stop-color="#E2D8FE"/>
<stop offset="1" stop-color="#836EBE"/>
</linearGradient>
<linearGradient id="paint1_linear_30_86" x1="-40.7869" y1="65.7776" x2="12.511" y2="47.078" gradientUnits="userSpaceOnUse">
<stop stop-color="#705EA9"/>
<stop offset="1" stop-color="#C4B7EA"/>
</linearGradient>
<clipPath id="clip0_30_86">
<rect width="66" height="88" fill="white"/>
</clipPath>
</defs>
</svg>
