<svg width="70" height="88" viewBox="0 0 70 88" fill="none" xmlns="http://www.w3.org/2000/svg">
<g clip-path="url(#clip0_30_911)">
<mask id="mask0_30_911" style="mask-type:luminance" maskUnits="userSpaceOnUse" x="-47" y="-14" width="116" height="116">
<path d="M69 44C69 11.9675 43.0325 -14 11 -14C-21.0325 -14 -47 11.9675 -47 44C-47 76.0325 -21.0325 102 11 102C43.0325 102 69 76.0325 69 44Z" fill="white"/>
</mask>
<g mask="url(#mask0_30_911)">
<path d="M69 44C69 11.9675 43.0325 -14 11 -14C-21.0325 -14 -47 11.9675 -47 44C-47 76.0325 -21.0325 102 11 102C43.0325 102 69 76.0325 69 44Z" fill="url(#paint0_linear_30_911)"/>
<g filter="url(#filter0_f_30_911)">
<path opacity="0.8" d="M-95.8438 59.2733L-56.5507 46.7283C-45.1607 43.0917 -32.9174 43.1141 -21.5409 46.7925L-0.324335 53.652C10.9859 57.3085 23.1539 57.3526 34.4902 53.778L57.2639 46.5969C68.5319 43.0438 80.6236 43.0654 91.879 46.6589L113.875 53.6814C125.264 57.3178 137.508 57.2953 148.883 53.6172L170.593 46.5984C182.038 42.8982 194.357 42.8982 205.803 46.5984L227.402 53.5816C238.847 57.2818 251.166 57.2818 262.612 53.5816L284.209 46.5984C295.654 42.8982 307.974 42.8982 319.419 46.5984L358.623 59.2733" stroke="#00D5F5" stroke-width="32"/>
<path opacity="0.5" d="M-118.124 78.1775L-78.8305 65.6325C-67.4404 61.9961 -55.1972 62.0185 -43.8207 65.6967L-22.6041 72.5561C-11.2939 76.2129 0.87409 76.2569 12.2104 72.6822L34.9841 65.501C46.2521 61.9479 58.3438 61.9696 69.5991 65.5631L91.595 72.5855C102.984 76.2219 115.228 76.1995 126.604 72.5213L148.313 65.5026C159.759 61.8024 172.078 61.8024 183.523 65.5026L205.122 72.4858C216.566 76.186 228.887 76.186 240.33 72.4858L261.929 65.5026C273.375 61.8024 285.694 61.8024 297.139 65.5026L336.343 78.1775" stroke="#00D5F5" stroke-width="24"/>
<path d="M-103.486 66.2334L-64.1929 53.6884C-52.8029 50.0518 -40.5599 50.0742 -29.1832 53.7526L-7.96658 60.6121C3.34342 64.2686 15.5114 64.3126 26.8477 60.7381L49.6216 53.5569C60.8897 50.0039 72.9811 50.0255 84.2364 53.619L106.232 60.6414C117.621 64.2778 129.865 64.2554 141.241 60.5773L162.95 53.5585C174.396 49.8583 186.715 49.8583 198.16 53.5585L219.759 60.5417C231.205 64.2419 243.524 64.2419 254.969 60.5417L276.567 53.5585C288.012 49.8583 300.331 49.8583 311.776 53.5585L350.981 66.2334" stroke="#00D5F5" stroke-width="16"/>
<path d="M-110.619 70.1L-71.3257 57.555C-59.9357 53.9184 -47.6926 53.9408 -36.3159 57.6192L-15.0995 64.4786C-3.78935 68.1351 8.37867 68.1792 19.715 64.6047L42.4889 57.4235C53.7569 53.8704 65.8484 53.8921 77.1036 57.4856L99.0982 64.508C110.489 68.1444 122.733 68.122 134.109 64.4438L155.818 57.4251C167.264 53.7249 179.583 53.7249 191.028 57.4251L212.625 64.4083C224.071 68.1085 236.39 68.1085 247.835 64.4083L269.435 57.4251C280.88 53.7249 293.199 53.7249 304.644 57.4251L343.849 70.1" stroke="#00D5F5" stroke-width="8"/>
<path d="M-108.449 71.9287L-69.1565 59.3837C-57.7662 55.7471 -45.5232 55.7695 -34.1465 59.4479L-12.9301 66.3074C-1.6199 69.9639 10.5481 70.008 21.8844 66.4334L44.6581 59.2522C55.9261 55.6992 68.0178 55.7208 79.2731 59.3143L101.269 66.3367C112.658 69.9732 124.902 69.9507 136.278 66.2726L157.987 59.2538C169.433 55.5536 181.752 55.5536 193.197 59.2538L214.796 66.237C226.24 69.9372 238.561 69.9372 250.004 66.237L271.604 59.2538C283.049 55.5536 295.368 55.5536 306.813 59.2538L346.018 71.9287" stroke="#00D5F5" stroke-width="4"/>
<path d="M-113.487 74.1249L-74.1935 61.5799C-62.8034 57.9433 -50.5604 57.9657 -39.1837 61.6439L-17.9671 68.5035C-6.65711 72.16 5.51109 72.2041 16.8474 68.6296L39.6211 61.4484C50.8891 57.8953 62.9808 57.917 74.2359 61.5103L96.231 68.5327C107.622 72.1693 119.864 72.1469 131.242 68.4687L152.951 61.45C164.395 57.7498 176.716 57.7498 188.159 61.45L209.758 68.4332C221.204 72.1334 233.523 72.1334 244.968 68.4332L266.567 61.45C278.013 57.7498 290.332 57.7498 301.777 61.45L340.979 74.1249" stroke="#00D5F5" stroke-width="4"/>
<path d="M-103.354 93.0395L-61.7521 80.1685C-50.6672 76.739 -38.8017 76.7602 -27.7291 80.2292L-3.7382 87.7456C7.26943 91.1943 19.0624 91.2359 30.094 87.8649L55.688 80.0444C66.6531 76.6939 78.3718 76.7142 89.3251 80.103L114.118 87.7735C125.204 91.203 137.069 91.1819 148.141 87.7128L172.654 80.0332C183.792 76.5433 195.732 76.5433 206.872 80.0332L231.276 87.6793C242.416 91.1692 254.356 91.1692 265.494 87.6793L289.901 80.0332C301.039 76.5433 312.979 76.5433 324.119 80.0332L365.633 93.0395" stroke="#00D5F5" stroke-width="2"/>
<path d="M-111.596 95.8699L-69.9938 82.9987C-58.9088 79.5693 -47.0434 79.5904 -35.9708 83.0596L-11.9798 90.5758C-0.972211 94.0245 10.8207 94.0661 21.8523 90.6953L47.4464 82.8746C58.4115 79.5241 70.1302 79.5446 81.0835 82.9334L105.876 90.6039C116.962 94.0334 128.827 94.0121 139.899 90.5431L164.412 82.8634C175.55 79.3735 187.49 79.3735 198.63 82.8634L223.034 90.5097C234.174 93.9996 246.115 93.9996 257.252 90.5097L281.659 82.8634C292.797 79.3735 304.737 79.3735 315.877 82.8634L357.391 95.8699" stroke="#00D5F5" stroke-width="2"/>
<path d="M-102.833 98.5616L-61.231 85.6905C-50.1463 82.2611 -38.2806 82.2822 -27.208 85.7512L-3.21711 93.2676C7.79052 96.7163 19.5833 96.7578 30.6151 93.3871L56.2091 85.5663C67.1742 82.2159 78.8929 82.2364 89.8452 85.6251L114.638 93.2956C125.724 96.7252 137.589 96.7039 148.661 93.2349L173.174 85.5551C184.314 82.0653 196.254 82.0653 207.392 85.5551L231.798 93.2013C242.936 96.6911 254.877 96.6911 266.016 93.2013L290.421 85.5551C301.561 82.0653 313.501 82.0653 324.639 85.5551L366.153 98.5616" stroke="#00D5F5" stroke-width="8"/>
<path opacity="0.8" d="M-106.7 100.495L-65.0978 87.6238C-54.0129 84.1945 -42.1474 84.2155 -31.0749 87.6845L-7.08373 95.2009C3.9237 98.6496 15.7166 98.6912 26.7482 95.3204L52.3423 87.4997C63.3074 84.1492 75.0261 84.1697 85.9794 87.5585L110.772 95.229C121.857 98.6585 133.722 98.6373 144.794 95.1683L169.307 87.4885C180.447 83.9986 192.387 83.9986 203.525 87.4885L227.932 95.1346C239.07 98.6245 251.01 98.6245 262.15 95.1346L286.554 87.4885C297.694 83.9986 309.634 83.9986 320.772 87.4885L362.287 100.495" stroke="#00D5F5" stroke-width="16"/>
<path d="M-107.097 106.307L-65.4949 93.4356C-54.4101 90.0061 -42.5445 90.0273 -31.4719 93.4963L-7.48099 101.013C3.52664 104.461 15.3194 104.503 26.3512 101.132L51.9452 93.3115C62.9101 89.961 74.6288 89.9813 85.5821 93.3701L110.375 101.041C121.459 104.47 133.326 104.449 144.398 100.98L168.911 93.3003C180.049 89.8104 191.989 89.8104 203.129 93.3003L227.533 100.946C238.673 104.436 250.614 104.436 261.752 100.946L286.158 93.3003C297.296 89.8104 309.236 89.8104 320.376 93.3003L361.89 106.307" stroke="#00D5F5" stroke-width="4"/>
<path d="M-102.467 54.8267L-63.174 42.2817C-51.7838 38.6451 -39.5407 38.6675 -28.164 42.3458L-6.94765 49.2053C4.36254 52.8618 16.5306 52.9059 27.8669 49.3314L50.6406 42.1502C61.9086 38.5971 74.0003 38.6188 85.2555 42.2123L107.251 49.2347C118.64 52.8711 130.884 52.8487 142.26 49.1705L163.969 42.1517C175.415 38.4515 187.734 38.4515 199.179 42.1517L220.778 49.1349C232.224 52.8351 244.543 52.8351 255.988 49.1349L277.587 42.1517C289.031 38.4515 301.352 38.4515 312.795 42.1517L351.999 54.8267" stroke="#00D5F5" stroke-width="8"/>
<path d="M-107.158 52.3741L-67.8646 39.8291C-56.4745 36.1927 -44.2315 36.2151 -32.8548 39.8933L-11.6382 46.7527C-0.328204 50.4094 11.8398 50.4535 23.1761 46.8788L45.95 39.6976C57.218 36.1445 69.3095 36.1662 80.5648 39.7597L102.561 46.7821C113.95 50.4185 126.194 50.3963 137.57 46.7179L159.279 39.6993C170.724 35.9991 183.044 35.9991 194.489 39.6993L216.088 46.6824C227.532 50.3826 239.853 50.3826 251.296 46.6824L272.895 39.6993C284.341 35.9991 296.66 35.9991 308.105 39.6993L347.309 52.3741" stroke="#00D5F5" stroke-width="4"/>
<path opacity="0.5" d="M-123.356 13.0668L-81.7537 0.195596C-70.6688 -3.23375 -58.8033 -3.21268 -47.7307 0.256496L-23.7398 7.77272C-12.7322 11.2214 -0.939429 11.2632 10.0924 7.8922L35.6864 0.0714761C46.6515 -3.27899 58.3702 -3.25849 69.3235 0.130253L94.116 7.80075C105.202 11.2303 117.067 11.209 128.139 7.74004L152.652 0.060266C163.791 -3.42959 175.73 -3.42959 186.87 0.060266L211.276 7.7066C222.414 11.1965 234.354 11.1965 245.494 7.7066L269.899 0.060266C281.038 -3.42959 292.977 -3.42959 304.117 0.060266L345.631 13.0668" stroke="#00D5F5" stroke-width="8"/>
<path d="M-115.836 9.96435L-74.2334 -2.90682C-63.1486 -6.33636 -51.283 -6.3151 -40.2104 -2.84612L-16.2195 4.6703C-5.21185 8.11898 6.58091 8.16054 17.6125 4.78978L43.2067 -3.03094C54.1716 -6.38141 65.8904 -6.36091 76.8437 -2.97216L101.637 4.69833C112.722 8.12768 124.587 8.10661 135.66 4.63763L160.172 -3.04215C171.31 -6.53201 183.25 -6.53201 194.39 -3.04215L218.795 4.60399C229.935 8.09385 241.875 8.09385 253.013 4.60399L277.419 -3.04215C288.557 -6.53201 300.497 -6.53201 311.637 -3.04215L353.152 9.96435" stroke="#00D5F5" stroke-width="4"/>
<path opacity="0.8" d="M-124.42 18.8103L-82.8175 5.93913C-71.7325 2.50978 -59.8671 2.53085 -48.7945 6.00003L-24.8036 13.5162C-13.7959 16.9649 -2.00299 17.0067 9.02861 13.6357L34.6227 5.81501C45.5877 2.46454 57.3065 2.48504 68.2598 5.87378L93.0526 13.5443C104.138 16.9738 116.003 16.9526 127.075 13.4836L151.588 5.8038C162.726 2.31394 174.666 2.31394 185.806 5.8038L210.211 13.4501C221.351 16.94 233.291 16.94 244.429 13.4501L268.835 5.8038C279.973 2.31394 291.913 2.31394 303.053 5.8038L344.568 18.8103" stroke="#00D5F5" stroke-width="16"/>
<path opacity="0.7" d="M-123.635 28.4604L-82.032 15.5893C-70.9472 12.1599 -59.0816 12.181 -48.009 15.6502L-24.0181 23.1664C-13.0105 26.6151 -1.2177 26.6568 9.81409 23.2859L35.4081 15.4654C46.373 12.1147 58.0917 12.1352 69.045 15.5239L93.8375 23.1944C104.923 26.624 116.788 26.6027 127.86 23.1337L152.373 15.4539C163.513 11.9641 175.453 11.9641 186.591 15.4539L210.998 23.1003C222.135 26.5901 234.076 26.5901 245.216 23.1003L269.62 15.4539C280.76 11.9641 292.698 11.9641 303.838 15.4539L345.353 28.4604" stroke="#00D5F5" stroke-width="8"/>
<path opacity="0.7" d="M-133.824 24.5939L-92.2219 11.7227C-81.137 8.29335 -69.2714 8.31443 -58.1988 11.7836L-34.2079 19.2998C-23.2002 22.7485 -11.4075 22.7903 -0.375889 19.4193L25.2184 11.5988C36.1833 8.24812 47.902 8.26861 58.8553 11.6574L83.6483 19.3279C94.7327 22.7574 106.6 22.7361 117.672 19.2671L142.184 11.5874C153.322 8.09751 165.263 8.09751 176.403 11.5874L200.807 19.2337C211.947 22.7236 223.885 22.7236 235.025 19.2337L259.43 11.5874C270.569 8.09751 282.51 8.09751 293.648 11.5874L335.162 24.5939" stroke="#00D5F5" stroke-width="8"/>
<path d="M-130.96 16.0554L-89.3581 3.18425C-78.2731 -0.245098 -66.4076 -0.224024 -55.335 3.24515L-31.3441 10.7614C-20.3365 14.21 -8.5437 14.2516 2.48809 10.8808L28.0821 3.06013C39.0472 -0.290337 50.7659 -0.269847 61.7192 3.1189L86.5121 10.7894C97.5978 14.2189 109.463 14.1977 120.535 10.7287L145.048 3.04891C156.186 -0.440947 168.126 -0.440947 179.266 3.04891L203.67 10.6953C214.81 14.1851 226.75 14.1851 237.888 10.6953L262.295 3.04891C273.433 -0.440947 285.373 -0.440947 296.513 3.04891L338.027 16.0554" stroke="#00D5F5" stroke-width="4"/>
<path opacity="0.7" d="M19.3166 42.8794C19.1006 45.2946 10.623 47.387 2.5049 46.8988C-5.61317 46.4105 -12.7124 45.2253 -12.4964 42.8102C-12.2807 40.3951 -4.83153 37.6645 3.28654 38.1526C11.4046 38.641 19.5323 40.4641 19.3166 42.8794Z" fill="#B3F0FA"/>
<path opacity="0.6" d="M15.8305 42.5454C15.8123 42.7499 15.7014 42.9641 15.4945 43.1839C15.2874 43.4036 14.9901 43.623 14.6121 43.8365C13.8564 44.2633 12.794 44.6583 11.5354 44.9845C9.01936 45.6364 5.73792 46.0086 2.60127 45.8199C-0.544645 45.6306 -3.6372 45.3271 -5.92066 44.8381C-7.06326 44.5934 -7.99648 44.3035 -8.63119 43.9621C-9.27248 43.6174 -9.5737 43.2408 -9.53735 42.834C-9.51879 42.6266 -9.41362 42.4062 -9.21932 42.1775C-9.02521 41.9487 -8.74661 41.7169 -8.39223 41.4886C-7.68347 41.0318 -6.68414 40.5964 -5.48895 40.2296C-3.09935 39.4967 0.0550795 39.0429 3.19017 39.2316C6.33435 39.4207 9.55219 39.806 11.9609 40.3769C13.1662 40.6625 14.1628 40.9931 14.8455 41.3657C15.1869 41.5518 15.4446 41.7457 15.6111 41.9451C15.7766 42.1434 15.8487 42.3426 15.8305 42.5454Z" fill="#00D5F5" stroke="#0B6573"/>
<path opacity="0.5" d="M9.11766 42.7684C9.06101 43.017 8.81432 43.2882 8.39827 43.5492C7.98743 43.807 7.43102 44.0418 6.7936 44.2253C5.51799 44.5923 3.93555 44.7479 2.57603 44.4794C2.49793 44.4641 2.41943 44.4486 2.34094 44.4332C1.03304 44.1754 -0.308304 43.9112 -1.31383 43.5798C-1.84743 43.404 -2.27721 43.2121 -2.55581 42.9982C-2.83382 42.785 -2.94266 42.5661 -2.88872 42.3291C-2.8315 42.078 -2.59196 41.7982 -2.19215 41.5256C-1.79678 41.2559 -1.26125 41.0048 -0.645094 40.8053C0.587986 40.4058 2.1275 40.2179 3.48567 40.4861C4.86491 40.7583 6.35048 41.0672 7.4577 41.4512C8.01218 41.6434 8.46362 41.8518 8.75864 42.0785C9.05464 42.3061 9.17121 42.5333 9.11766 42.7684Z" fill="#0B6573" stroke="#0B6573"/>
<path opacity="0.5" d="M10.7379 5.48732C10.733 5.40322 10.6483 5.24759 10.3322 5.05696C10.0328 4.87639 9.58907 4.70432 9.02492 4.56164C7.89992 4.27705 6.34571 4.12181 4.63722 4.21963C2.9297 4.31727 1.20555 4.67667 -0.0803057 5.11863C-0.724492 5.34019 -1.24707 5.57838 -1.5999 5.80767C-1.777 5.9227 -1.90034 6.02846 -1.97555 6.1199C-2.05211 6.2129 -2.05965 6.26665 -2.05849 6.28695C-2.05752 6.30338 -2.04786 6.34745 -1.96782 6.41725C-1.8872 6.48743 -1.75689 6.5638 -1.56974 6.63997C-1.19661 6.79174 -0.654113 6.9205 0.0105672 7.01794C1.33529 7.21224 3.0894 7.2741 4.80639 7.17589C6.52203 7.07768 8.05594 6.81107 9.1475 6.46423C9.69522 6.29023 10.1171 6.10038 10.3933 5.91091C10.6847 5.7112 10.7421 5.56368 10.7379 5.48732Z" fill="#0B6573" stroke="#0B6573" stroke-width="2.68397"/>
<path opacity="0.4" d="M24.9994 1.39153C24.8908 1.07021 24.5576 0.759519 24.0675 0.579912C23.5844 0.403012 22.9845 0.368986 22.4008 0.566572C21.8179 0.763772 21.2899 1.19704 20.9423 1.68211C20.585 2.18052 20.4663 2.66173 20.5678 2.96198C20.6628 3.24192 20.9918 3.46541 21.5432 3.55299C22.0785 3.63806 22.7426 3.57697 23.3501 3.37145C23.9517 3.16768 24.4312 2.82722 24.7237 2.45448C25.018 2.0796 25.1044 1.70163 24.9994 1.39153Z" fill="#0B6573" stroke="#0B6573" stroke-width="2.68397"/>
</g>
<g filter="url(#filter1_f_30_911)">
<path d="M4.07664 -35.3937C-43.9062 15.9676 -14.3991 100.082 55.1545 110.212L77.4551 113.46L-120.154 91.8396L4.07664 -35.3937Z" fill="url(#paint1_linear_30_911)" fill-opacity="0.4"/>
</g>
</g>
</g>
<defs>
<filter id="filter0_f_30_911" x="-151.007" y="-37.0613" width="534.356" height="161.278" filterUnits="userSpaceOnUse" color-interpolation-filters="sRGB">
<feFlood flood-opacity="0" result="BackgroundImageFix"/>
<feBlend mode="normal" in="SourceGraphic" in2="BackgroundImageFix" result="shape"/>
<feGaussianBlur stdDeviation="8" result="effect1_foregroundBlur_30_911"/>
</filter>
<filter id="filter1_f_30_911" x="-160.154" y="-75.3937" width="277.609" height="228.854" filterUnits="userSpaceOnUse" color-interpolation-filters="sRGB">
<feFlood flood-opacity="0" result="BackgroundImageFix"/>
<feBlend mode="normal" in="SourceGraphic" in2="BackgroundImageFix" result="shape"/>
<feGaussianBlur stdDeviation="20" result="effect1_foregroundBlur_30_911"/>
</filter>
<linearGradient id="paint0_linear_30_911" x1="66.5833" y1="27.3733" x2="-47" y2="46.0302" gradientUnits="userSpaceOnUse">
<stop stop-color="#00DDFE"/>
<stop offset="1" stop-color="#5F36D7"/>
</linearGradient>
<linearGradient id="paint1_linear_30_911" x1="-58.8897" y1="68.36" x2="-2.47949" y2="55.8695" gradientUnits="userSpaceOnUse">
<stop stop-color="#0D0525"/>
<stop offset="1" stop-color="#2384CC"/>
</linearGradient>
<clipPath id="clip0_30_911">
<rect width="70" height="88" fill="white"/>
</clipPath>
</defs>
</svg>
