<svg width="75" height="88" viewBox="0 0 75 88" fill="none" xmlns="http://www.w3.org/2000/svg">
<g clip-path="url(#clip0_30_845)">
<g filter="url(#filter0_d_30_845)">
<mask id="mask0_30_845" style="mask-type:luminance" maskUnits="userSpaceOnUse" x="-43" y="8" width="73" height="71">
<path d="M27.676 33.8844C22.2274 15.1705 2.40673 4.35004 -16.5948 9.71616C-35.5962 15.0823 -46.583 34.603 -41.1345 53.3169C-35.6859 72.0307 -15.8652 82.8512 3.13634 77.4851C22.1378 72.119 33.1246 52.5983 27.676 33.8844Z" fill="white"/>
</mask>
<g mask="url(#mask0_30_845)">
<path d="M27.676 33.8844C22.2274 15.1705 2.40673 4.35004 -16.5948 9.71616C-35.5962 15.0823 -46.583 34.603 -41.1345 53.3169C-35.6859 72.0307 -15.8652 82.8512 3.13634 77.4851C22.1378 72.119 33.1246 52.5983 27.676 33.8844Z" fill="url(#paint0_linear_30_845)"/>
<g filter="url(#filter1_f_30_845)">
<path opacity="0.7" d="M-83.3484 37.9188L-78.0159 35.4302C-69.2314 31.3307 -59.911 28.4533 -50.3221 26.8807L-46.006 26.1729C-39.2807 25.0699 -32.7437 23.0518 -26.5825 20.1765C-20.4213 17.3012 -13.8843 15.2831 -7.15905 14.1801L1.47321 12.7645C8.19848 11.6615 14.7355 9.64344 20.8967 6.7681C27.0579 3.89276 33.5949 1.8747 40.3202 0.771723L53.2684 -1.35174C57.1304 -1.98506 60.8837 -3.14397 64.4223 -4.79496C73.2068 -8.89453 82.527 -11.7719 92.1156 -13.3445L96.4321 -14.0523C103.157 -15.1553 109.694 -17.1733 115.855 -20.0487C122.016 -22.924 128.553 -24.942 135.278 -26.045L143.911 -27.4607C150.636 -28.5636 157.173 -30.5817 163.334 -33.457C169.496 -36.3323 176.033 -38.3504 182.758 -39.4533L201.527 -42.5315" stroke="#374F1A" stroke-width="8"/>
<path opacity="0.7" d="M-82.033 42.4367L-76.7005 39.9482C-67.9159 35.8486 -58.5956 32.9712 -49.0068 31.3986L-44.6906 30.6908C-37.9654 29.5878 -31.4282 27.5698 -25.2672 24.6944C-19.106 21.8192 -12.569 19.8011 -5.8437 18.6982L2.78868 17.2824C9.51396 16.1794 16.051 14.1614 22.2121 11.2861C28.3733 8.41081 34.9108 6.39274 41.6361 5.28977L54.5844 3.16619C58.4463 2.53287 62.1997 1.37408 65.7371 -0.277027C74.5216 -4.3766 83.8418 -7.25394 93.4316 -8.82644L97.7468 -9.53438C104.472 -10.6372 111.009 -12.6554 117.171 -15.5307C123.332 -18.406 129.869 -20.424 136.594 -21.527L145.226 -22.9427C151.951 -24.0457 158.489 -26.0637 164.65 -28.939C170.811 -31.8143 177.348 -33.8324 184.073 -34.9354L202.842 -38.0135" stroke="#5D7D34" stroke-width="16"/>
<path opacity="0.7" d="M-77.1001 59.3789L-71.7676 56.8903C-62.9831 52.7907 -53.6627 49.9134 -44.0738 48.3409L-39.7577 47.6329C-33.0325 46.53 -26.4954 44.5119 -20.3342 41.6367C-14.1731 38.7613 -7.63605 36.7433 -0.910783 35.6403L7.72147 34.2245C14.4467 33.1217 20.9838 31.1035 27.1449 28.2283C33.3063 25.3529 39.843 23.3349 46.5683 22.2319L59.5166 20.1083C63.3785 19.475 67.1318 18.3162 70.6705 16.6652C79.4549 12.5656 88.7751 9.68829 98.3637 8.11567L102.68 7.40785C109.405 6.30488 115.942 4.28682 122.103 1.41147C128.264 -1.46387 134.802 -3.48193 141.527 -4.5849L150.159 -6.00054C156.884 -7.10352 163.421 -9.12158 169.582 -11.9969C175.744 -14.8723 182.281 -16.8903 189.006 -17.9932L207.776 -21.0714" stroke="#D7EFB8" stroke-width="16"/>
<path opacity="0.7" d="M-78.4155 54.8609L-73.0831 52.3724C-64.2985 48.2728 -54.9781 45.3955 -45.3893 43.8228L-41.0732 43.115C-34.3479 42.012 -27.8108 39.994 -21.6497 37.1186C-15.4885 34.2433 -8.95154 32.2252 -2.22627 31.1224L6.40611 29.7066C13.1314 28.6037 19.6684 26.5856 25.8296 23.7102C31.9903 20.835 38.5282 18.8168 45.2535 17.714L58.2018 15.5904C62.0637 14.9571 65.8171 13.7983 69.3545 12.1472C78.139 8.04762 87.4592 5.17028 97.049 3.59766L101.364 2.88984C108.09 1.78686 114.626 -0.231199 120.788 -3.10642C126.949 -5.98177 133.486 -7.99983 140.211 -9.1028L148.843 -10.5186C155.568 -11.6215 162.106 -13.6396 168.267 -16.5149C174.428 -19.3902 180.965 -21.4082 187.69 -22.5112L206.46 -25.5894" stroke="#62823A" stroke-width="24"/>
<path opacity="0.7" d="M-68.8789 87.616L-63.5464 85.1275C-54.7618 81.0279 -45.4415 78.1506 -35.8527 76.578L-31.5365 75.8701C-24.8113 74.7672 -18.2742 72.7491 -12.1131 69.8738C-5.95186 66.9984 0.585146 64.9804 7.31042 63.8774L15.9428 62.4617C22.6681 61.3588 29.2051 59.3407 35.3666 56.4654C41.5276 53.59 48.0644 51.572 54.7896 50.4691L67.7379 48.3455C71.5998 47.7122 75.3532 46.5533 78.8918 44.9023C87.6763 40.8027 96.9965 37.9254 106.585 36.3528L110.902 35.645C117.627 34.542 124.164 32.5239 130.325 29.6486C136.486 26.7733 143.023 24.7553 149.749 23.6523L158.381 22.2366C165.106 21.1336 171.643 19.1155 177.804 16.2403C183.966 13.365 190.502 11.3469 197.228 10.2439L215.997 7.16577" stroke="#62823A" stroke-width="8"/>
<path opacity="0.7" d="M-67.2346 93.2633L-61.9021 90.7746C-53.1176 86.6753 -43.7972 83.7979 -34.2084 82.2253L-29.8922 81.5175C-23.167 80.4145 -16.63 78.3965 -10.4688 75.5211C-4.30758 72.6459 2.22943 70.6277 8.9547 69.5248L17.5871 68.1091C24.3123 67.0061 30.8493 64.9881 37.0107 62.1127C43.1716 59.2375 49.7084 57.2194 56.4337 56.1164L69.3819 53.9929C73.2438 53.3595 76.9972 52.2008 80.5358 50.5496C89.3203 46.4501 98.6405 43.5727 108.229 42.0002L112.546 41.2923C119.271 40.1893 125.808 38.1713 131.969 35.296C138.131 32.4207 144.667 30.4026 151.393 29.2997L160.025 27.8839C166.75 26.781 173.287 24.7629 179.449 21.8876C185.61 19.0123 192.146 16.9942 198.872 15.8913L217.641 12.8131" stroke="#789E47" stroke-width="16"/>
<path opacity="0.7" d="M-70.1943 83.0981L-64.8618 80.6094C-56.0774 76.5099 -46.7569 73.6325 -37.1681 72.06L-32.852 71.3521C-26.1267 70.2491 -19.5897 68.231 -13.4285 65.3558C-7.2673 62.4805 -0.730293 60.4624 5.99498 59.3594L14.6272 57.9437C21.3525 56.8408 27.8895 54.8226 34.0506 51.9474C40.2115 49.0721 46.7495 47.054 53.4748 45.951L66.423 43.8275C70.285 43.1941 74.0383 42.0354 77.5758 40.3844C86.3602 36.2848 95.6804 33.4074 105.269 31.8348L109.586 31.127C116.311 30.024 122.848 28.006 129.01 25.1306C135.171 22.2553 141.707 20.2372 148.433 19.1342L157.064 17.7186C163.79 16.6156 170.328 14.5976 176.489 11.7222C182.65 8.84689 189.186 6.82883 195.912 5.72585L214.681 2.64771" stroke="#D0F0A6" stroke-width="16"/>
</g>
<g filter="url(#filter2_f_30_845)">
<path d="M-24.3409 -1.62244C-44.0676 36.4217 -12.2568 80.6197 30.7252 74.8862L44.5066 73.0479L-76.3921 93.5206L-24.3409 -1.62244Z" fill="url(#paint1_linear_30_845)" fill-opacity="0.4"/>
</g>
<g opacity="0.2" filter="url(#filter3_f_30_845)">
<path d="M12.1775 88.208C34.2534 51.4372 5.27695 5.38758 -37.9825 8.49416L-51.8525 9.4902L70.0988 -3.58496L12.1775 88.208Z" fill="#F3FFE2"/>
</g>
</g>
</g>
<path d="M21.7147 30.5183C45.0918 25.2323 61.4367 23.1998 62.2361 25.9458C63.3945 29.9249 31.4731 42.4308 -9.06372 53.8785C-49.6003 65.3263 -83.4008 71.3808 -84.5593 67.4017C-85.3588 64.6557 -70.4034 57.8487 -47.7346 50.1312" stroke="url(#paint2_linear_30_845)" stroke-width="26"/>
<g opacity="0.8">
<path d="M22.6493 33.2964C43.9095 28.0541 56.5321 25.7768 56.995 27.3669C57.6655 29.6708 28.1552 40.0259 -8.91745 50.4955C-45.9904 60.9651 -76.5877 67.5846 -77.2586 65.2806C-77.7215 63.6906 -67.8829 59.625 -47.0322 52.9748" stroke="url(#paint3_linear_30_845)" stroke-width="10"/>
</g>
<g opacity="0.8" filter="url(#filter4_f_30_845)">
<path d="M22.9246 34.8895C42.1557 29.9196 49.5849 28.2519 49.8652 29.214C50.2709 30.608 23.3285 39.4398 -10.313 48.9402C-43.9544 58.4408 -71.5552 65.0125 -71.9611 63.6185C-72.2412 62.6564 -65.5656 60.3406 -46.5828 54.5187" stroke="url(#paint4_linear_30_845)" stroke-width="12"/>
</g>
</g>
<defs>
<filter id="filter0_d_30_845" x="-122.53" y="-71.6584" width="231.602" height="230.518" filterUnits="userSpaceOnUse" color-interpolation-filters="sRGB">
<feFlood flood-opacity="0" result="BackgroundImageFix"/>
<feColorMatrix in="SourceAlpha" type="matrix" values="0 0 0 0 0 0 0 0 0 0 0 0 0 0 0 0 0 0 127 0" result="hardAlpha"/>
<feOffset/>
<feGaussianBlur stdDeviation="40"/>
<feComposite in2="hardAlpha" operator="out"/>
<feColorMatrix type="matrix" values="0 0 0 0 0.201042 0 0 0 0 0.304167 0 0 0 0 0.0544965 0 0 0 0.6 0"/>
<feBlend mode="normal" in2="BackgroundImageFix" result="effect1_dropShadow_30_845"/>
<feBlend mode="normal" in="SourceGraphic" in2="effect1_dropShadow_30_845" result="shape"/>
</filter>
<filter id="filter1_f_30_845" x="-109.416" y="-70.4788" width="352.352" height="194.991" filterUnits="userSpaceOnUse" color-interpolation-filters="sRGB">
<feFlood flood-opacity="0" result="BackgroundImageFix"/>
<feBlend mode="normal" in="SourceGraphic" in2="BackgroundImageFix" result="shape"/>
<feGaussianBlur stdDeviation="12" result="effect1_foregroundBlur_30_845"/>
</filter>
<filter id="filter2_f_30_845" x="-116.392" y="-41.6224" width="200.899" height="175.143" filterUnits="userSpaceOnUse" color-interpolation-filters="sRGB">
<feFlood flood-opacity="0" result="BackgroundImageFix"/>
<feBlend mode="normal" in="SourceGraphic" in2="BackgroundImageFix" result="shape"/>
<feGaussianBlur stdDeviation="20" result="effect1_foregroundBlur_30_845"/>
</filter>
<filter id="filter3_f_30_845" x="-101.853" y="-53.585" width="221.951" height="191.793" filterUnits="userSpaceOnUse" color-interpolation-filters="sRGB">
<feFlood flood-opacity="0" result="BackgroundImageFix"/>
<feBlend mode="normal" in="SourceGraphic" in2="BackgroundImageFix" result="shape"/>
<feGaussianBlur stdDeviation="25" result="effect1_foregroundBlur_30_845"/>
</filter>
<filter id="filter4_f_30_845" x="-87.9712" y="12.9541" width="153.846" height="66.8508" filterUnits="userSpaceOnUse" color-interpolation-filters="sRGB">
<feFlood flood-opacity="0" result="BackgroundImageFix"/>
<feBlend mode="normal" in="SourceGraphic" in2="BackgroundImageFix" result="shape"/>
<feGaussianBlur stdDeviation="5" result="effect1_foregroundBlur_30_845"/>
</filter>
<linearGradient id="paint0_linear_30_845" x1="17.5339" y1="19.0856" x2="-38.7109" y2="60.4004" gradientUnits="userSpaceOnUse">
<stop stop-color="#A7CF75"/>
<stop offset="1" stop-color="#627B34"/>
</linearGradient>
<linearGradient id="paint1_linear_30_845" x1="-44.044" y1="69.5403" x2="-12.9257" y2="52.3953" gradientUnits="userSpaceOnUse">
<stop/>
<stop offset="1" stop-color="#9DC267"/>
</linearGradient>
<linearGradient id="paint2_linear_30_845" x1="-13.01" y1="40.3247" x2="-9.17353" y2="53.9095" gradientUnits="userSpaceOnUse">
<stop stop-color="#516932"/>
<stop offset="1" stop-color="#84AB51"/>
</linearGradient>
<linearGradient id="paint3_linear_30_845" x1="-11.1462" y1="42.8405" x2="-8.97946" y2="50.513" gradientUnits="userSpaceOnUse">
<stop stop-color="#5D7A37"/>
<stop offset="1" stop-color="#F3FFE3"/>
</linearGradient>
<linearGradient id="paint4_linear_30_845" x1="-11.5678" y1="44.6303" x2="-10.3479" y2="48.9501" gradientUnits="userSpaceOnUse">
<stop stop-color="#2B361D"/>
<stop offset="1" stop-color="#64843A"/>
</linearGradient>
<clipPath id="clip0_30_845">
<rect width="75" height="88" fill="white"/>
</clipPath>
</defs>
</svg>
