<svg width="66" height="88" viewBox="0 0 66 88" fill="none" xmlns="http://www.w3.org/2000/svg">
<g clip-path="url(#clip0_30_888)">
<mask id="mask0_30_888" style="mask-type:luminance" maskUnits="userSpaceOnUse" x="-37" y="-7" width="102" height="101">
<path d="M38.8982 0.0677454C14.8279 -13.8292 -15.9506 -5.58215 -29.8476 18.4881C-43.7445 42.5584 -35.4975 73.3369 -11.4272 87.2339C12.6431 101.131 43.4216 92.8837 57.3185 68.8135C71.2155 44.7432 62.9684 13.9647 38.8982 0.0677454Z" fill="white"/>
</mask>
<g mask="url(#mask0_30_888)">
<path d="M38.8982 0.0677454C14.8279 -13.8292 -15.9506 -5.58215 -29.8476 18.4881C-43.7445 42.5584 -35.4975 73.3369 -11.4272 87.2339C12.6431 101.131 43.4216 92.8837 57.3185 68.8135C71.2155 44.7432 62.9684 13.9647 38.8982 0.0677454Z" fill="url(#paint0_linear_30_888)"/>
<g filter="url(#filter0_f_30_888)">
<path opacity="0.7" d="M-69.3948 112.652L-66.4694 104.888C-61.65 92.0973 -55.0767 80.0388 -46.9379 69.0581L-43.2744 64.1155C-37.566 56.4139 -32.9557 47.9565 -29.5757 38.9859C-26.1955 30.015 -21.5852 21.5577 -15.8769 13.8562L-8.54988 3.97082C-2.84147 -3.73065 1.76884 -12.1882 5.14886 -21.1588C8.52905 -30.1295 13.1394 -38.587 18.8476 -46.2884L29.8381 -61.1165C33.116 -65.5388 35.7633 -70.3951 37.7042 -75.5461C42.5235 -88.3365 49.0968 -100.395 57.2356 -111.376L60.8991 -116.318C66.6075 -124.02 71.2187 -132.477 74.5972 -141.448C77.9774 -150.419 82.5889 -158.876 88.2975 -166.578L95.6232 -176.463C101.332 -184.165 105.943 -192.622 109.322 -201.593C112.702 -210.563 117.313 -219.021 123.022 -226.722L138.952 -248.216" stroke="#5D2FE4" stroke-width="8"/>
<path opacity="0.7" d="M-63.5837 116.007L-60.6583 108.243C-55.839 95.4523 -49.2657 83.3938 -41.1269 72.4132L-37.4634 67.4706C-31.755 59.7689 -27.1446 51.3116 -23.7646 42.3409C-20.3844 33.3701 -15.7741 24.9127 -10.0659 17.2113L-2.73885 7.32586C2.96956 -0.375604 7.57987 -8.83312 10.9599 -17.8038C14.3401 -26.7744 18.9504 -35.232 24.6586 -42.9334L35.6492 -57.7614C38.927 -62.1837 41.5743 -67.0401 43.5152 -72.1912C48.3345 -84.9815 54.9079 -97.0399 63.0467 -108.021L66.7102 -112.963C72.4181 -120.665 77.0296 -129.122 80.4097 -138.093C83.7883 -147.064 88.3997 -155.521 94.1083 -163.223L101.434 -173.108C107.143 -180.81 111.754 -189.267 115.134 -198.238C118.513 -207.208 123.124 -215.666 128.833 -223.367L144.762 -244.861" stroke="#120827" stroke-width="16"/>
<path opacity="0.7" d="M-30.1699 135.298L-27.2445 127.535C-22.4253 114.744 -15.8518 102.685 -7.71306 91.7046L-4.04954 86.7619C1.65887 79.0603 6.26918 70.603 9.6492 61.6323C13.0294 52.6615 17.6397 44.2041 23.3479 36.5027L30.675 26.6172C36.3834 18.9158 40.9937 10.4583 44.3737 1.4876C47.7539 -7.48307 52.3642 -15.9406 58.0724 -23.642L69.0632 -38.4701C72.341 -42.8923 74.9881 -47.7487 76.929 -52.8998C81.7485 -65.6901 88.321 -77.7485 96.4603 -88.7294L100.124 -93.672C105.833 -101.373 110.442 -109.831 113.823 -118.802C117.203 -127.772 121.813 -136.23 127.521 -143.931L134.849 -153.817C140.557 -161.518 145.167 -169.976 148.547 -178.946C151.927 -187.917 156.537 -196.374 162.246 -204.076L178.177 -225.57" stroke="#B098E4" stroke-width="32"/>
<path opacity="0.7" d="M-42.228 128.337L-39.3024 120.573C-34.4833 107.782 -27.9098 95.7236 -19.771 84.7429L-16.1075 79.8003C-10.3992 72.0986 -5.78877 63.6413 -2.40875 54.6706C0.971274 45.6998 5.58175 37.2425 11.29 29.541L18.617 19.6556C24.3253 11.9541 28.9357 3.4966 32.3158 -5.47407C35.6958 -14.4447 40.3063 -22.9022 46.0145 -30.6037L57.0051 -45.4317C60.2828 -49.854 62.9302 -54.7104 64.8711 -59.8615C69.6906 -72.6518 76.2631 -84.7102 84.4024 -95.691L88.0661 -100.634C93.7746 -108.335 98.3844 -116.793 101.765 -125.763C105.145 -134.734 109.755 -143.191 115.463 -150.893L122.791 -160.778C128.499 -168.48 133.109 -176.937 136.489 -185.908C139.869 -194.879 144.479 -203.336 150.188 -211.038L166.119 -232.532" stroke="#331E6F" stroke-width="42"/>
<path opacity="0.7" d="M-5.4729 149.557L-2.54748 141.794C2.27184 129.003 8.84517 116.945 16.984 105.963L20.6475 101.021C26.3559 93.3192 30.9662 84.8619 34.3464 75.8912C37.7264 66.9204 42.3367 58.463 48.0451 50.7615L55.372 40.8761C61.0804 33.1747 65.6907 24.7172 69.0716 15.7465C72.4501 6.77582 77.0616 -1.68171 82.7701 -9.38317L93.7595 -24.2112C97.0374 -28.6335 99.6845 -33.4898 101.625 -38.6408C106.445 -51.4312 113.019 -63.4897 121.158 -74.4705L124.82 -79.4131C130.529 -87.1146 135.14 -95.5721 138.521 -104.543C141.899 -113.513 146.511 -121.971 152.219 -129.672L159.545 -139.558C165.253 -147.259 169.865 -155.717 173.245 -164.687C176.624 -173.658 181.235 -182.115 186.944 -189.817L202.873 -211.311" stroke="#6C44DD" stroke-width="8"/>
<path opacity="0.7" d="M1.79077 153.751L4.71618 145.987C9.53551 133.196 16.1088 121.138 24.2478 110.157L27.9113 105.215C33.6196 97.513 38.2299 89.0556 41.6101 80.085C44.9901 71.1141 49.6004 62.6568 55.3088 54.9553L62.6358 45.0699C68.3434 37.3685 72.9549 28.9109 76.3351 19.9403C79.7153 10.9696 84.3251 2.51207 90.0336 -5.18939L101.023 -20.0174C104.301 -24.4397 106.95 -29.2961 108.891 -34.447C113.708 -47.2374 120.283 -59.2959 128.422 -70.2767L132.086 -75.2193C137.792 -82.9208 142.404 -91.3783 145.784 -100.349C149.164 -109.32 153.774 -117.777 159.483 -125.479L166.81 -135.364C172.517 -143.065 177.128 -151.523 180.509 -160.494C183.889 -169.464 188.499 -177.922 194.207 -185.623L210.139 -207.117" stroke="#180F37" stroke-width="16"/>
<path opacity="0.7" d="M-11.2842 146.202L-8.35876 138.439C-3.53943 125.648 3.03389 113.59 11.1727 102.608L14.8362 97.6658C20.5446 89.9642 25.1549 81.5068 28.5351 72.5362C31.9151 63.5653 36.5254 55.108 42.2338 47.4065L49.5607 37.5211C55.2691 29.8196 59.8794 21.3621 63.2596 12.3914C66.6396 3.42078 71.2505 -5.03675 76.959 -12.7382L87.9484 -27.5662C91.2263 -31.9885 93.8734 -36.8449 95.8143 -41.996C100.634 -54.7863 107.208 -66.8448 115.346 -77.8255L119.009 -82.7682C124.718 -90.4696 129.329 -98.9271 132.708 -107.898C136.088 -116.868 140.699 -125.326 146.408 -133.027L153.734 -142.913C159.442 -150.614 164.054 -159.072 167.432 -168.042C170.812 -177.013 175.424 -185.471 181.133 -193.172L197.062 -214.666" stroke="#401F9E" stroke-width="16"/>
</g>
<g filter="url(#filter1_f_30_888)">
<path d="M-48.9272 14.4093C-31.1496 72.7477 44.8581 87.0672 82.646 39.1972L94.7609 23.849L-7.21622 162.959L-48.9272 14.4093Z" fill="url(#paint1_linear_30_888)" fill-opacity="0.4"/>
</g>
</g>
</g>
<defs>
<filter id="filter0_f_30_888" x="-89.1379" y="-266.598" width="321.703" height="439.17" filterUnits="userSpaceOnUse" color-interpolation-filters="sRGB">
<feFlood flood-opacity="0" result="BackgroundImageFix"/>
<feBlend mode="normal" in="SourceGraphic" in2="BackgroundImageFix" result="shape"/>
<feGaussianBlur stdDeviation="8" result="effect1_foregroundBlur_30_888"/>
</filter>
<filter id="filter1_f_30_888" x="-88.9272" y="-25.5907" width="223.688" height="228.549" filterUnits="userSpaceOnUse" color-interpolation-filters="sRGB">
<feFlood flood-opacity="0" result="BackgroundImageFix"/>
<feBlend mode="normal" in="SourceGraphic" in2="BackgroundImageFix" result="shape"/>
<feGaussianBlur stdDeviation="20" result="effect1_foregroundBlur_30_888"/>
</filter>
<linearGradient id="paint0_linear_30_888" x1="13.9635" y1="-5.22427" x2="-3.36404" y2="91.8891" gradientUnits="userSpaceOnUse">
<stop stop-color="#B68AFF"/>
<stop offset="1" stop-color="#3E16B6"/>
</linearGradient>
<linearGradient id="paint1_linear_30_888" x1="1.71938" y1="106.737" x2="16.8066" y2="58.9293" gradientUnits="userSpaceOnUse">
<stop stop-color="#281E3C"/>
<stop offset="1" stop-color="#6B47B4"/>
</linearGradient>
<clipPath id="clip0_30_888">
<rect width="66" height="88" fill="white"/>
</clipPath>
</defs>
</svg>
