<svg width="70" height="88" viewBox="0 0 70 88" fill="none" xmlns="http://www.w3.org/2000/svg">
<g clip-path="url(#clip0_30_182)">
<mask id="mask0_30_182" style="mask-type:luminance" maskUnits="userSpaceOnUse" x="-47" y="-15" width="118" height="118">
<path d="M69.7794 38.9449C66.9876 7.03424 38.8557 -16.5712 6.94507 -13.7794C-24.9656 -10.9876 -48.571 17.1443 -45.7792 49.0549C-42.9874 80.9656 -14.8555 104.571 17.0551 101.779C48.9658 98.9874 72.5712 70.8555 69.7794 38.9449Z" fill="white"/>
</mask>
<g mask="url(#mask0_30_182)">
<path d="M69.7794 38.9449C66.9876 7.03424 38.8557 -16.5712 6.94507 -13.7794C-24.9656 -10.9876 -48.571 17.1443 -45.7792 49.0549C-42.9874 80.9656 -14.8555 104.571 17.0551 101.779C48.9658 98.9874 72.5712 70.8555 69.7794 38.9449Z" fill="url(#paint0_linear_30_182)"/>
<g opacity="0.2">
<path d="M11.9031 62.7902C11.8101 61.7265 10.1561 60.5172 9.09242 60.6102C8.0289 60.7031 6.29952 60.8501 6.39252 61.9138C6.48551 62.9775 8.36588 64.5551 9.4296 64.4621C10.4931 64.3689 11.9963 63.8539 11.9031 62.7902Z" fill="#FFB802"/>
<path d="M35.5979 30.8301C35.5049 29.7664 33.851 28.5571 32.7873 28.6501C31.7235 28.7433 29.9942 28.89 30.0874 29.9537C30.1803 31.0174 32.0605 32.5952 33.1242 32.502C34.188 32.4091 35.6909 31.8938 35.5979 30.8301Z" fill="#FFB802"/>
<path d="M54.8067 75.1447C54.7137 74.0809 53.0597 72.8716 51.996 72.9646C50.9323 73.0578 49.2029 73.2046 49.2961 74.2683C49.3891 75.332 51.2695 76.9096 52.333 76.8166C53.3967 76.7236 54.8999 76.2084 54.8067 75.1447Z" fill="#FFB802"/>
<path d="M11.4988 65.9308C11.4058 64.8671 9.8866 65.1985 8.82288 65.2917C7.75935 65.3846 5.89504 63.9907 5.98823 65.0544C6.08122 66.1181 7.96158 67.6957 9.02511 67.6028C10.0888 67.5098 11.592 66.9945 11.4988 65.9308Z" fill="#D66C14"/>
</g>
<g opacity="0.2">
<path d="M31.5946 61.5353C30.8114 60.8096 30.8704 58.7614 31.5963 57.9784C32.3221 57.1952 33.4985 55.9192 34.2817 56.645C35.0649 57.3709 35.1581 59.8235 34.4323 60.6067C33.7064 61.3897 32.3778 62.2611 31.5946 61.5353Z" fill="#FFB802"/>
<path d="M31.6592 7.42615C30.876 6.70038 28.8382 6.91459 28.1125 7.69778C27.3867 8.48078 26.2037 9.75079 26.9869 10.4766C27.7699 11.2023 30.2227 11.1092 30.9485 10.3262C31.6743 9.54296 32.4422 8.15192 31.6592 7.42615Z" fill="#FFB802"/>
<path d="M34.3233 63.1417C33.5403 62.4159 34.7335 61.4191 35.4593 60.6361C36.1853 59.8529 36.2272 57.5255 37.0104 58.2513C37.7936 58.9773 37.8868 61.4299 37.161 62.2131C36.4352 62.9961 35.1065 63.8674 34.3233 63.1417Z" fill="#D66C14"/>
<path d="M67.5154 41.9752C66.7323 41.2494 65.0882 41.1814 65.8139 40.3982C66.5397 39.6152 68.0239 37.4382 68.8071 38.164C69.5903 38.8898 69.6835 41.3426 68.9577 42.1256C68.2319 42.9088 68.2986 42.7011 67.5154 41.9752Z" fill="#D66C14"/>
</g>
<g filter="url(#filter0_f_30_182)">
<path opacity="0.8" d="M-68.4023 56.6623L-47.5618 45.6671C-34.4403 38.7442 -19.0732 37.4348 -4.96949 42.0376C9.05433 46.6142 24.3308 45.3465 37.4084 38.5207L38.262 38.0751C51.4442 31.1947 66.9167 29.9093 81.0735 34.4588C95.288 39.0269 110.863 37.6488 124.037 30.6223C137.245 23.577 152.787 22.2028 167.018 26.8473C181.25 31.4917 196.759 30.1349 209.967 23.0896C223.176 16.0446 238.685 14.6877 252.916 19.3322L275.192 26.6017" stroke="#FFB802" stroke-width="32"/>
<path opacity="0.5" d="M-83.5994 76.9681L-62.7588 65.9729C-49.6371 59.05 -34.2702 57.7405 -20.1663 62.3434C-6.14268 66.9202 9.13394 65.6523 22.2114 58.8265L23.065 58.3811C36.2472 51.5005 51.7199 50.215 65.8767 54.7646C80.0911 59.3326 95.6649 57.9546 108.839 50.9281C122.047 43.883 137.589 42.5086 151.821 47.153C166.052 51.7977 181.563 50.4407 194.771 43.3956C207.98 36.3503 223.489 34.9935 237.72 39.638L259.994 46.9075" stroke="#FFB802" stroke-width="24"/>
<path d="M-73.5737 64.1012L-52.7332 53.106C-39.6116 46.1833 -24.2445 44.8737 -10.1409 49.4765C3.88295 54.0533 19.1594 52.7856 32.2368 45.9598L33.0906 45.5142C46.2728 38.6336 61.7453 37.3482 75.9021 41.8977C90.1162 46.4658 105.691 45.0877 118.865 38.0612C132.073 31.0161 147.615 29.6419 161.847 34.2863C176.078 38.9308 191.587 37.5738 204.796 30.5287C218.004 23.4836 233.513 22.1266 247.745 26.7711L270.021 34.0408" stroke="#FFB802" stroke-width="16"/>
<path d="M-78.6296 68.4251L-57.7891 57.4299C-44.6674 50.507 -29.3004 49.1975 -15.1966 53.8002C-1.17277 58.377 14.1037 57.1093 27.1811 50.2835L28.0347 49.8379C41.2171 42.9573 56.6896 41.6721 70.8464 46.2216C85.0609 50.7897 100.635 49.4114 113.809 42.3849C127.018 35.3398 142.56 33.9656 156.791 38.61C171.022 43.2545 186.531 41.8977 199.74 34.8524C212.949 27.8073 228.458 26.4503 242.689 31.095L264.965 38.3645" stroke="#FFB802" stroke-width="8"/>
<path d="M-76.8298 70.1033L-55.9893 59.108C-42.8677 52.1851 -27.5006 50.8757 -13.397 55.4786C0.626847 60.0553 15.9033 58.7877 28.9809 51.9618L29.8345 51.5162C43.0167 44.6357 58.4892 43.3502 72.646 47.8997C86.8605 52.4678 102.435 51.0897 115.609 44.0632C128.818 37.0181 144.36 35.6439 158.591 40.2884C172.822 44.9328 188.331 43.5758 201.54 36.5307C214.749 29.4857 230.258 28.1287 244.489 32.7731L266.765 40.0428" stroke="#FFB802" stroke-width="4"/>
<path d="M-80.4468 72.6241L-59.6062 61.6289C-46.4847 54.706 -31.1176 53.3966 -17.0139 57.9994C-2.9901 62.5762 12.2863 61.3083 25.364 54.4825L26.2175 54.0371C39.3998 47.1565 54.8722 45.8711 69.0291 50.4206C83.2435 54.9887 98.8181 53.6106 111.992 46.5841C125.2 39.5388 140.742 38.1646 154.974 42.809C169.205 47.4535 184.714 46.0967 197.923 39.0514C211.131 32.0064 226.64 30.6495 240.872 35.294L263.148 42.5635" stroke="#FFB802" stroke-width="4"/>
<path opacity="0.7" d="M-65.6606 94.6547L-43.8043 83.4323C-30.4226 76.5612 -14.8733 75.2355 -0.521627 79.7417L0.167808 79.9583C14.4379 84.439 29.8951 83.1547 43.2301 76.3803L45.0526 75.4546C58.3097 68.7198 73.6675 67.4096 87.8737 71.8014L89.1963 72.2103C103.568 76.6532 119.111 75.2587 132.462 68.3287L133.379 67.8533C146.807 60.8829 162.45 59.5143 176.886 64.0468L177.729 64.3118C192.165 68.8443 207.808 67.4757 221.237 60.5053L222.022 60.0979C235.451 53.1275 251.093 51.7591 265.528 56.2916L288.911 63.6336" stroke="#FFB802" stroke-width="20"/>
<path opacity="0.3" d="M-69.5632 99.2402L-47.7067 88.0177C-34.3249 81.1469 -18.7759 79.821 -4.42401 84.3274L-3.73459 84.5439C10.5355 89.0246 25.9927 87.7403 39.3277 80.9659L41.1503 80.04C54.4071 73.3055 69.765 71.9953 83.9713 76.387L85.2939 76.7959C99.6649 81.2387 115.209 79.8444 128.561 72.9144L129.475 72.4388C142.904 65.4685 158.548 64.0999 172.983 68.6324L173.828 68.8973C188.262 73.43 203.904 72.0614 217.333 65.0909L218.118 64.6836C231.547 57.7131 247.19 56.3445 261.626 60.8772L285.01 68.2193" stroke="#FFB802" stroke-width="8"/>
<path d="M-70.2954 100.427L-48.4389 89.2043C-35.0571 82.3332 -19.5081 81.0075 -5.15638 85.5137L-4.46696 85.7303C9.80317 90.211 25.2606 88.9266 38.5955 82.1522L40.4179 81.2266C53.675 74.4918 69.0328 73.1816 83.2389 77.5733L84.5617 77.9822C98.9323 82.4252 114.476 81.0307 127.828 74.1007L128.744 73.6253C142.173 66.6548 157.816 65.2862 172.25 69.8187L173.095 70.0838C187.529 74.6163 203.172 73.2477 216.601 66.2773L217.386 65.8699C230.815 58.8995 246.459 57.531 260.893 62.0636L284.277 69.4056" stroke="#FFB802" stroke-width="2"/>
<path d="M-76.2798 103.791L-54.4235 92.5688C-41.0417 85.6979 -25.4925 84.372 -11.1408 88.8784L-10.4513 89.095C3.8188 93.5757 19.276 92.2913 32.611 85.5169L34.4335 84.5911C47.6906 77.8565 63.0484 76.5463 77.2545 80.938L78.5771 81.3469C92.9486 85.7897 108.493 84.3954 121.842 77.4654L122.759 76.9898C136.188 70.0195 151.83 68.6509 166.266 73.1834L167.109 73.4483C181.546 77.981 197.188 76.6124 210.617 69.642L211.402 69.2346C224.831 62.2642 240.474 60.8956 254.91 65.4283L278.293 72.7703" stroke="#FFB802" stroke-width="2"/>
<path d="M-69.4202 105.893L-47.5638 94.6708C-34.1821 87.7997 -18.633 86.474 -4.28114 90.9804L-3.59171 91.1967C10.6784 95.6774 26.1356 94.3931 39.4706 87.6189L41.2931 86.6931C54.55 79.9583 69.9078 78.6483 84.1142 83.04L85.4367 83.4487C99.8082 87.8917 115.352 86.4972 128.702 79.5672L129.618 79.0918C143.047 72.1213 158.69 70.7527 173.126 75.2854L173.969 75.5503C188.405 80.0828 204.048 78.7142 217.477 71.7439L218.262 71.3366C231.691 64.3661 247.333 62.9975 261.769 67.53L285.151 74.8721" stroke="#FFB802" stroke-width="2"/>
<path opacity="0.4" d="M-71.6453 107.713L-49.7887 96.4901C-36.407 89.619 -20.8579 88.2933 -6.50604 92.7996L-5.81662 93.0161C8.45351 97.4968 23.9107 96.2125 37.2457 89.4381L39.0682 88.5124C52.3251 81.7776 67.6829 80.4674 81.8891 84.8592L83.2118 85.2681C97.5829 89.7111 113.127 88.3166 126.478 81.3865L127.393 80.9111C140.822 73.9407 156.466 72.5721 170.901 77.1046L171.746 77.3696C186.18 81.9021 201.822 80.5335 215.251 73.5631L216.036 73.1557C229.465 66.1855 245.108 64.8169 259.544 69.3494L282.928 76.6914" stroke="#FFB802" stroke-width="8"/>
<path d="M-71.969 113.891L-50.1127 102.668C-36.7309 95.7974 -21.1819 94.4716 -6.82996 98.978L-6.14054 99.1943C8.12959 103.675 23.5868 102.391 36.9218 95.6165L38.7443 94.6906C52.0012 87.956 67.359 86.6458 81.5653 91.0376L82.8879 91.4465C97.2599 95.8893 112.802 94.495 126.154 87.5647L127.07 87.0893C140.499 80.1189 156.142 78.7505 170.578 83.283L171.421 83.5478C185.857 88.0803 201.499 86.7119 214.928 79.7415L215.713 79.3341C229.142 72.3637 244.785 70.9951 259.221 75.5276L282.603 82.8696" stroke="#FFB802" stroke-width="4"/>
<path d="M-73.7976 52.6706L-52.957 41.6753C-39.8353 34.7526 -24.4684 33.443 -10.3646 38.0459C3.65907 42.6227 18.9357 41.355 32.0132 34.5291L32.8667 34.0835C46.049 27.203 61.5216 25.9175 75.6784 30.467C89.8919 35.0351 105.467 33.657 118.641 26.6305C131.849 19.5854 147.391 18.2112 161.622 22.8557C175.854 27.5001 191.363 26.1431 204.571 19.0981C217.78 12.053 233.291 10.696 247.522 15.3404L269.796 22.6102" stroke="#FFB802" stroke-width="8"/>
<path d="M-77.5576 50.5375L-56.7171 39.5423C-43.5955 32.6194 -28.2284 31.3099 -14.1248 35.9128C-0.10093 40.4896 15.1755 39.2217 28.2531 32.3959L29.1067 31.9504C42.2889 25.0699 57.7616 23.7844 71.9184 28.334C86.1327 32.902 101.707 31.524 114.88 24.4975C128.089 17.4524 143.631 16.078 157.862 20.7224C172.094 25.3671 187.605 24.0101 200.813 16.965C214.022 9.91973 229.531 8.56292 243.762 13.2074L266.036 20.4769" stroke="#FFB802" stroke-width="4"/>
<path opacity="0.5" d="M-92.3877 22.0812L-70.5312 10.8588C-57.1495 3.98769 -41.6004 2.662 -27.2485 7.16822L-26.5591 7.38475C-12.289 11.8654 3.16822 10.5811 16.5032 3.80692L18.3257 2.88105C31.5826 -3.85372 46.9404 -5.16393 61.1467 -0.772175L62.4694 -0.363277C76.841 4.07972 92.384 2.6852 105.736 -4.24483L106.652 -4.72024C120.081 -11.6907 135.724 -13.0593 150.158 -8.52678L151.003 -8.26172C165.437 -3.72921 181.08 -5.09782 194.51 -12.0683L195.293 -12.4756C208.724 -19.4459 224.367 -20.8145 238.801 -16.282L262.185 -8.93993" stroke="#FFB802" stroke-width="8"/>
<path d="M-86.9724 18.4929L-65.116 7.27049C-51.7342 0.399612 -36.1852 -0.926264 -21.8333 3.58014L-21.1439 3.79648C-6.87375 8.27717 8.58344 6.99287 21.9184 0.218659L23.741 -0.707215C36.998 -7.44179 52.3558 -8.75201 66.562 -4.36025L67.8846 -3.95135C82.2562 0.491452 97.7994 -0.902869 111.151 -7.8331L112.067 -8.3085C125.496 -15.2789 141.139 -16.6474 155.573 -12.1148L156.418 -11.85C170.852 -7.31748 186.495 -8.68589 199.924 -15.6563L200.709 -16.0637C214.138 -23.0341 229.782 -24.4027 244.217 -19.8702L267.6 -12.5282" stroke="#FFB802" stroke-width="4"/>
<path opacity="0.7" d="M-86.2642 4.97815L-64.4076 -6.24427C-51.0259 -13.1151 -35.4768 -14.441 -21.1251 -9.93461L-20.4357 -9.71808C-6.16558 -5.23738 9.29162 -6.5217 22.6266 -13.2961L24.4491 -14.222C37.7062 -20.9565 53.064 -22.2668 67.2701 -17.875L68.5927 -17.4661C82.9644 -13.0233 98.507 -14.4176 111.859 -21.3477L112.775 -21.8233C126.204 -28.7935 141.847 -30.1621 156.283 -25.6296L157.126 -25.3647C171.562 -20.832 187.204 -22.2006 200.633 -29.1711L201.418 -29.5784C214.847 -36.5489 230.49 -37.9175 244.926 -33.3848L268.308 -26.0428" stroke="#FFB802" stroke-width="4"/>
<path opacity="0.8" d="M-92.6912 27.8733L-70.8347 16.6509C-57.4529 9.7798 -41.9039 8.45412 -27.5522 12.9603L-26.8626 13.1769C-12.5926 17.6576 2.86477 16.3732 16.1997 9.59904L18.0221 8.67316C31.2792 1.9384 46.637 0.628176 60.8431 5.01994L62.1659 5.42883C76.5373 9.87183 92.0806 8.47732 105.432 1.54728L106.349 1.07188C119.778 -5.89856 135.42 -7.26717 149.854 -2.73466L150.699 -2.4696C165.134 2.06291 180.776 0.694295 194.205 -6.27615L194.99 -6.6835C208.419 -13.6537 224.063 -15.0223 238.498 -10.4898L261.881 -3.14782" stroke="#FFB802" stroke-width="8"/>
<path opacity="0.7" d="M-91.2563 37.4347L-69.4 26.2123C-56.0181 19.3413 -40.469 18.0156 -26.1173 22.5218L-25.4279 22.7383C-11.1578 27.219 4.29942 25.9347 17.6344 19.1605L19.4569 18.2346C32.714 11.4999 48.0718 10.1896 62.278 14.5814L63.6006 14.9903C77.9722 19.4333 93.515 18.0388 106.867 11.1087L107.783 10.6333C121.212 3.6629 136.855 2.2943 151.291 6.827L152.134 7.09186C166.568 11.6244 182.212 10.2558 195.641 3.28551L196.426 2.87796C209.855 -4.09228 225.498 -5.46089 239.932 -0.92838L263.316 6.41365" stroke="#FFB802" stroke-width="8"/>
<path d="M-97.8762 25.5616L-76.0197 14.3392C-62.638 7.4681 -47.0889 6.14241 -32.7372 10.6486L-32.0478 10.8652C-17.7777 15.3458 -2.32028 14.0615 11.0147 7.28733L12.8371 6.36146C26.0941 -0.373311 41.4519 -1.68353 55.6581 2.70823L56.9808 3.11713C71.3523 7.56012 86.8953 6.16561 100.247 -0.764425L101.163 -1.23983C114.592 -8.21027 130.235 -9.57887 144.669 -5.04637L145.514 -4.78131C159.948 -0.2488 175.593 -1.61741 189.022 -8.58785L189.807 -8.9952C203.236 -15.9655 218.878 -17.3341 233.312 -12.8015L256.696 -5.45953" stroke="#FFB802" stroke-width="4"/>
</g>
<g filter="url(#filter1_f_30_182)">
<path d="M-1.81696 -34.4883C-45.1408 20.8595 -8.41485 102.082 61.757 106.112L84.2556 107.404L-114.486 103.088L-1.81696 -34.4883Z" fill="url(#paint1_linear_30_182)" fill-opacity="0.4"/>
</g>
</g>
</g>
<defs>
<filter id="filter0_f_30_182" x="-104.79" y="-44.0131" width="402.697" height="165.683" filterUnits="userSpaceOnUse" color-interpolation-filters="sRGB">
<feFlood flood-opacity="0" result="BackgroundImageFix"/>
<feBlend mode="normal" in="SourceGraphic" in2="BackgroundImageFix" result="shape"/>
<feGaussianBlur stdDeviation="3" result="effect1_foregroundBlur_30_182"/>
</filter>
<filter id="filter1_f_30_182" x="-154.486" y="-74.4883" width="278.742" height="221.892" filterUnits="userSpaceOnUse" color-interpolation-filters="sRGB">
<feFlood flood-opacity="0" result="BackgroundImageFix"/>
<feBlend mode="normal" in="SourceGraphic" in2="BackgroundImageFix" result="shape"/>
<feGaussianBlur stdDeviation="20" result="effect1_foregroundBlur_30_182"/>
</filter>
<linearGradient id="paint0_linear_30_182" x1="-15.9325" y1="48.7312" x2="81.6587" y2="31.7754" gradientUnits="userSpaceOnUse">
<stop stop-color="#F5610F"/>
<stop offset="1" stop-color="#FF9104"/>
</linearGradient>
<linearGradient id="paint1_linear_30_182" x1="-35.758" y1="68.6975" x2="-0.394019" y2="56.9991" gradientUnits="userSpaceOnUse">
<stop stop-color="#772B06"/>
<stop offset="1" stop-color="#FF9A06"/>
</linearGradient>
<clipPath id="clip0_30_182">
<rect width="70" height="88" fill="white"/>
</clipPath>
</defs>
</svg>
