<svg width="71" height="88" viewBox="0 0 71 88" fill="none" xmlns="http://www.w3.org/2000/svg">
<g clip-path="url(#clip0_30_754)">
<mask id="mask0_30_754" style="mask-type:luminance" maskUnits="userSpaceOnUse" x="-46" y="-15" width="116" height="117">
<path d="M70 43.8066C70 11.7741 44.0325 -14.1934 12 -14.1934C-20.0325 -14.1934 -46 11.7741 -46 43.8066C-46 75.8392 -20.0325 101.807 12 101.807C44.0325 101.807 70 75.8392 70 43.8066Z" fill="white"/>
</mask>
<g mask="url(#mask0_30_754)">
<path d="M70 43.8066C70 11.7741 44.0325 -14.1934 12 -14.1934C-20.0325 -14.1934 -46 11.7741 -46 43.8066C-46 75.8392 -20.0325 101.807 12 101.807C44.0325 101.807 70 75.8392 70 43.8066Z" fill="url(#paint0_linear_30_754)"/>
<g filter="url(#filter0_d_30_754)">
<path fill-rule="evenodd" clip-rule="evenodd" d="M-62.5095 5.12918L-57.489 0.624321C-55.2765 -1.36102 -56.5664 -5.0303 -59.5347 -5.19444C-60.7189 -5.25978 -61.8489 -4.69196 -62.5033 -3.70287L-63.2148 -2.62735C-63.5958 -2.05141 -63.7325 -1.34749 -63.5947 -0.670821L-63.5073 -0.241815C-63.3283 0.636498 -63.7499 1.52777 -64.5424 1.94672L-64.6781 2.01845C-65.8397 2.63247 -66.049 4.20872 -65.088 5.10482C-64.3643 5.77916 -63.2457 5.7898 -62.5095 5.12918ZM-65.4066 -1.02926L-65.8977 -2.1593C-66.2538 -2.97845 -67.275 -3.26014 -68.0008 -2.73949C-68.37 -2.47462 -68.5879 -2.04716 -68.5854 -1.59264L-68.5784 -0.360518C-68.5736 0.518955 -67.8817 1.24086 -67.0033 1.283C-65.7788 1.34158 -64.9179 0.0949721 -65.4066 -1.02926ZM-72.8033 1.94189L-72.0816 0.943319C-71.5583 0.219479 -71.8363 -0.802481 -72.6541 -1.16169C-73.0703 -1.34439 -73.5492 -1.31404 -73.939 -1.08011L-74.9956 -0.44617C-75.7497 0.00623035 -76.0181 0.969613 -75.6067 1.74681C-75.0331 2.83025 -73.5216 2.93543 -72.8033 1.94189ZM-37.485 53.5223V53.1922C-37.485 50.5877 -36.2558 48.1358 -34.1686 46.5775L-33.3196 45.9438C-30.8728 44.117 -27.7451 43.4618 -24.7708 44.1527L-24.0203 44.3271L-17.0012 45.9509C-16.773 46.0037 -16.537 46.013 -16.3054 45.9784L-14.959 45.7773C-13.8173 45.6066 -13.4494 44.1425 -14.3749 43.4525C-14.7036 43.2075 -14.8973 42.8216 -14.8973 42.4116V42.3217C-14.8973 41.6307 -14.418 41.032 -13.7439 40.8804L-12.0203 40.4931C-10.9637 40.2557 -10.3706 39.129 -10.7727 38.1235C-11.0399 37.4557 -11.6866 37.0178 -12.406 37.0178H-13.1755C-14.2365 37.0178 -15.2126 37.5982 -15.7194 38.5306L-16.1729 39.365C-16.2385 39.4855 -16.3125 39.6007 -16.3945 39.7103C-17.5955 41.3113 -20.0357 41.1855 -21.0654 39.4694L-21.2415 39.1759C-21.9932 37.923 -23.5281 37.3799 -24.9006 37.8808L-28.935 39.3538C-29.284 39.481 -29.6125 39.6583 -29.9104 39.8801L-32.3222 41.675C-33.2394 42.3576 -34.556 41.9402 -34.9125 40.8537C-35.1619 40.0937 -34.8389 39.2635 -34.1413 38.8718L-33.4018 38.4568C-32.665 38.0432 -32.2089 37.2641 -32.2089 36.4194C-32.2089 35.6884 -31.8669 34.9996 -31.2846 34.5578L-27.8584 31.9584C-27.5751 31.7438 -27.3466 31.4652 -27.1912 31.1459C-26.7463 30.2314 -25.7462 29.726 -24.7463 29.9105L-23.097 30.2148C-21.7164 30.4694 -20.33 29.7997 -19.6713 28.5598L-19.3343 27.9257C-19.0669 27.4223 -19.0544 26.822 -19.3007 26.3079C-19.9255 25.0029 -21.7585 24.9354 -22.4777 26.1909L-23.0815 27.245C-23.5544 28.0707 -24.6831 28.2213 -25.3559 27.5483L-25.4374 27.4667C-25.6561 27.2481 -25.9527 27.1253 -26.2618 27.1253C-26.9056 27.1253 -27.4276 26.6033 -27.4276 25.9595V24.1741C-27.4276 23.5558 -27.2335 22.9532 -26.8728 22.4513L-23.9569 18.3957C-22.3963 16.2252 -19.6883 15.1991 -17.081 15.7907L-14.3691 16.4063C-13.909 16.5107 -13.5306 16.8369 -13.3597 17.2765L-13.3412 17.3243C-13.0748 18.0094 -13.3978 18.7828 -14.0727 19.0745L-14.4372 19.2323C-14.7165 19.3529 -14.8973 19.628 -14.8973 19.9323C-14.8973 20.3536 -14.5557 20.6952 -14.1344 20.6952H-13.241C-12.4476 20.6952 -11.7657 20.1326 -11.6149 19.3537L-11.4894 18.7049C-11.3201 17.83 -10.6904 17.1155 -9.84377 16.8373L-5.37641 15.37C-4.33357 15.0275 -3.55965 14.1447 -3.35626 13.0659C-3.12465 11.8359 -2.15644 10.8774 -0.924332 10.6579L-0.455498 10.5746C0.503052 10.4039 1.35585 9.86236 1.91806 9.06738L6.41809 2.70381C7.42458 1.28068 9.17869 0.588937 10.8856 0.942157L11.2541 1.01833C12.2714 1.22887 13.1463 1.87267 13.6497 2.78134C14.4927 4.30287 16.3109 4.99366 17.9516 4.41539L19.2732 3.94984C20.2897 3.5916 21.4136 3.71224 22.331 4.27793C23.4656 4.9776 24.8955 4.98631 26.0385 4.30036L27.6726 3.31997C28.9685 2.54257 30.4892 2.22589 31.9878 2.42174L36.7894 3.0493C38.461 3.26777 40.1604 3.01605 41.6968 2.32275C43.1106 1.68495 44.6643 1.42008 46.2096 1.55367L51.5887 2.01845C52.3079 2.08051 52.9347 2.53232 53.2212 3.19488C53.4803 3.79383 53.4246 4.48229 53.0729 5.03193L52.6688 5.66317C52.1638 6.45235 52.0098 7.41612 52.2439 8.32343L52.4556 9.14316C52.6534 9.91012 52.6773 10.7115 52.5258 11.4891L52.1064 13.6376C51.9637 14.3692 51.4518 14.9741 50.7539 15.2357C49.8572 15.5721 49.2919 16.462 49.3686 17.4169L49.9504 24.6485C49.983 25.0539 49.6985 25.4162 49.2967 25.4804C48.916 25.5413 48.5479 25.3145 48.431 24.947L47.1929 21.0521C46.5175 18.9278 44.3211 17.681 42.1507 18.1904C41.157 18.4236 40.2796 19.0053 39.678 19.8301L39.19 20.4992C37.9442 22.2073 37.6066 24.4144 38.285 26.4167L39.717 30.644C40.2682 32.2707 39.892 34.0685 38.7349 35.3377L37.904 36.2489C37.461 36.7347 37.2634 37.3959 37.3675 38.0451L37.4527 38.5784C37.6505 39.8147 36.5489 40.8659 35.3233 40.6105C34.0458 40.3445 32.9229 41.4925 33.2176 42.7638L34.0698 46.442C34.4389 48.0347 33.8504 49.697 32.5614 50.7027L31.0383 51.8909C30.1772 52.5627 29.6738 53.594 29.6738 54.6861V56.6411C29.6738 57.5196 28.9617 58.2315 28.0834 58.2315H26.9638C26.4979 58.2315 26.1561 58.6694 26.269 59.1214C26.4592 59.8823 25.4641 60.3516 24.9982 59.7207L20.9687 54.2654C20.4015 53.4977 19.3813 53.2201 18.5033 53.5946L17.1605 54.1676C16.3318 54.521 15.6509 55.1501 15.2329 55.9482L13.2601 59.7143C13.0728 60.072 12.5765 60.1122 12.3341 59.7893L7.89012 53.8755C6.48091 52.0003 4.47025 50.6665 2.19472 50.0977L-0.334274 49.2705C-1.26402 48.9664 -2.00004 50.0848 -1.35275 50.8183C-1.26054 50.9229 -1.14647 51.0062 -1.01887 51.0623L-0.935349 51.0988C-0.0150833 51.5029 0.173805 52.7263 -0.582123 53.3889L-1.76958 54.43C-2.49632 55.0672 -3.53645 55.2012 -4.40085 54.7689L-5.42474 54.2569C-7.10365 53.4175 -8.95559 55.0366 -8.34795 56.8126C-8.05775 57.6613 -7.25987 58.2315 -6.363 58.2315H-6.30558C-4.73378 58.2315 -3.67914 59.8454 -4.31056 61.285L-6.86972 67.1198C-7.01839 67.4589 -7.1371 67.8104 -7.22449 68.1702L-8.39725 72.9994C-8.76922 74.5308 -9.46618 75.9646 -10.441 77.2031L-15.1119 83.1382C-15.8439 84.0683 -16.9621 84.6114 -18.1459 84.6114C-19.1955 84.6114 -20.1999 84.1842 -20.9276 83.4278L-21.9615 82.3537C-23.2824 80.9814 -24.0203 79.1507 -24.0203 77.246V71.6413L-24.6021 66.915C-24.7936 65.3585 -25.5558 63.9282 -26.7409 62.901C-27.6902 62.0782 -28.8627 61.5562 -30.1094 61.4014L-30.5757 61.3434C-34.5222 60.8531 -37.485 57.4991 -37.485 53.5223ZM-68.2374 7.77437L-69.0792 8.94055C-69.9175 10.1017 -71.6838 9.97895 -72.3531 8.71281C-72.8325 7.80588 -72.5195 6.68242 -71.6403 6.15423L-70.4074 5.41338C-69.9521 5.13981 -69.3922 5.10424 -68.9057 5.31806C-67.9518 5.7374 -67.6276 6.9295 -68.2374 7.77437ZM-66.0094 9.63307L-66.8585 10.2307C-67.2212 10.4859 -67.4372 10.9017 -67.4372 11.3454C-67.4372 11.8266 -67.1833 12.2723 -66.7694 12.5178L-64.6737 13.7605C-63.4568 14.4821 -62.7108 15.7919 -62.7108 17.2067V17.4391C-62.7108 18.0578 -62.5323 18.6635 -62.1969 19.1834L-61.7143 19.9314C-61.0438 20.9705 -59.6706 21.292 -58.6086 20.6581C-57.7206 20.1282 -57.2965 19.0701 -57.5725 18.0736L-58.9847 12.9775C-59.3947 11.4982 -60.4526 10.284 -61.862 9.67542L-62.7405 9.2959C-63.8147 8.83209 -65.0526 8.95988 -66.0094 9.63307ZM-46.7787 -2.7621L-55.0793 2.10641C-55.7894 2.52285 -56.2258 3.28459 -56.2258 4.1078C-56.2258 4.70133 -55.9982 5.27224 -55.5903 5.70319L-54.1411 7.2338C-52.3881 9.08536 -51.6784 11.6915 -52.2509 14.1762L-53.4677 19.4585C-53.6475 20.2388 -53.4567 21.0583 -52.9509 21.6791C-52.0546 22.779 -50.4409 22.9545 -49.329 22.0731L-43.8028 17.6922C-41.8296 16.1281 -40.5389 13.8605 -40.2012 11.3653L-39.9436 9.46198C-39.8073 8.45548 -39.5322 7.47257 -39.1262 6.54167L-38.0944 4.17605C-37.6957 3.26197 -37.5536 2.25624 -37.6836 1.26734C-37.9916 -1.07837 -39.7681 -2.96279 -42.0918 -3.40803L-42.5351 -3.4931C-43.9915 -3.77208 -45.4997 -3.51243 -46.7787 -2.7621ZM-109.177 19.3485C-109.937 15.2716 -109.266 6.84462 -101.108 3.25133C-100.939 3.1767 -100.77 3.09802 -100.6 3.01914L-100.6 3.01894C-99.8849 2.68699 -99.1601 2.3502 -98.384 2.29394C-96.777 2.17794 -94.2761 3.04969 -91.4104 6.6917C-91.3063 6.82394 -91.2075 6.95192 -91.112 7.07566C-90.4266 7.96306 -89.9112 8.63064 -88.8095 9.12751C-86.7146 10.0721 -85.3144 8.18868 -83.9076 6.29633C-82.5048 4.4094 -81.0956 2.51357 -78.9844 3.40503C-78.394 3.65424 -77.6649 4.14917 -76.7715 4.95441C-75.836 5.79773 -75.162 6.89451 -74.6866 8.06089L-73.6788 10.5319C-73.307 11.4442 -72.5872 12.1708 -71.6785 12.5512C-69.2704 13.5599 -68.6318 16.6756 -70.4491 18.5502L-72.7471 20.9203C-74.2044 22.4234 -74.1364 24.8324 -72.5963 26.2508L-71.7162 27.0615C-70.4006 28.2733 -68.2989 27.9421 -67.4196 26.3844C-66.4257 24.6238 -63.9427 24.483 -62.7562 26.1203L-60.8408 28.763C-59.3516 30.818 -59.6903 33.6719 -61.619 35.3213L-72.8758 44.9473C-73.4354 45.4257 -73.7573 46.1247 -73.7573 46.8608C-73.7573 48.6454 -75.5626 49.8634 -77.2175 49.1954L-78.3779 48.727C-80.3998 47.9106 -82.6055 49.3988 -82.6055 51.5793C-82.6055 52.6405 -82.0586 53.6269 -81.1584 54.1887L-75.9363 57.4489C-74.1285 58.5773 -71.9285 58.8909 -69.8772 58.3125C-67.8326 57.7358 -65.6396 58.0455 -63.8344 59.166L-53.3788 65.6568C-50.7949 67.2609 -50.0051 70.6585 -51.6163 73.2378L-61.5204 89.0923C-62.055 89.948 -62.4691 90.8733 -62.7514 91.8421L-63.5232 94.4923C-63.8178 95.5034 -63.8072 96.5789 -63.4932 97.5841L-62.5638 100.558C-62.4223 101.011 -62.5903 101.504 -62.9793 101.776C-63.5108 102.148 -64.2476 101.976 -64.5602 101.408L-68.1736 94.8347C-68.8081 93.6803 -69.1408 92.3842 -69.1408 91.067V79.5942C-69.1408 77.2199 -70.123 74.9513 -71.8541 73.3264L-72.8983 72.3464C-74.454 70.8863 -75.1288 68.7165 -74.6754 66.6318C-74.1259 64.1038 -75.2392 61.5056 -77.4482 60.1596L-84.7211 55.728C-85.2819 55.3864 -85.7573 54.9214 -86.1114 54.3685L-91.3107 46.2471C-91.6302 45.7481 -92.397 45.9078 -92.4906 46.4928C-92.5957 47.1496 -93.5054 47.2368 -93.7333 46.6121L-95.8656 40.7667C-95.9998 40.3988 -96.0361 40.0023 -95.9711 39.616L-94.8325 32.8532C-94.4577 30.6275 -94.7772 28.3404 -95.7476 26.3025L-98.6474 20.213C-99.3225 18.7953 -100.753 17.8923 -102.323 17.8923H-102.459C-103.236 17.8923 -103.992 18.1397 -104.619 18.5985L-106.866 20.2451C-107.637 20.8095 -108.732 20.5015 -109.096 19.6185C-109.132 19.5304 -109.159 19.442 -109.177 19.3485ZM31.4286 62.9341L31.0561 63.373C30.3108 64.2509 30.3788 65.5576 31.2115 66.3534L31.5725 66.6983C31.9597 67.0682 32.5196 67.1936 33.0275 67.0243C33.6176 66.8276 34.0155 66.2757 34.0155 65.6537V63.8841C34.0155 63.3471 33.722 62.8529 33.2504 62.5956C32.6397 62.2625 31.8789 62.4038 31.4286 62.9341ZM31.0478 81.0809V82.3166C31.0478 84.6768 32.9608 86.5898 35.321 86.5898C35.8028 86.5898 36.2811 86.5084 36.7359 86.3489L37.428 86.1061C38.5576 85.7095 39.7936 85.7405 40.9022 86.1931C41.5431 86.4547 42.1213 86.8491 42.5987 87.3504L44.5633 89.4132C44.9633 89.8332 45.4577 90.1518 46.0054 90.3426C47.634 90.9102 49.4377 90.2604 50.3301 88.7845L51.093 87.5226C51.4653 86.9069 51.7124 86.2236 51.8203 85.5122L52.2845 82.4482C52.4121 81.606 52.2559 80.7455 51.8402 80.0022L48.6684 74.328C48.2376 73.5576 47.0954 73.6718 46.8257 74.5123C46.6917 74.9301 46.3031 75.2135 45.8645 75.2135H45.5936C45.0383 75.2135 44.537 74.881 44.3211 74.3694L44.1332 73.9238C43.6361 72.7456 42.2138 72.2767 41.1135 72.9287L37.9158 74.8237C37.4794 75.0822 37.0086 75.2775 36.5174 75.4037L35.1872 75.745C32.7511 76.3702 31.0478 78.5659 31.0478 81.0809ZM23.9028 64.7569L25.6126 67.449C25.8145 67.7667 26.1646 67.959 26.5408 67.959C27.1481 67.959 27.6403 67.4668 27.6403 66.8596V66.7613C27.6403 66.4706 27.5345 66.1898 27.3429 65.9714L25.3358 63.6833C25.073 63.3836 24.644 63.2931 24.2827 63.4609C23.7904 63.6895 23.6118 64.2988 23.9028 64.7569ZM-6.7371 76.6213L-4.99535 73.9495C-4.69917 73.4949 -4.07044 73.405 -3.65865 73.7583C-3.35608 74.0177 -3.26077 74.4456 -3.42451 74.8088L-4.67538 77.5837C-4.79486 77.8488 -5.00657 78.0613 -5.27105 78.1817L-5.36057 78.2223C-5.91311 78.4741 -6.56522 78.2301 -6.81675 77.6773C-6.97277 77.3349 -6.94261 76.9365 -6.7371 76.6213ZM46.2898 69.3035L46.5123 69.5078C46.852 69.8197 47.2963 69.9925 47.7574 69.9925H48.814C49.2747 69.9925 49.7296 70.0946 50.1462 70.2916L51.823 71.0843C52.2344 71.2788 52.7263 71.1469 52.9855 70.7728C53.2819 70.3444 53.169 69.7561 52.7348 69.468L48.4078 66.5976C48.1255 66.4102 47.7939 66.3103 47.455 66.3103C45.8838 66.3103 45.1321 68.2411 46.2898 69.3035ZM58.9647 96.3992L56.4315 98.5428C56.1419 98.7878 56.0471 99.1936 56.1985 99.5414C56.3679 99.9312 56.7971 100.138 57.2079 100.029L57.9923 99.8198C58.5976 99.6584 59.0757 99.1942 59.2549 98.5941L59.7558 96.9169C59.8962 96.4469 59.3392 96.0825 58.9647 96.3992ZM61.0655 93.6049L62.0302 90.4296C62.1727 89.9602 62.8386 89.9641 62.9756 90.435L63.465 92.1157C63.6401 92.7171 63.4905 93.3663 63.0696 93.8303L62.5242 94.4318C62.2386 94.7467 61.7657 94.8055 61.4117 94.57C61.096 94.3599 60.9553 93.9678 61.0655 93.6049Z" fill="#A7CF75"/>
</g>
<g filter="url(#filter1_d_30_754)">
<path fill-rule="evenodd" clip-rule="evenodd" d="M111.491 5.12918L116.512 0.624321C118.724 -1.36102 117.434 -5.0303 114.465 -5.19444C113.281 -5.25978 112.15 -4.69196 111.497 -3.70287L110.785 -2.62735C110.405 -2.05141 110.267 -1.34749 110.405 -0.670821L110.493 -0.241815C110.671 0.636498 110.25 1.52777 109.457 1.94672L109.322 2.01845C108.16 2.63247 107.951 4.20872 108.912 5.10482C109.635 5.77916 110.754 5.7898 111.491 5.12918ZM108.593 -1.02926L108.102 -2.1593C107.746 -2.97845 106.725 -3.26014 105.998 -2.73949C105.629 -2.47462 105.413 -2.04716 105.415 -1.59264L105.422 -0.360518C105.426 0.518955 106.118 1.24086 106.996 1.283C108.222 1.34158 109.082 0.0949721 108.593 -1.02926ZM101.196 1.94189L101.919 0.943319C102.441 0.219479 102.163 -0.802481 101.345 -1.16169C100.929 -1.34439 100.45 -1.31404 100.061 -1.08011L99.0037 -0.44617C98.2497 0.00623035 97.9829 0.969613 98.3927 1.74681C98.9669 2.83025 100.479 2.93543 101.196 1.94189ZM136.514 53.5223V53.1922C136.514 50.5877 137.744 48.1358 139.832 46.5775L140.681 45.9438C143.128 44.117 146.254 43.4618 149.23 44.1527L149.98 44.3271L156.998 45.9509C157.226 46.0037 157.464 46.013 157.694 45.9784L159.041 45.7773C160.182 45.6066 160.551 44.1425 159.625 43.4525C159.297 43.2075 159.103 42.8216 159.103 42.4116V42.3217C159.103 41.6307 159.583 41.032 160.256 40.8804L161.98 40.4931C163.036 40.2557 163.629 39.129 163.227 38.1235C162.96 37.4557 162.313 37.0178 161.593 37.0178H160.824C159.763 37.0178 158.788 37.5982 158.28 38.5306L157.827 39.365C157.762 39.4855 157.688 39.6007 157.605 39.7103C156.404 41.3113 153.964 41.1855 152.934 39.4694L152.758 39.1759C152.006 37.923 150.471 37.3799 149.1 37.8808L145.065 39.3538C144.715 39.481 144.387 39.6583 144.089 39.8801L141.678 41.675C140.76 42.3576 139.443 41.9402 139.087 40.8537C138.838 40.0937 139.161 39.2635 139.859 38.8718L140.597 38.4568C141.334 38.0432 141.79 37.2641 141.79 36.4194C141.79 35.6884 142.132 34.9996 142.714 34.5578L146.142 31.9584C146.424 31.7438 146.653 31.4652 146.809 31.1459C147.254 30.2314 148.253 29.726 149.253 29.9105L150.902 30.2148C152.284 30.4694 153.671 29.7997 154.328 28.5598L154.666 27.9257C154.933 27.4223 154.945 26.822 154.699 26.3079C154.075 25.0029 152.242 24.9354 151.523 26.1909L150.919 27.245C150.446 28.0707 149.317 28.2213 148.644 27.5483L148.563 27.4667C148.344 27.2481 148.047 27.1253 147.737 27.1253C147.093 27.1253 146.571 26.6033 146.571 25.9595V24.1741C146.571 23.5558 146.767 22.9532 147.128 22.4513L150.044 18.3957C151.604 16.2252 154.312 15.1991 156.919 15.7907L159.631 16.4063C160.091 16.5107 160.47 16.8369 160.64 17.2765L160.66 17.3243C160.924 18.0094 160.602 18.7828 159.927 19.0745L159.563 19.2323C159.283 19.3529 159.103 19.628 159.103 19.9323C159.103 20.3536 159.444 20.6952 159.865 20.6952H160.758C161.553 20.6952 162.235 20.1326 162.384 19.3537L162.51 18.7049C162.68 17.83 163.31 17.1155 164.157 16.8373L168.623 15.37C169.667 15.0275 170.44 14.1447 170.643 13.0659C170.875 11.8359 171.844 10.8774 173.075 10.6579L173.545 10.5746C174.502 10.4039 175.355 9.86236 175.917 9.06738L180.418 2.70381C181.426 1.28068 183.179 0.588937 184.886 0.942157L185.254 1.01833C186.27 1.22887 187.146 1.87267 187.649 2.78134C188.492 4.30287 190.311 4.99366 191.953 4.41539L193.273 3.94984C194.29 3.5916 195.413 3.71224 196.332 4.27793C197.466 4.9776 198.895 4.98631 200.038 4.30036L201.673 3.31997C202.969 2.54257 204.488 2.22589 205.989 2.42174L210.789 3.0493C212.461 3.26777 214.161 3.01605 215.698 2.32275C217.111 1.68495 218.663 1.42008 220.21 1.55367L225.589 2.01845C226.308 2.08051 226.934 2.53232 227.22 3.19488C227.479 3.79383 227.425 4.48229 227.073 5.03193L226.669 5.66317C226.163 6.45235 226.01 7.41612 226.244 8.32343L226.455 9.14316C226.654 9.91012 226.677 10.7115 226.526 11.4891L226.107 13.6376C225.964 14.3692 225.451 14.9741 224.753 15.2357C223.856 15.5721 223.292 16.462 223.369 17.4169L223.951 24.6485C223.984 25.0539 223.698 25.4162 223.298 25.4804C222.917 25.5413 222.548 25.3145 222.432 24.947L221.192 21.0521C220.518 18.9278 218.321 17.681 216.15 18.1904C215.156 18.4236 214.279 19.0053 213.677 19.8301L213.19 20.4992C211.943 22.2073 211.607 24.4144 212.285 26.4167L213.718 30.644C214.269 32.2707 213.892 34.0685 212.734 35.3377L211.905 36.2489C211.462 36.7347 211.263 37.3959 211.367 38.0451L211.452 38.5784C211.651 39.8147 210.549 40.8659 209.324 40.6105C208.046 40.3445 206.922 41.4925 207.218 42.7638L208.071 46.442C208.438 48.0347 207.85 49.697 206.561 50.7027L205.037 51.8909C204.177 52.5627 203.674 53.594 203.674 54.6861V56.6411C203.674 57.5196 202.961 58.2315 202.083 58.2315H200.964C200.498 58.2315 200.156 58.6694 200.27 59.1214C200.459 59.8823 199.464 60.3516 198.998 59.7207L194.969 54.2654C194.402 53.4977 193.381 53.2201 192.504 53.5946L191.16 54.1676C190.332 54.521 189.652 55.1501 189.232 55.9482L187.26 59.7143C187.073 60.072 186.576 60.1122 186.334 59.7893L181.89 53.8755C180.48 52.0003 178.469 50.6665 176.194 50.0977L173.665 49.2705C172.735 48.9664 172.001 50.0848 172.646 50.8183C172.739 50.9229 172.853 51.0062 172.981 51.0623L173.064 51.0988C173.984 51.5029 174.174 52.7263 173.418 53.3889L172.231 54.43C171.504 55.0672 170.464 55.2012 169.599 54.7689L168.575 54.2569C166.897 53.4175 165.044 55.0366 165.651 56.8126C165.941 57.6613 166.74 58.2315 167.637 58.2315H167.695C169.267 58.2315 170.32 59.8454 169.69 61.285L167.13 67.1198C166.982 67.4589 166.864 67.8104 166.775 68.1702L165.603 72.9994C165.23 74.5308 164.534 75.9646 163.56 77.2031L158.889 83.1382C158.156 84.0683 157.038 84.6114 155.853 84.6114C154.805 84.6114 153.8 84.1842 153.073 83.4278L152.039 82.3537C150.718 80.9814 149.98 79.1507 149.98 77.246V71.6413L149.398 66.915C149.207 65.3585 148.445 63.9282 147.26 62.901C146.31 62.0782 145.137 61.5562 143.89 61.4014L143.424 61.3434C139.478 60.8531 136.514 57.4991 136.514 53.5223ZM105.763 7.77437L104.922 8.94055C104.083 10.1017 102.315 9.97895 101.647 8.71281C101.167 7.80588 101.48 6.68242 102.36 6.15423L103.593 5.41338C104.048 5.13981 104.608 5.10424 105.094 5.31806C106.049 5.7374 106.372 6.9295 105.763 7.77437ZM107.99 9.63307L107.141 10.2307C106.78 10.4859 106.563 10.9017 106.563 11.3454C106.563 11.8266 106.816 12.2723 107.23 12.5178L109.326 13.7605C110.544 14.4821 111.29 15.7919 111.29 17.2067V17.4391C111.29 18.0578 111.468 18.6635 111.802 19.1834L112.286 19.9314C112.957 20.9705 114.329 21.292 115.391 20.6581C116.28 20.1282 116.703 19.0701 116.427 18.0736L115.016 12.9775C114.606 11.4982 113.548 10.284 112.139 9.67542L111.259 9.2959C110.186 8.83209 108.947 8.95988 107.99 9.63307ZM127.221 -2.7621L118.921 2.10641C118.211 2.52285 117.774 3.28459 117.774 4.1078C117.774 4.70133 118.003 5.27224 118.41 5.70319L119.859 7.2338C121.612 9.08536 122.322 11.6915 121.749 14.1762L120.531 19.4585C120.353 20.2388 120.543 21.0583 121.049 21.6791C121.945 22.779 123.559 22.9545 124.671 22.0731L130.198 17.6922C132.17 16.1281 133.461 13.8605 133.798 11.3653L134.057 9.46198C134.192 8.45548 134.467 7.47257 134.873 6.54167L135.905 4.17605C136.303 3.26197 136.447 2.25624 136.317 1.26734C136.008 -1.07837 134.231 -2.96279 131.909 -3.40803L131.464 -3.4931C130.009 -3.77208 128.501 -3.51243 127.221 -2.7621ZM64.8231 19.3485C64.0631 15.2716 64.734 6.84462 72.8917 3.25133C73.0611 3.1767 73.2304 3.09802 73.4004 3.01914V3.01894H73.4006C74.1151 2.68699 74.8399 2.3502 75.616 2.29394C77.2229 2.17794 79.7239 3.04969 82.5897 6.6917C82.6937 6.82394 82.7925 6.95192 82.888 7.07566C83.5734 7.96306 84.0888 8.63064 85.1906 9.12751C87.2854 10.0721 88.6857 8.18868 90.0929 6.29633C91.4946 4.4094 92.904 2.51357 95.0152 3.40503C95.6068 3.65424 96.3357 4.14917 97.2289 4.95441C98.1646 5.79773 98.8374 6.89451 99.313 8.06089L100.32 10.5319C100.693 11.4442 101.413 12.1708 102.321 12.5512C104.73 13.5599 105.368 16.6756 103.551 18.5502L101.252 20.9203C99.7964 22.4234 99.864 24.8324 101.403 26.2508L102.285 27.0615C103.599 28.2733 105.701 27.9421 106.58 26.3844C107.574 24.6238 110.057 24.483 111.244 26.1203L113.16 28.763C114.648 30.818 114.31 33.6719 112.38 35.3213L101.125 44.9473C100.564 45.4257 100.243 46.1247 100.243 46.8608C100.243 48.6454 98.4372 49.8634 96.7823 49.1954L95.6223 48.727C93.6 47.9106 91.3941 49.3988 91.3941 51.5793C91.3941 52.6405 91.9412 53.6269 92.8422 54.1887L98.0641 57.4489C99.8718 58.5773 102.072 58.8909 104.123 58.3125C106.167 57.7358 108.361 58.0455 110.165 59.166L120.62 65.6568C123.205 67.2609 123.996 70.6585 122.383 73.2378L112.479 89.0923C111.945 89.948 111.532 90.8733 111.249 91.8421L110.476 94.4923C110.182 95.5034 110.192 96.5789 110.507 97.5841L111.437 100.558C111.578 101.011 111.41 101.504 111.021 101.776C110.49 102.148 109.753 101.976 109.44 101.408L105.826 94.8347C105.192 93.6803 104.86 92.3842 104.86 91.067V79.5942C104.86 77.2199 103.878 74.9513 102.145 73.3264L101.101 72.3464C99.547 70.8863 98.8722 68.7165 99.3246 66.6318C99.8737 64.1038 98.7601 61.5056 96.5522 60.1596L89.2788 55.728C88.7182 55.3864 88.2428 54.9214 87.8886 54.3685L82.6893 46.2471C82.3699 45.7481 81.6029 45.9078 81.5093 46.4928C81.4044 47.1496 80.4945 47.2368 80.2668 46.6121L78.1345 40.7667C78.0001 40.3988 77.9638 40.0023 78.029 39.616L79.1675 32.8532C79.5424 30.6275 79.2228 28.3404 78.2524 26.3025L75.3526 20.213C74.6775 18.7953 73.2472 17.8923 71.677 17.8923H71.5407C70.7641 17.8923 70.0077 18.1397 69.3813 18.5985L67.1336 20.2451C66.3634 20.8095 65.2678 20.5015 64.9041 19.6185C64.868 19.5304 64.8405 19.442 64.8231 19.3485ZM205.428 62.9341L205.057 63.373C204.31 64.2509 204.378 65.5576 205.211 66.3534L205.573 66.6983C205.96 67.0682 206.52 67.1936 207.027 67.0243C207.618 66.8276 208.015 66.2757 208.015 65.6537V63.8841C208.015 63.3471 207.723 62.8529 207.251 62.5956C206.64 62.2625 205.878 62.4038 205.428 62.9341ZM205.047 81.0809V82.3166C205.047 84.6768 206.961 86.5898 209.322 86.5898C209.803 86.5898 210.281 86.5084 210.735 86.3489L211.427 86.1061C212.558 85.7095 213.793 85.7405 214.901 86.1931C215.543 86.4547 216.121 86.8491 216.599 87.3504L218.563 89.4132C218.963 89.8332 219.458 90.1518 220.005 90.3426C221.633 90.9102 223.437 90.2604 224.33 88.7845L225.094 87.5226C225.465 86.9069 225.712 86.2236 225.821 85.5122L226.285 82.4482C226.412 81.606 226.256 80.7455 225.84 80.0022L222.667 74.328C222.238 73.5576 221.096 73.6718 220.825 74.5123C220.692 74.9301 220.303 75.2135 219.864 75.2135H219.593C219.039 75.2135 218.538 74.881 218.321 74.3694L218.134 73.9238C217.637 72.7456 216.214 72.2767 215.114 72.9287L211.916 74.8237C211.479 75.0822 211.009 75.2775 210.516 75.4037L209.186 75.745C206.75 76.3702 205.047 78.5659 205.047 81.0809ZM197.903 64.7569L199.612 67.449C199.813 67.7667 200.165 67.959 200.54 67.959C201.147 67.959 201.64 67.4668 201.64 66.8596V66.7613C201.64 66.4706 201.534 66.1898 201.343 65.9714L199.336 63.6833C199.073 63.3836 198.644 63.2931 198.282 63.4609C197.791 63.6895 197.611 64.2988 197.903 64.7569ZM167.262 76.6213L169.004 73.9495C169.302 73.4949 169.93 73.405 170.342 73.7583C170.643 74.0177 170.74 74.4456 170.576 74.8088L169.325 77.5837C169.205 77.8488 168.994 78.0613 168.729 78.1817L168.64 78.2223C168.087 78.4741 167.434 78.2301 167.183 77.6773C167.028 77.3349 167.057 76.9365 167.262 76.6213ZM220.289 69.3035L220.512 69.5078C220.852 69.8197 221.297 69.9925 221.757 69.9925H222.814C223.274 69.9925 223.729 70.0946 224.146 70.2916L225.823 71.0843C226.234 71.2788 226.725 71.1469 226.985 70.7728C227.282 70.3444 227.168 69.7561 226.735 69.468L222.408 66.5976C222.126 66.4102 221.794 66.3103 221.455 66.3103C219.883 66.3103 219.131 68.2411 220.289 69.3035ZM232.964 96.3992L230.432 98.5428C230.142 98.7878 230.047 99.1936 230.198 99.5414C230.368 99.9312 230.797 100.138 231.207 100.029L231.992 99.8198C232.597 99.6584 233.076 99.1942 233.254 98.5941L233.755 96.9169C233.896 96.4469 233.339 96.0825 232.964 96.3992ZM235.066 93.6049L236.031 90.4296C236.172 89.9602 236.839 89.9641 236.976 90.435L237.465 92.1157C237.639 92.7171 237.49 93.3663 237.069 93.8303L236.524 94.4318C236.239 94.7467 235.766 94.8055 235.412 94.57C235.097 94.3599 234.956 93.9678 235.066 93.6049Z" fill="#A7CF75"/>
</g>
<g opacity="0.6" filter="url(#filter2_f_30_754)">
<path d="M40.9066 -10.2896L40.4299 -9.66396C39.2795 -8.1548 37.306 -7.52918 35.4962 -8.10009C35.0581 -8.23832 34.6016 -8.3085 34.1423 -8.3085H30.2102C28.9961 -8.3085 27.8553 -7.72734 27.1415 -6.74482C25.908 -5.04716 26.2873 -2.67071 27.9881 -1.4413L30.0565 0.0541296C31.4282 1.04574 33.1393 1.44767 34.8091 1.17043L38.296 0.591401C38.8882 0.493188 39.4682 0.33253 40.0266 0.112516C43.1042 -1.10104 46.6059 -0.424179 49.0096 1.84884L52.2276 4.8921C52.8072 5.4402 53.436 5.93417 54.1057 6.36782C59.9356 10.1428 67.6995 8.70387 71.7893 3.09024L73.7176 0.443699C74.7916 -1.03066 75.1771 -2.89672 74.7749 -4.67596L74.0969 -7.67534C73.6476 -9.66377 71.5965 -10.8454 69.6508 -10.2366C68.932 -10.0118 68.305 -9.56034 67.864 -8.94998L67.6638 -8.67275C66.5092 -7.07504 64.4521 -6.40997 62.5806 -7.02961L49.4831 -11.3666L47.3034 -12.162C44.9912 -13.0059 42.3988 -12.2471 40.9066 -10.2896Z" fill="white"/>
<path d="M-1.14239 45.3889L-1.61914 46.0143C-2.76947 47.5237 -4.74303 48.1491 -6.55282 47.5784L-6.63673 47.5519C-7.01914 47.4313 -7.41779 47.3698 -7.81876 47.3698H-9.08394C-11.3042 47.3698 -12.8017 49.6387 -11.9294 51.6801C-10.7215 54.9326 -7.3768 56.8715 -3.95422 56.3033L-3.65707 56.254C-3.12869 56.1662 -2.61095 56.023 -2.11273 55.8266L-2.02245 55.7908C1.05523 54.5774 4.55689 55.2543 6.96061 57.5273L10.1786 60.5704C10.7584 61.1187 11.387 61.6126 12.0567 62.0463C17.8866 65.8213 25.6505 64.3823 29.7403 58.7687L30.6039 57.5836C32.3545 55.1804 32.9827 52.1387 32.3273 49.2389C31.6247 46.1307 29.5245 43.5219 26.6381 42.172L26.4784 42.0974C23.9227 40.4925 20.7909 40.0915 17.9133 41.0008L9.38055 43.6968C8.11847 44.0957 6.75992 44.0657 5.5164 43.6119L5.25444 43.5162C2.94217 42.6723 0.349755 43.4314 -1.14239 45.3889Z" fill="white"/>
<path d="M99.4291 82.9875L78.4343 88.1093C76.8546 88.4946 75.1994 88.4397 73.6487 87.9506L72.9191 87.7205C72.5366 87.5999 72.138 87.5384 71.737 87.5384H70.4718C68.2518 87.5384 66.754 89.8074 67.6266 91.8488C68.8343 95.1012 72.179 97.0402 75.6016 96.472L76.6935 96.2906L94.9032 94.7461C100.719 94.2529 106.466 96.2634 110.706 100.273L111.199 100.739C111.779 101.287 112.408 101.781 113.078 102.215C118.907 105.99 126.672 104.551 130.761 98.9373L131.625 97.7522C133.377 95.3491 134.005 92.3074 133.349 89.4076C132.646 86.2993 130.546 83.6905 127.66 82.3407L127.499 82.266C124.943 80.6612 121.811 80.2602 118.935 81.1694L111.712 83.4517C109.6 84.1187 107.327 84.0689 105.248 83.3098C103.383 82.6293 101.359 82.5172 99.4291 82.9875Z" fill="white"/>
</g>
<g opacity="0.4" filter="url(#filter3_f_30_754)">
<path d="M5.07623 -35.587C-42.9066 15.7743 -13.3997 99.8888 56.1541 110.019L78.4545 113.267L-119.155 91.6462L5.07623 -35.587Z" fill="#1E819A"/>
</g>
</g>
</g>
<defs>
<filter id="filter0_d_30_754" x="-129.414" y="-21.1995" width="212.95" height="147.173" filterUnits="userSpaceOnUse" color-interpolation-filters="sRGB">
<feFlood flood-opacity="0" result="BackgroundImageFix"/>
<feColorMatrix in="SourceAlpha" type="matrix" values="0 0 0 0 0 0 0 0 0 0 0 0 0 0 0 0 0 0 127 0" result="hardAlpha"/>
<feOffset dy="4"/>
<feGaussianBlur stdDeviation="10"/>
<feComposite in2="hardAlpha" operator="out"/>
<feColorMatrix type="matrix" values="0 0 0 0 0.160417 0 0 0 0 0.619952 0 0 0 0 0.7 0 0 0 1 0"/>
<feBlend mode="normal" in2="BackgroundImageFix" result="effect1_dropShadow_30_754"/>
<feBlend mode="normal" in="SourceGraphic" in2="effect1_dropShadow_30_754" result="shape"/>
</filter>
<filter id="filter1_d_30_754" x="44.5864" y="-21.1995" width="212.95" height="147.173" filterUnits="userSpaceOnUse" color-interpolation-filters="sRGB">
<feFlood flood-opacity="0" result="BackgroundImageFix"/>
<feColorMatrix in="SourceAlpha" type="matrix" values="0 0 0 0 0 0 0 0 0 0 0 0 0 0 0 0 0 0 127 0" result="hardAlpha"/>
<feOffset dy="4"/>
<feGaussianBlur stdDeviation="10"/>
<feComposite in2="hardAlpha" operator="out"/>
<feColorMatrix type="matrix" values="0 0 0 0 0.160417 0 0 0 0 0.619952 0 0 0 0 0.7 0 0 0 1 0"/>
<feBlend mode="normal" in2="BackgroundImageFix" result="effect1_dropShadow_30_754"/>
<feBlend mode="normal" in="SourceGraphic" in2="effect1_dropShadow_30_754" result="shape"/>
</filter>
<filter id="filter2_f_30_754" x="-83.009" y="-32.5031" width="236.612" height="156.82" filterUnits="userSpaceOnUse" color-interpolation-filters="sRGB">
<feFlood flood-opacity="0" result="BackgroundImageFix"/>
<feBlend mode="normal" in="SourceGraphic" in2="BackgroundImageFix" result="shape"/>
<feGaussianBlur stdDeviation="10" result="effect1_foregroundBlur_30_754"/>
</filter>
<filter id="filter3_f_30_754" x="-159.155" y="-75.587" width="277.609" height="228.854" filterUnits="userSpaceOnUse" color-interpolation-filters="sRGB">
<feFlood flood-opacity="0" result="BackgroundImageFix"/>
<feBlend mode="normal" in="SourceGraphic" in2="BackgroundImageFix" result="shape"/>
<feGaussianBlur stdDeviation="20" result="effect1_foregroundBlur_30_754"/>
</filter>
<linearGradient id="paint0_linear_30_754" x1="-16.2387" y1="46.0855" x2="82.459" y2="37.6998" gradientUnits="userSpaceOnUse">
<stop stop-color="#228EA9"/>
<stop offset="1" stop-color="#02DEFE"/>
</linearGradient>
<clipPath id="clip0_30_754">
<rect width="71" height="88" fill="white"/>
</clipPath>
</defs>
</svg>
