<svg width="258" height="256" viewBox="0 0 258 256" fill="none" xmlns="http://www.w3.org/2000/svg">
<mask id="mask0_9_4230" style="mask-type:luminance" maskUnits="userSpaceOnUse" x="3" y="5" width="250" height="250">
<path d="M252.5 129.585C252.5 60.8255 196.759 5.08496 128 5.08496C59.2405 5.08496 3.5 60.8255 3.5 129.585C3.5 198.344 59.2405 254.085 128 254.085C196.759 254.085 252.5 198.344 252.5 129.585Z" fill="white"/>
</mask>
<g mask="url(#mask0_9_4230)">
<path d="M252.5 129.585C252.5 60.8255 196.759 5.08496 128 5.08496C59.2405 5.08496 3.5 60.8255 3.5 129.585C3.5 198.344 59.2405 254.085 128 254.085C196.759 254.085 252.5 198.344 252.5 129.585Z" fill="url(#paint0_linear_9_4230)"/>
<g filter="url(#filter0_d_9_4230)">
<path fill-rule="evenodd" clip-rule="evenodd" d="M-31.9381 46.5617L-21.1614 36.8918C-16.4121 32.6302 -19.181 24.7539 -25.5525 24.4015C-28.0944 24.2613 -30.52 25.4801 -31.9248 27.6033L-33.452 29.9119C-34.27 31.1482 -34.5634 32.6592 -34.2675 34.1117L-34.0799 35.0326C-33.6956 36.9179 -34.6007 38.8311 -36.3018 39.7304L-36.5931 39.8844C-39.0864 41.2024 -39.5359 44.5859 -37.4729 46.5094C-35.9196 47.9569 -33.5184 47.9798 -31.9381 46.5617ZM-38.1569 33.3423L-39.211 30.9166C-39.9754 29.1583 -42.1674 28.5536 -43.7253 29.6712C-44.518 30.2398 -44.9857 31.1573 -44.9803 32.133L-44.9653 34.7778C-44.955 36.6656 -43.4697 38.2152 -41.5843 38.3057C-38.9557 38.4314 -37.1077 35.7555 -38.1569 33.3423ZM-54.0343 39.72L-52.4851 37.5766C-51.3617 36.0228 -51.9585 33.8291 -53.714 33.058C-54.6075 32.6659 -55.6354 32.731 -56.472 33.2332L-58.74 34.5939C-60.3589 35.565 -60.935 37.633 -60.0518 39.3013C-58.8205 41.627 -55.5761 41.8527 -54.0343 39.72ZM21.7783 150.44V149.732C21.7783 144.141 24.4169 138.878 28.8972 135.533L30.7195 134.172C35.9717 130.251 42.6856 128.845 49.0699 130.328L50.681 130.702L65.748 134.188C66.2376 134.301 66.7444 134.321 67.2415 134.247L70.1316 133.815C72.5822 133.449 73.3719 130.306 71.3853 128.825C70.6798 128.299 70.264 127.471 70.264 126.59V126.397C70.264 124.914 71.2928 123.629 72.7399 123.304L76.4396 122.472C78.7076 121.963 79.9808 119.544 79.1176 117.386C78.5441 115.952 77.1559 115.012 75.6117 115.012H73.96C71.6824 115.012 69.5871 116.258 68.4994 118.26L67.5258 120.051C67.3851 120.309 67.2262 120.557 67.0502 120.792C64.4722 124.229 59.2341 123.958 57.0238 120.275L56.6458 119.645C55.0322 116.955 51.7375 115.79 48.7915 116.865L40.1312 120.027C39.3822 120.3 38.6771 120.68 38.0376 121.156L32.8604 125.009C30.8917 126.475 28.0655 125.579 27.3003 123.246C26.7649 121.615 27.4584 119.833 28.9557 118.992L30.5431 118.101C32.1246 117.213 33.1036 115.541 33.1036 113.728C33.1036 112.159 33.8378 110.68 35.0877 109.732L42.4424 104.152C43.0504 103.691 43.5409 103.093 43.8745 102.408C44.8295 100.445 46.9763 99.3601 49.1226 99.756L52.663 100.409C55.6265 100.956 58.6025 99.5182 60.0164 96.8568L60.7397 95.4956C61.3137 94.415 61.3407 93.1264 60.812 92.0229C59.4707 89.2217 55.536 89.0768 53.9922 91.7718L52.6962 94.0344C51.6811 95.8069 49.2583 96.1302 47.8141 94.6856L47.639 94.5104C47.1696 94.041 46.533 93.7775 45.8694 93.7775C44.4875 93.7775 43.367 92.657 43.367 91.2751V87.4425C43.367 86.1154 43.7837 84.8218 44.558 83.7445L50.8171 75.039C54.167 70.3798 59.9799 68.1774 65.5766 69.4473L71.3978 70.7687C72.3855 70.9928 73.1976 71.6929 73.5645 72.6366L73.6043 72.7391C74.1762 74.2099 73.4827 75.8699 72.034 76.4961L71.2517 76.8347C70.652 77.0937 70.264 77.6842 70.264 78.3374C70.264 79.2417 70.9973 79.975 71.9016 79.975H73.8193C75.5224 79.975 76.9862 78.7674 77.3099 77.0954L77.5792 75.7026C77.9427 73.8247 79.2944 72.2909 81.1117 71.6937L90.7011 68.5443C92.9396 67.8089 94.6008 65.914 95.0374 63.5983C95.5346 60.9581 97.6129 58.9005 100.258 58.4295L101.264 58.2506C103.322 57.8842 105.152 56.7217 106.359 55.0153L116.019 41.3555C118.179 38.3007 121.944 36.8159 125.608 37.5741L126.399 37.7376C128.583 38.1895 130.461 39.5715 131.542 41.522C133.351 44.788 137.254 46.2708 140.776 45.0295L143.613 44.0302C145.795 43.2612 148.207 43.5202 150.176 44.7345C152.612 46.2364 155.681 46.255 158.135 44.7826L161.642 42.6782C164.424 41.0094 167.689 40.3297 170.905 40.7501L181.212 42.0972C184.8 42.5661 188.448 42.0258 191.746 40.5376C194.781 39.1685 198.116 38.5999 201.433 38.8867L212.98 39.8844C214.523 40.0176 215.869 40.9874 216.484 42.4096C217.04 43.6953 216.92 45.1731 216.166 46.353L215.298 47.7079C214.214 49.402 213.883 51.4708 214.386 53.4184L214.84 55.1779C215.265 56.8243 215.316 58.5444 214.991 60.2136L214.091 64.8255C213.785 66.3958 212.686 67.6943 211.188 68.2558C209.263 68.9779 208.049 70.8882 208.214 72.9379L209.463 88.461C209.533 89.3312 208.922 90.1089 208.06 90.2467C207.243 90.3774 206.452 89.8906 206.201 89.1017L203.544 80.7411C202.094 76.1811 197.379 73.5048 192.721 74.5983C190.587 75.0988 188.704 76.3475 187.413 78.1179L186.365 79.5542C183.691 83.2207 182.966 87.9584 184.423 92.2565L187.496 101.331C188.68 104.822 187.872 108.681 185.388 111.406L183.605 113.362C182.654 114.405 182.23 115.824 182.453 117.218L182.636 118.362C183.061 121.016 180.696 123.272 178.065 122.724C175.323 122.153 172.913 124.617 173.545 127.346L175.374 135.242C176.167 138.661 174.903 142.229 172.137 144.388L168.867 146.938C167.019 148.38 165.938 150.594 165.938 152.938V157.135C165.938 159.021 164.41 160.549 162.524 160.549H160.121C159.121 160.549 158.387 161.488 158.63 162.459C159.038 164.092 156.902 165.099 155.902 163.745L147.252 152.035C146.035 150.387 143.845 149.791 141.96 150.595L139.078 151.825C137.299 152.584 135.837 153.934 134.94 155.647L130.705 163.732C130.303 164.499 129.238 164.586 128.718 163.893L119.178 151.198C116.153 147.173 111.837 144.31 106.953 143.089L101.524 141.313C99.5285 140.66 97.9486 143.061 99.338 144.636C99.536 144.86 99.7809 145.039 100.055 145.159L100.234 145.238C102.209 146.105 102.615 148.731 100.992 150.154L98.4433 152.388C96.8833 153.756 94.6506 154.044 92.7952 153.116L90.5973 152.017C86.9935 150.215 83.0182 153.691 84.3225 157.503C84.9454 159.325 86.6581 160.549 88.5833 160.549H88.7066C92.0805 160.549 94.3443 164.013 92.989 167.103L87.4956 179.628C87.1765 180.356 86.9216 181.11 86.7341 181.882L84.2167 192.249C83.4182 195.536 81.9222 198.614 79.8297 201.272L69.8033 214.012C68.2321 216.009 65.8318 217.174 63.2907 217.174C61.0377 217.174 58.8818 216.257 57.3197 214.634L55.1003 212.328C52.265 209.382 50.681 205.453 50.681 201.364V189.333L49.4322 179.188C49.021 175.847 47.385 172.777 44.8411 170.572C42.8034 168.806 40.2865 167.685 37.6105 167.353L36.6096 167.228C28.1382 166.176 21.7783 158.977 21.7783 150.44ZM-44.2333 52.2398L-46.0402 54.743C-47.8396 57.2355 -51.6311 56.972 -53.0678 54.2542C-54.097 52.3074 -53.4251 49.8958 -51.5377 48.7621L-48.8912 47.1718C-47.9139 46.5845 -46.7121 46.5082 -45.6679 46.9672C-43.6203 47.8673 -42.9244 50.4262 -44.2333 52.2398ZM-39.4508 56.2296L-41.2735 57.5123C-42.052 58.0601 -42.5156 58.9528 -42.5156 59.9052C-42.5156 60.9381 -41.9707 61.8947 -41.0822 62.4218L-36.5836 65.0894C-33.9716 66.6382 -32.3701 69.4498 -32.3701 72.4868V72.9856C-32.3701 74.3136 -31.987 75.6138 -31.267 76.7297L-30.2312 78.3354C-28.792 80.566 -25.8442 81.2561 -23.5646 79.8954C-21.6585 78.7578 -20.748 76.4865 -21.3406 74.3476L-24.3718 63.4086C-25.252 60.2331 -27.5229 57.6269 -30.5482 56.3205L-32.434 55.5058C-34.7397 54.5102 -37.397 54.7845 -39.4508 56.2296ZM1.82881 29.6227L-15.9888 40.0732C-17.5131 40.9671 -18.4498 42.6022 -18.4498 44.3693C-18.4498 45.6433 -17.9613 46.8688 -17.0856 47.7939L-13.9748 51.0794C-10.212 55.0539 -8.68853 60.6481 -9.91734 65.9817L-12.5294 77.3203C-12.9153 78.9952 -12.5057 80.7544 -11.4201 82.087C-9.49612 84.4479 -6.03211 84.8247 -3.64545 82.9327L8.2169 73.5288C12.4524 70.1715 15.2229 65.304 15.948 59.948L16.5007 55.8623C16.7933 53.7018 17.3839 51.5919 18.2553 49.5937L20.4702 44.5158C21.3259 42.5537 21.631 40.3948 21.3521 38.2721C20.691 33.2369 16.8775 29.1919 11.8897 28.2362L10.9381 28.0536C7.81187 27.4547 4.57445 28.0121 1.82881 29.6227ZM-132.112 77.0841C-133.743 68.333 -132.303 50.244 -114.792 42.5308C-114.429 42.3706 -114.065 42.2017 -113.701 42.0324L-113.7 42.032C-112.166 41.3194 -110.61 40.5965 -108.944 40.4757C-105.495 40.2267 -100.127 42.098 -93.9754 49.9158C-93.7518 50.1996 -93.5397 50.4743 -93.3347 50.7399C-91.8637 52.6448 -90.7573 54.0778 -88.3924 55.1443C-83.8955 57.172 -80.8899 53.1291 -77.8703 49.0671C-74.859 45.0167 -71.8341 40.9472 -67.3023 42.8608C-66.0349 43.3957 -64.4699 44.4581 -62.5522 46.1866C-60.544 47.9968 -59.0973 50.3511 -58.0769 52.8548L-55.9135 58.1589C-55.1154 60.1173 -53.5704 61.6769 -51.6199 62.4936C-46.4506 64.6586 -45.0799 71.3468 -48.9809 75.3706L-53.9136 80.4581C-57.0418 83.6847 -56.8958 88.8556 -53.5899 91.9005L-51.7008 93.6406C-48.8767 96.2418 -44.3652 95.5309 -42.4778 92.1872C-40.3443 88.4078 -35.0145 88.1057 -32.4676 91.6204L-28.3562 97.293C-25.1595 101.704 -25.8865 107.83 -30.0266 111.371L-54.19 132.033C-55.391 133.06 -56.0819 134.561 -56.0819 136.141C-56.0819 139.972 -59.9572 142.586 -63.5096 141.152L-66.0004 140.147C-70.3405 138.394 -75.0753 141.589 -75.0753 146.269C-75.0753 148.547 -73.9012 150.664 -71.969 151.87L-60.7594 158.869C-56.8787 161.291 -52.1565 161.964 -47.7533 160.722C-43.3643 159.484 -38.6569 160.149 -34.7821 162.555L-12.3385 176.487C-6.79198 179.931 -5.09671 187.224 -8.55532 192.76L-29.8149 226.793C-30.9624 228.63 -31.8513 230.616 -32.4572 232.695L-34.1139 238.384C-34.7464 240.555 -34.7236 242.863 -34.0496 245.021L-32.0547 251.404C-31.7509 252.376 -32.1115 253.435 -32.9465 254.019C-34.0874 254.818 -35.6689 254.449 -36.34 253.229L-44.0963 239.119C-45.4584 236.641 -46.1726 233.859 -46.1726 231.032V206.405C-46.1726 201.308 -48.2808 196.439 -51.9967 192.95L-54.2381 190.847C-57.5776 187.713 -59.026 183.055 -58.0528 178.58C-56.8734 173.154 -59.2629 167.577 -64.0047 164.687L-79.6165 155.175C-80.8201 154.441 -81.8408 153.443 -82.6007 152.256L-93.7614 134.824C-94.4472 133.752 -96.0932 134.095 -96.2941 135.351C-96.5196 136.761 -98.4723 136.948 -98.9615 135.607L-103.539 123.06C-103.827 122.27 -103.905 121.419 -103.765 120.589L-101.321 106.073C-100.517 101.295 -101.202 96.3858 -103.285 92.0113L-109.51 78.94C-110.959 75.8968 -114.029 73.9584 -117.4 73.9584H-117.693C-119.359 73.9584 -120.983 74.4896 -122.328 75.4744L-127.152 79.0089C-128.806 80.2203 -131.157 79.5592 -131.938 77.6639C-132.016 77.4747 -132.075 77.285 -132.112 77.0841ZM169.705 170.643L168.905 171.585C167.306 173.47 167.452 176.275 169.239 177.983L170.014 178.723C170.845 179.517 172.047 179.786 173.137 179.423C174.404 179.001 175.258 177.816 175.258 176.481V172.682C175.258 171.529 174.628 170.469 173.616 169.916C172.305 169.201 170.672 169.505 169.705 170.643ZM168.887 209.596V212.248C168.887 217.315 172.994 221.421 178.06 221.421C179.094 221.421 180.121 221.246 181.097 220.904L182.583 220.383C185.008 219.532 187.661 219.598 190.04 220.57C191.416 221.131 192.657 221.978 193.682 223.054L197.899 227.482C198.758 228.383 199.819 229.067 200.995 229.477C204.491 230.695 208.362 229.3 210.278 226.132L211.916 223.424C212.715 222.102 213.245 220.635 213.477 219.108L214.473 212.531C214.747 210.723 214.412 208.876 213.52 207.28L206.711 195.101C205.786 193.447 203.335 193.692 202.756 195.496C202.468 196.393 201.634 197.001 200.692 197.001H200.111C198.919 197.001 197.843 196.288 197.379 195.189L196.976 194.233C195.909 191.704 192.856 190.697 190.494 192.097L183.63 196.165C182.693 196.72 181.683 197.139 180.628 197.41L177.773 198.142C172.544 199.484 168.887 204.197 168.887 209.596ZM153.55 174.556L157.221 180.334C157.654 181.016 158.405 181.429 159.213 181.429C160.517 181.429 161.573 180.373 161.573 179.069V178.858C161.573 178.234 161.346 177.632 160.935 177.163L156.626 172.251C156.062 171.608 155.141 171.414 154.366 171.774C153.309 172.264 152.926 173.572 153.55 174.556ZM87.7803 200.023L91.519 194.288C92.1548 193.312 93.5044 193.119 94.3884 193.878C95.0378 194.435 95.2424 195.353 94.8909 196.133L92.2059 202.089C91.9494 202.658 91.4949 203.114 90.9272 203.373L90.7351 203.46C89.549 204 88.1492 203.477 87.6093 202.29C87.2744 201.555 87.3391 200.7 87.7803 200.023ZM201.605 184.315L202.083 184.754C202.812 185.423 203.766 185.794 204.756 185.794H207.024C208.012 185.794 208.989 186.013 209.883 186.436L213.483 188.138C214.366 188.555 215.421 188.272 215.978 187.469C216.614 186.55 216.372 185.287 215.44 184.668L206.152 178.507C205.546 178.105 204.834 177.89 204.106 177.89C200.734 177.89 199.12 182.035 201.605 184.315ZM228.813 242.477L223.375 247.079C222.753 247.605 222.55 248.476 222.875 249.222C223.238 250.059 224.16 250.504 225.042 250.269L226.725 249.82C228.025 249.474 229.051 248.477 229.436 247.189L230.511 243.589C230.812 242.58 229.617 241.798 228.813 242.477ZM233.322 236.479L235.393 229.663C235.699 228.656 237.128 228.664 237.422 229.675L238.473 233.283C238.849 234.574 238.527 235.967 237.624 236.963L236.453 238.254C235.84 238.93 234.825 239.057 234.065 238.551C233.388 238.1 233.086 237.258 233.322 236.479Z" fill="#A7CF75"/>
</g>
<g filter="url(#filter1_d_9_4230)">
<path fill-rule="evenodd" clip-rule="evenodd" d="M341.563 46.5617L352.341 36.8918C357.088 32.6302 354.32 24.7539 347.946 24.4015C345.406 24.2613 342.978 25.4801 341.576 27.6033L340.048 29.9119C339.231 31.1482 338.936 32.6592 339.231 34.1117L339.422 35.0326C339.804 36.9179 338.899 38.8311 337.197 39.7304L336.907 39.8844C334.413 41.2024 333.965 44.5859 336.027 46.5094C337.579 47.9569 339.982 47.9798 341.563 46.5617ZM335.342 33.3423L334.288 30.9166C333.525 29.1583 331.333 28.5536 329.773 29.6712C328.98 30.2398 328.516 31.1573 328.52 32.133L328.536 34.7778C328.545 36.6656 330.03 38.2152 331.914 38.3057C334.546 38.4314 336.392 35.7555 335.342 33.3423ZM319.464 39.72L321.016 37.5766C322.137 36.0228 321.539 33.8291 319.784 33.058C318.892 32.6659 317.863 32.731 317.028 33.2332L314.758 34.5939C313.14 35.565 312.567 37.633 313.447 39.3013C314.679 41.627 317.925 41.8527 319.464 39.72ZM395.277 150.44V149.732C395.277 144.141 397.916 138.878 402.398 135.533L404.22 134.172C409.474 130.251 416.184 128.845 422.571 130.328L424.181 130.702L439.246 134.188C439.736 134.301 440.246 134.321 440.74 134.247L443.632 133.815C446.081 133.449 446.874 130.306 444.886 128.825C444.18 128.299 443.765 127.471 443.765 126.59V126.397C443.765 124.914 444.794 123.629 446.239 123.304L449.94 122.472C452.206 121.963 453.48 119.544 452.617 117.386C452.044 115.952 450.654 115.012 449.11 115.012H447.459C445.18 115.012 443.089 116.258 441.997 118.26L441.026 120.051C440.885 120.309 440.727 120.557 440.549 120.792C437.972 124.229 432.734 123.958 430.523 120.275L430.145 119.645C428.531 116.955 425.235 115.79 422.293 116.865L413.632 120.027C412.881 120.3 412.175 120.68 411.536 121.156L406.361 125.009C404.39 126.475 401.564 125.579 400.8 123.246C400.265 121.615 400.958 119.833 402.456 118.992L404.041 118.101C405.623 117.213 406.602 115.541 406.602 113.728C406.602 112.159 407.337 110.68 408.586 109.732L415.944 104.152C416.549 103.691 417.039 103.093 417.375 102.408C418.33 100.445 420.475 99.3601 422.621 99.756L426.161 100.409C429.128 100.956 432.104 99.5182 433.515 96.8568L434.241 95.4956C434.814 94.415 434.839 93.1264 434.311 92.0229C432.971 89.2217 429.037 89.0768 427.493 91.7718L426.198 94.0344C425.182 95.8069 422.758 96.1302 421.314 94.6856L421.139 94.5104C420.67 94.041 420.031 93.7775 419.367 93.7775C417.985 93.7775 416.865 92.657 416.865 91.2751V87.4425C416.865 86.1154 417.284 84.8218 418.06 83.7445L424.318 75.039C427.667 70.3798 433.481 68.1774 439.076 69.4473L444.898 70.7687C445.886 70.9928 446.699 71.6929 447.064 72.6366L447.106 72.7391C447.675 74.2099 446.981 75.8699 445.533 76.4961L444.753 76.8347C444.151 77.0937 443.765 77.6842 443.765 78.3374C443.765 79.2417 444.496 79.975 445.4 79.975H447.318C449.023 79.975 450.488 78.7674 450.808 77.0954L451.077 75.7026C451.443 73.8247 452.796 72.2909 454.613 71.6937L464.2 68.5443C466.441 67.8089 468.101 65.914 468.537 63.5983C469.035 60.9581 471.114 58.9005 473.757 58.4295L474.766 58.2506C476.82 57.8842 478.65 56.7217 479.858 55.0153L489.519 41.3555C491.681 38.3007 495.445 36.8159 499.11 37.5741L499.898 37.7376C502.081 38.1895 503.961 39.5715 505.04 41.522C506.849 44.788 510.755 46.2708 514.278 45.0295L517.112 44.0302C519.295 43.2612 521.706 43.5202 523.678 44.7345C526.114 46.2364 529.181 46.255 531.633 44.7826L535.144 42.6782C537.925 41.0094 541.186 40.3297 544.407 40.7501L554.711 42.0972C558.301 42.5661 561.949 42.0258 565.248 40.5376C568.282 39.1685 571.614 38.5999 574.934 38.8867L586.48 39.8844C588.023 40.0176 589.368 40.9874 589.982 42.4096C590.538 43.6953 590.422 45.1731 589.667 46.353L588.799 47.7079C587.712 49.402 587.384 51.4708 587.886 53.4184L588.339 55.1779C588.766 56.8243 588.816 58.5444 588.492 60.2136L587.592 64.8255C587.285 66.3958 586.185 67.6943 584.687 68.2558C582.761 68.9779 581.549 70.8882 581.715 72.9379L582.965 88.461C583.035 89.3312 582.421 90.1089 581.562 90.2467C580.744 90.3774 579.952 89.8906 579.703 89.1017L577.042 80.7411C575.594 76.1811 570.88 73.5048 566.219 74.5983C564.086 75.0988 562.202 76.3475 560.911 78.1179L559.866 79.5542C557.189 83.2207 556.467 87.9584 557.923 92.2565L560.999 101.331C562.181 104.822 561.372 108.681 558.886 111.406L557.106 113.362C556.155 114.405 555.728 115.824 555.952 117.218L556.135 118.362C556.562 121.016 554.197 123.272 551.566 122.724C548.822 122.153 546.411 124.617 547.046 127.346L548.876 135.242C549.665 138.661 548.403 142.229 545.635 144.388L542.365 146.938C540.518 148.38 539.439 150.594 539.439 152.938V157.135C539.439 159.021 537.908 160.549 536.024 160.549H533.621C532.621 160.549 531.886 161.488 532.131 162.459C532.538 164.092 530.401 165.099 529.4 163.745L520.752 152.035C519.536 150.387 517.345 149.791 515.461 150.595L512.576 151.825C510.8 152.584 509.339 153.934 508.439 155.647L504.206 163.732C503.803 164.499 502.737 164.586 502.218 163.893L492.677 151.198C489.652 147.173 485.336 144.31 480.451 143.089L475.023 141.313C473.027 140.66 471.45 143.061 472.836 144.636C473.035 144.86 473.28 145.039 473.554 145.159L473.732 145.238C475.708 146.105 476.114 148.731 474.492 150.154L471.944 152.388C470.383 153.756 468.151 154.044 466.296 153.116L464.096 152.017C460.494 150.215 456.518 153.691 457.821 157.503C458.444 159.325 460.158 160.549 462.083 160.549H462.208C465.582 160.549 467.844 164.013 466.491 167.103L460.996 179.628C460.676 180.356 460.423 181.11 460.232 181.882L457.717 192.249C456.917 195.536 455.423 198.614 453.331 201.272L443.305 214.012C441.732 216.009 439.333 217.174 436.789 217.174C434.54 217.174 432.382 216.257 430.821 214.634L428.601 212.328C425.767 209.382 424.181 205.453 424.181 201.364V189.333L422.932 179.188C422.521 175.847 420.886 172.777 418.342 170.572C416.305 168.806 413.786 167.685 411.109 167.353L410.109 167.228C401.639 166.176 395.277 158.977 395.277 150.44ZM329.267 52.2398L327.461 54.743C325.66 57.2355 321.867 56.972 320.431 54.2542C319.402 52.3074 320.074 49.8958 321.963 48.7621L324.61 47.1718C325.586 46.5845 326.789 46.5082 327.831 46.9672C329.881 47.8673 330.574 50.4262 329.267 52.2398ZM334.048 56.2296L332.226 57.5123C331.45 58.0601 330.985 58.9528 330.985 59.9052C330.985 60.9381 331.528 61.8947 332.417 62.4218L336.915 65.0894C339.53 66.6382 341.132 69.4498 341.132 72.4868V72.9856C341.132 74.3136 341.513 75.6138 342.231 76.7297L343.269 78.3354C344.709 80.566 347.655 81.2561 349.934 79.8954C351.843 78.7578 352.752 76.4865 352.158 74.3476L349.129 63.4086C348.249 60.2331 345.979 57.6269 342.953 56.3205L341.065 55.5058C338.762 54.5102 336.102 54.7845 334.048 56.2296ZM375.328 29.6227L357.512 40.0732C355.989 40.9671 355.051 42.6022 355.051 44.3693C355.051 45.6433 355.54 46.8688 356.416 47.7939L359.524 51.0794C363.288 55.0539 364.811 60.6481 363.583 65.9817L360.969 77.3203C360.587 78.9952 360.993 80.7544 362.081 82.087C364.002 84.4479 367.467 84.8247 369.854 82.9327L381.719 73.5288C385.952 70.1715 388.724 65.304 389.446 59.948L390.002 55.8623C390.292 53.7018 390.882 51.5919 391.753 49.5937L393.969 44.5158C394.824 42.5537 395.131 40.3948 394.853 38.2721C394.189 33.2369 390.375 29.1919 385.391 28.2362L384.437 28.0536C381.312 27.4547 378.075 28.0121 375.328 29.6227ZM241.388 77.0841C239.757 68.333 241.197 50.244 258.708 42.5308C259.071 42.3706 259.435 42.2017 259.799 42.0324V42.032H259.8C261.334 41.3194 262.89 40.5965 264.555 40.4757C268.005 40.2267 273.373 42.098 279.525 49.9158C279.748 50.1996 279.96 50.4743 280.165 50.7399C281.636 52.6448 282.743 54.0778 285.108 55.1443C289.604 57.172 292.61 53.1291 295.631 49.0671C298.64 45.0167 301.665 40.9472 306.197 42.8608C307.467 43.3957 309.031 44.4581 310.949 46.1866C312.957 47.9968 314.401 50.3511 315.422 52.8548L317.584 58.1589C318.385 60.1173 319.929 61.6769 321.88 62.4936C327.051 64.6586 328.42 71.3468 324.519 75.3706L319.585 80.4581C316.46 83.6847 316.605 88.8556 319.908 91.9005L321.801 93.6406C324.623 96.2418 329.134 95.5309 331.022 92.1872C333.155 88.4078 338.484 88.1057 341.032 91.6204L345.145 97.293C348.34 101.704 347.614 107.83 343.472 111.371L319.311 132.033C318.107 133.06 317.418 134.561 317.418 136.141C317.418 139.972 313.542 142.586 309.99 141.152L307.5 140.147C303.159 138.394 298.424 141.589 298.424 146.269C298.424 148.547 299.598 150.664 301.532 151.87L312.741 158.869C316.622 161.291 321.344 161.964 325.748 160.722C330.134 159.484 334.844 160.149 338.716 162.555L361.159 176.487C366.708 179.931 368.405 187.224 364.944 192.76L343.684 226.793C342.538 228.63 341.65 230.616 341.044 232.695L339.384 238.384C338.754 240.555 338.774 242.863 339.451 245.021L341.447 251.404C341.75 252.376 341.389 253.435 340.555 254.019C339.413 254.818 337.832 254.449 337.16 253.229L329.404 239.119C328.042 236.641 327.329 233.859 327.329 231.032V206.405C327.329 201.308 325.22 196.439 321.502 192.95L319.261 190.847C315.924 187.713 314.476 183.055 315.447 178.58C316.626 173.154 314.235 167.577 309.496 164.687L293.883 155.175C292.68 154.441 291.659 153.443 290.899 152.256L279.739 134.824C279.053 133.752 277.407 134.095 277.206 135.351C276.98 136.761 275.027 136.948 274.539 135.607L269.962 123.06C269.673 122.27 269.595 121.419 269.735 120.589L272.179 106.073C272.984 101.295 272.298 96.3858 270.215 92.0113L263.99 78.94C262.541 75.8968 259.471 73.9584 256.1 73.9584H255.808C254.14 73.9584 252.517 74.4896 251.172 75.4744L246.348 79.0089C244.694 80.2203 242.342 79.5592 241.562 77.6639C241.484 77.4747 241.425 77.285 241.388 77.0841ZM543.203 170.643L542.407 171.585C540.805 173.47 540.95 176.275 542.739 177.983L543.515 178.723C544.345 179.517 545.548 179.786 546.635 179.423C547.905 179.001 548.756 177.816 548.756 176.481V172.682C548.756 171.529 548.129 170.469 547.117 169.916C545.805 169.201 544.17 169.505 543.203 170.643ZM542.386 209.596V212.248C542.386 217.315 546.494 221.421 551.561 221.421C552.595 221.421 553.62 221.246 554.595 220.904L556.081 220.383C558.509 219.532 561.16 219.598 563.538 220.57C564.916 221.131 566.157 221.978 567.182 223.054L571.398 227.482C572.258 228.383 573.32 229.067 574.494 229.477C577.989 230.695 581.861 229.3 583.778 226.132L585.417 223.424C586.214 222.102 586.745 220.635 586.978 219.108L587.974 212.531C588.247 210.723 587.911 208.876 587.019 207.28L580.209 195.101C579.288 193.447 576.835 193.692 576.254 195.496C575.968 196.393 575.133 197.001 574.191 197.001H573.61C572.419 197.001 571.345 196.288 570.88 195.189L570.477 194.233C569.411 191.704 566.356 190.697 563.995 192.097L557.131 196.165C556.193 196.72 555.184 197.139 554.126 197.41L551.271 198.142C546.042 199.484 542.386 204.197 542.386 209.596ZM527.052 174.556L530.72 180.334C531.152 181.016 531.907 181.429 532.712 181.429C534.015 181.429 535.074 180.373 535.074 179.069V178.858C535.074 178.234 534.845 177.632 534.434 177.163L530.127 172.251C529.562 171.608 528.641 171.414 527.865 171.774C526.811 172.264 526.425 173.572 527.052 174.556ZM461.278 200.023L465.017 194.288C465.656 193.312 467.005 193.119 467.889 193.878C468.537 194.435 468.744 195.353 468.391 196.133L465.706 202.089C465.449 202.658 464.997 203.114 464.428 203.373L464.237 203.46C463.05 204 461.648 203.477 461.108 202.29C460.776 201.555 460.838 200.7 461.278 200.023ZM575.104 184.315L575.582 184.754C576.312 185.423 577.267 185.794 578.254 185.794H580.524C581.512 185.794 582.487 186.013 583.384 186.436L586.982 188.138C587.866 188.555 588.92 188.272 589.476 187.469C590.115 186.55 589.87 185.287 588.94 184.668L579.653 178.507C579.047 178.105 578.333 177.89 577.607 177.89C574.233 177.89 572.619 182.035 575.104 184.315ZM602.312 242.477L596.875 247.079C596.253 247.605 596.049 248.476 596.373 249.222C596.738 250.059 597.66 250.504 598.539 250.269L600.224 249.82C601.523 249.474 602.553 248.477 602.934 247.189L604.009 243.589C604.312 242.58 603.117 241.798 602.312 242.477ZM606.823 236.479L608.894 229.663C609.197 228.656 610.628 228.664 610.923 229.675L611.973 233.283C612.346 234.574 612.027 235.967 611.122 236.963L609.952 238.254C609.342 238.93 608.325 239.057 607.566 238.551C606.889 238.1 606.586 237.258 606.823 236.479Z" fill="#A7CF75"/>
</g>
<g opacity="0.6" filter="url(#filter2_f_9_4230)">
<path d="M190.05 13.4647L189.026 14.8076C186.557 18.0471 182.321 19.3901 178.436 18.1646C177.495 17.8678 176.516 17.7172 175.53 17.7172H167.089C164.483 17.7172 162.034 18.9647 160.502 21.0737C157.854 24.7178 158.669 29.819 162.319 32.458L166.759 35.668C169.704 37.7966 173.377 38.6593 176.961 38.0642L184.446 36.8213C185.717 36.6105 186.962 36.2656 188.161 35.7933C194.767 33.1884 202.283 34.6413 207.443 39.5205L214.351 46.053C215.595 47.2295 216.944 48.2898 218.382 49.2207C230.896 57.324 247.562 54.2351 256.341 42.1852L260.48 36.5042C262.785 33.3395 263.613 29.3339 262.75 25.5146L261.294 19.0763C260.33 14.808 255.927 12.2716 251.751 13.5784C250.208 14.061 248.862 15.0301 247.915 16.3402L247.485 16.9353C245.007 20.3649 240.591 21.7925 236.574 20.4624L208.459 11.1527L203.781 9.44541C198.817 7.63393 193.253 9.26281 190.05 13.4647Z" fill="white"/>
<path d="M99.7892 132.981L98.7658 134.324C96.2965 137.564 92.0602 138.906 88.1754 137.681L87.9953 137.624C87.1744 137.365 86.3187 137.233 85.458 137.233H82.7422C77.9764 137.233 74.7618 142.104 76.6342 146.486C79.2272 153.467 86.4067 157.629 93.7534 156.41L94.3913 156.304C95.5255 156.116 96.6368 155.808 97.7063 155.386L97.9001 155.31C104.506 152.705 112.023 154.158 117.183 159.037L124.09 165.569C125.335 166.746 126.684 167.806 128.122 168.737C140.636 176.841 157.302 173.752 166.08 161.702L167.934 159.158C171.692 153.999 173.04 147.47 171.634 141.246C170.125 134.574 165.617 128.974 159.421 126.076L159.079 125.916C153.593 122.471 146.87 121.61 140.693 123.562L122.377 129.349C119.668 130.205 116.752 130.141 114.083 129.167L113.52 128.962C108.557 127.15 102.992 128.779 99.7892 132.981Z" fill="white"/>
<path d="M315.671 213.689L270.605 224.683C267.214 225.51 263.661 225.392 260.332 224.342L258.766 223.848C257.945 223.59 257.089 223.458 256.229 223.458H253.513C248.748 223.458 245.533 228.328 247.405 232.71C249.998 239.692 257.177 243.854 264.524 242.634L266.868 242.245L305.956 238.929C318.439 237.87 330.777 242.186 339.878 250.793L340.936 251.793C342.181 252.97 343.53 254.031 344.97 254.961C357.483 263.065 374.149 259.976 382.926 247.926L384.781 245.382C388.541 240.224 389.89 233.694 388.483 227.47C386.972 220.798 382.466 215.198 376.27 212.3L375.925 212.14C370.439 208.695 363.716 207.834 357.541 209.786L342.036 214.685C337.504 216.117 332.624 216.01 328.163 214.381C324.158 212.92 319.813 212.679 315.671 213.689Z" fill="white"/>
<path d="M39.3784 58.7653L40.4018 60.1078C42.8711 63.3477 47.107 64.6902 50.9922 63.4651L51.1723 63.4083C51.9932 63.1493 52.8489 63.0174 53.7096 63.0174H56.4254C61.1908 63.0174 64.4058 67.8878 62.5333 72.2698C59.9404 79.2513 52.7609 83.4133 45.4142 82.1937L44.7763 82.0879C43.6421 81.8994 42.5308 81.5919 41.4613 81.1703L41.2675 81.0935C34.6611 78.489 27.1446 79.9419 21.9849 84.821L15.0773 91.3531C13.8327 92.5301 12.4835 93.5904 11.046 94.5212C-1.46835 102.625 -18.1339 99.5357 -26.9128 87.4858L-28.7666 84.9418C-32.5245 79.7833 -33.8728 73.2542 -32.466 67.0296C-30.9578 60.3576 -26.4497 54.7576 -20.2538 51.8601L-19.911 51.6999C-14.4251 48.255 -7.70248 47.3943 -1.52562 49.346L16.7904 55.1332C19.4995 55.9893 22.4157 55.925 25.085 54.951L25.6473 54.7456C30.6107 52.9341 36.1755 54.5634 39.3784 58.7653Z" fill="white"/>
</g>
<g opacity="0.4" filter="url(#filter3_f_9_4230)">
<path d="M113.138 -40.8376C10.1404 69.4121 73.4785 249.968 222.779 271.713L270.648 278.685L-153.53 232.275L113.138 -40.8376Z" fill="#1E819A"/>
</g>
<g opacity="0.3" filter="url(#filter4_f_9_4230)">
<path d="M147.792 299.158C257.406 195.485 205.347 11.3594 57.6754 -19.5701L10.3289 -29.4869L430.83 43.0476L147.792 299.158Z" fill="white"/>
</g>
</g>
<defs>
<filter id="filter0_d_9_4230" x="-152.62" y="8.39062" width="411.247" height="270.052" filterUnits="userSpaceOnUse" color-interpolation-filters="sRGB">
<feFlood flood-opacity="0" result="BackgroundImageFix"/>
<feColorMatrix in="SourceAlpha" type="matrix" values="0 0 0 0 0 0 0 0 0 0 0 0 0 0 0 0 0 0 127 0" result="hardAlpha"/>
<feOffset dy="4"/>
<feGaussianBlur stdDeviation="10"/>
<feComposite in2="hardAlpha" operator="out"/>
<feColorMatrix type="matrix" values="0 0 0 0 0.160417 0 0 0 0 0.619952 0 0 0 0 0.7 0 0 0 1 0"/>
<feBlend mode="normal" in2="BackgroundImageFix" result="effect1_dropShadow_9_4230"/>
<feBlend mode="normal" in="SourceGraphic" in2="effect1_dropShadow_9_4230" result="shape"/>
</filter>
<filter id="filter1_d_9_4230" x="220.88" y="8.39062" width="411.246" height="270.052" filterUnits="userSpaceOnUse" color-interpolation-filters="sRGB">
<feFlood flood-opacity="0" result="BackgroundImageFix"/>
<feColorMatrix in="SourceAlpha" type="matrix" values="0 0 0 0 0 0 0 0 0 0 0 0 0 0 0 0 0 0 127 0" result="hardAlpha"/>
<feOffset dy="4"/>
<feGaussianBlur stdDeviation="10"/>
<feComposite in2="hardAlpha" operator="out"/>
<feColorMatrix type="matrix" values="0 0 0 0 0.160417 0 0 0 0 0.619952 0 0 0 0 0.7 0 0 0 1 0"/>
<feBlend mode="normal" in2="BackgroundImageFix" result="effect1_dropShadow_9_4230"/>
<feBlend mode="normal" in="SourceGraphic" in2="effect1_dropShadow_9_4230" result="shape"/>
</filter>
<filter id="filter2_f_9_4230" x="-53.0106" y="-11.2866" width="462.038" height="290.76" filterUnits="userSpaceOnUse" color-interpolation-filters="sRGB">
<feFlood flood-opacity="0" result="BackgroundImageFix"/>
<feBlend mode="normal" in="SourceGraphic" in2="BackgroundImageFix" result="shape"/>
<feGaussianBlur stdDeviation="10" result="effect1_foregroundBlur_9_4230"/>
</filter>
<filter id="filter3_f_9_4230" x="-193.53" y="-80.8376" width="504.179" height="399.523" filterUnits="userSpaceOnUse" color-interpolation-filters="sRGB">
<feFlood flood-opacity="0" result="BackgroundImageFix"/>
<feBlend mode="normal" in="SourceGraphic" in2="BackgroundImageFix" result="shape"/>
<feGaussianBlur stdDeviation="20" result="effect1_foregroundBlur_9_4230"/>
</filter>
<filter id="filter4_f_9_4230" x="-69.6711" y="-109.487" width="580.501" height="488.645" filterUnits="userSpaceOnUse" color-interpolation-filters="sRGB">
<feFlood flood-opacity="0" result="BackgroundImageFix"/>
<feBlend mode="normal" in="SourceGraphic" in2="BackgroundImageFix" result="shape"/>
<feGaussianBlur stdDeviation="40" result="effect1_foregroundBlur_9_4230"/>
</filter>
<linearGradient id="paint0_linear_9_4230" x1="67.3843" y1="134.477" x2="279.244" y2="116.476" gradientUnits="userSpaceOnUse">
<stop stop-color="#228EA9"/>
<stop offset="1" stop-color="#02DEFE"/>
</linearGradient>
</defs>
</svg>
