<svg width="460" height="463" viewBox="0 0 460 463" fill="none" xmlns="http://www.w3.org/2000/svg">
<g opacity="0.5">
<path opacity="0.5" d="M317.747 40.7371C318.183 40.7371 318.536 40.3794 318.536 39.9383C318.536 39.4971 318.183 39.1395 317.747 39.1395C317.312 39.1395 316.959 39.4971 316.959 39.9383C316.959 40.3794 317.312 40.7371 317.747 40.7371Z" fill="white"/>
<path opacity="0.5" d="M358.804 15.7267C359.239 15.7267 359.592 15.3691 359.592 14.9279C359.592 14.4868 359.239 14.1292 358.804 14.1292C358.368 14.1292 358.015 14.4868 358.015 14.9279C358.015 15.3691 358.368 15.7267 358.804 15.7267Z" fill="white"/>
<path opacity="0.5" d="M411.934 25.7913C412.37 25.7913 412.723 25.4336 412.723 24.9925C412.723 24.5513 412.37 24.1937 411.934 24.1937C411.499 24.1937 411.146 24.5513 411.146 24.9925C411.146 25.4336 411.499 25.7913 411.934 25.7913Z" fill="white"/>
<path opacity="0.5" d="M420.801 249.694C421.236 249.694 421.589 249.337 421.589 248.895C421.589 248.454 421.236 248.097 420.801 248.097C420.365 248.097 420.012 248.454 420.012 248.895C420.012 249.337 420.365 249.694 420.801 249.694Z" fill="white"/>
<path opacity="0.5" d="M75.3496 18.5669C75.7851 18.5669 76.1381 18.2093 76.1381 17.7681C76.1381 17.327 75.7851 16.9694 75.3496 16.9694C74.9141 16.9694 74.561 17.327 74.561 17.7681C74.561 18.2093 74.9141 18.5669 75.3496 18.5669Z" fill="white"/>
<path opacity="0.5" d="M76.138 68.2324C76.5735 68.2324 76.9266 67.8748 76.9266 67.4337C76.9266 66.9925 76.5735 66.6349 76.138 66.6349C75.7025 66.6349 75.3495 66.9925 75.3495 67.4337C75.3495 67.8748 75.7025 68.2324 76.138 68.2324Z" fill="white"/>
<path opacity="0.5" d="M13.3526 4.56201C13.7881 4.56201 14.1412 4.20439 14.1412 3.76324C14.1412 3.3221 13.7881 2.96448 13.3526 2.96448C12.9171 2.96448 12.5641 3.3221 12.5641 3.76324C12.5641 4.20439 12.9171 4.56201 13.3526 4.56201Z" fill="white"/>
<path opacity="0.5" d="M147.457 4.56201C147.893 4.56201 148.246 4.20439 148.246 3.76324C148.246 3.3221 147.893 2.96448 147.457 2.96448C147.022 2.96448 146.669 3.3221 146.669 3.76324C146.669 4.20439 147.022 4.56201 147.457 4.56201Z" fill="white"/>
<path opacity="0.5" d="M208.788 120.915C209.224 120.915 209.577 120.558 209.577 120.117C209.577 119.675 209.224 119.318 208.788 119.318C208.353 119.318 208 119.675 208 120.117C208 120.558 208.353 120.915 208.788 120.915Z" fill="white"/>
<path opacity="0.5" d="M88.8773 179.261C89.3128 179.261 89.6659 178.903 89.6659 178.462C89.6659 178.021 89.3128 177.663 88.8773 177.663C88.4418 177.663 88.0888 178.021 88.0888 178.462C88.0888 178.903 88.4418 179.261 88.8773 179.261Z" fill="white"/>
<path opacity="0.5" d="M22.6399 180.059C23.0754 180.059 23.4285 179.702 23.4285 179.261C23.4285 178.82 23.0754 178.462 22.6399 178.462C22.2044 178.462 21.8514 178.82 21.8514 179.261C21.8514 179.702 22.2044 180.059 22.6399 180.059Z" fill="white"/>
<path opacity="0.5" d="M458.738 204.608C459.435 204.608 460 204.036 460 203.33C460 202.624 459.435 202.052 458.738 202.052C458.042 202.052 457.477 202.624 457.477 203.33C457.477 204.036 458.042 204.608 458.738 204.608Z" fill="white"/>
<path opacity="0.5" d="M1.26167 245.896C1.95846 245.896 2.52333 245.323 2.52333 244.617C2.52333 243.912 1.95846 243.339 1.26167 243.339C0.564867 243.339 0 243.912 0 244.617C0 245.323 0.564867 245.896 1.26167 245.896Z" fill="white"/>
<path opacity="0.5" d="M411.145 130.607C411.842 130.607 412.407 130.035 412.407 129.329C412.407 128.623 411.842 128.051 411.145 128.051C410.449 128.051 409.884 128.623 409.884 129.329C409.884 130.035 410.449 130.607 411.145 130.607Z" fill="white"/>
<path opacity="0.5" d="M316.976 98.2483C317.673 98.2483 318.238 97.6761 318.238 96.9703C318.238 96.2645 317.673 95.6923 316.976 95.6923C316.279 95.6923 315.714 96.2645 315.714 96.9703C315.714 97.6761 316.279 98.2483 316.976 98.2483Z" fill="white"/>
<path opacity="0.5" d="M438.657 87.4737C439.354 87.4737 439.919 86.9015 439.919 86.1956C439.919 85.4898 439.354 84.9176 438.657 84.9176C437.96 84.9176 437.395 85.4898 437.395 86.1956C437.395 86.9015 437.96 87.4737 438.657 87.4737Z" fill="white"/>
<path opacity="0.5" d="M123.048 112.945C123.483 112.945 123.836 112.588 123.836 112.147C123.836 111.706 123.483 111.348 123.048 111.348C122.612 111.348 122.259 111.706 122.259 112.147C122.259 112.588 122.612 112.945 123.048 112.945Z" fill="white"/>
<path opacity="0.5" d="M170.377 77.3027C170.813 77.3027 171.166 76.9451 171.166 76.504C171.166 76.0628 170.813 75.7052 170.377 75.7052C169.942 75.7052 169.589 76.0628 169.589 76.504C169.589 76.9451 169.942 77.3027 170.377 77.3027Z" fill="white"/>
<path opacity="0.5" d="M47.295 121.696C47.7304 121.696 48.0835 121.339 48.0835 120.898C48.0835 120.456 47.7304 120.099 47.295 120.099C46.8595 120.099 46.5064 120.456 46.5064 120.898C46.5064 121.339 46.8595 121.696 47.295 121.696Z" fill="white"/>
<path opacity="0.5" d="M213.993 427.641C214.428 427.641 214.781 427.284 214.781 426.842C214.781 426.401 214.428 426.044 213.993 426.044C213.557 426.044 213.204 426.401 213.204 426.842C213.204 427.284 213.557 427.641 213.993 427.641Z" fill="white"/>
<path opacity="0.5" d="M407.904 461.722C408.6 461.722 409.165 461.15 409.165 460.444C409.165 459.738 408.6 459.166 407.904 459.166C407.207 459.166 406.642 459.738 406.642 460.444C406.642 461.15 407.207 461.722 407.904 461.722Z" fill="white"/>
<path opacity="0.5" d="M103.036 442.729C103.472 442.729 103.825 442.372 103.825 441.93C103.825 441.489 103.472 441.132 103.036 441.132C102.601 441.132 102.247 441.489 102.247 441.93C102.247 442.372 102.601 442.729 103.036 442.729Z" fill="white"/>
<path opacity="0.5" d="M41.5299 396.312C41.9654 396.312 42.3184 395.955 42.3184 395.513C42.3184 395.072 41.9654 394.715 41.5299 394.715C41.0944 394.715 40.7413 395.072 40.7413 395.513C40.7413 395.955 41.0944 396.312 41.5299 396.312Z" fill="white"/>
<path opacity="0.5" d="M285.242 4.56201C285.677 4.56201 286.03 4.20439 286.03 3.76324C286.03 3.3221 285.677 2.96448 285.242 2.96448C284.806 2.96448 284.453 3.3221 284.453 3.76324C284.453 4.20439 284.806 4.56201 285.242 4.56201Z" fill="white"/>
<path opacity="0.5" d="M10.952 87.1365C11.3875 87.1365 11.7405 86.7789 11.7405 86.3377C11.7405 85.8966 11.3875 85.5389 10.952 85.5389C10.5165 85.5389 10.1634 85.8966 10.1634 86.3377C10.1634 86.7789 10.5165 87.1365 10.952 87.1365Z" fill="white"/>
<path opacity="0.5" d="M206.738 19.8273C207.435 19.8273 208 19.2551 208 18.5493C208 17.8434 207.435 17.2712 206.738 17.2712C206.041 17.2712 205.476 17.8434 205.476 18.5493C205.476 19.2551 206.041 19.8273 206.738 19.8273Z" fill="white"/>
<path opacity="0.5" d="M437.395 2.55605C438.092 2.55605 438.657 1.98386 438.657 1.27803C438.657 0.572192 438.092 0 437.395 0C436.698 0 436.134 0.572192 436.134 1.27803C436.134 1.98386 436.698 2.55605 437.395 2.55605Z" fill="white"/>
<path opacity="0.5" d="M256.031 60.5998C256.727 60.5998 257.292 60.0276 257.292 59.3217C257.292 58.6159 256.727 58.0437 256.031 58.0437C255.334 58.0437 254.769 58.6159 254.769 59.3217C254.769 60.0276 255.334 60.5998 256.031 60.5998Z" fill="white"/>
<path opacity="0.5" d="M162.983 401.886C163.418 401.886 163.771 401.528 163.771 401.087C163.771 400.646 163.418 400.288 162.983 400.288C162.547 400.288 162.194 400.646 162.194 401.087C162.194 401.528 162.547 401.886 162.983 401.886Z" fill="white"/>
<path opacity="0.5" d="M10.1634 332.73C10.5989 332.73 10.9519 332.373 10.9519 331.931C10.9519 331.49 10.5989 331.133 10.1634 331.133C9.72789 331.133 9.37485 331.49 9.37485 331.931C9.37485 332.373 9.72789 332.73 10.1634 332.73Z" fill="white"/>
<path opacity="0.5" d="M103.825 365.391C104.26 365.391 104.613 365.033 104.613 364.592C104.613 364.151 104.26 363.793 103.825 363.793C103.389 363.793 103.036 364.151 103.036 364.592C103.036 365.033 103.389 365.391 103.825 365.391Z" fill="white"/>
<path opacity="0.5" d="M388.436 387.1C388.871 387.1 389.224 386.742 389.224 386.301C389.224 385.86 388.871 385.502 388.436 385.502C388 385.502 387.647 385.86 387.647 386.301C387.647 386.742 388 387.1 388.436 387.1Z" fill="white"/>
<path opacity="0.5" d="M326.579 324.245C327.014 324.245 327.367 323.888 327.367 323.447C327.367 323.006 327.014 322.648 326.579 322.648C326.143 322.648 325.79 323.006 325.79 323.447C325.79 323.888 326.143 324.245 326.579 324.245Z" fill="white"/>
<path opacity="0.5" d="M450.432 401.087C450.868 401.087 451.221 400.729 451.221 400.288C451.221 399.847 450.868 399.49 450.432 399.49C449.997 399.49 449.644 399.847 449.644 400.288C449.644 400.729 449.997 401.087 450.432 401.087Z" fill="white"/>
<path opacity="0.5" d="M400.229 324.725C400.925 324.725 401.49 324.153 401.49 323.447C401.49 322.741 400.925 322.169 400.229 322.169C399.532 322.169 398.967 322.741 398.967 323.447C398.967 324.153 399.532 324.725 400.229 324.725Z" fill="white"/>
<path opacity="0.5" d="M452.833 318.512C453.269 318.512 453.622 318.155 453.622 317.714C453.622 317.272 453.269 316.915 452.833 316.915C452.398 316.915 452.045 317.272 452.045 317.714C452.045 318.155 452.398 318.512 452.833 318.512Z" fill="white"/>
<path opacity="0.5" d="M342.718 421.5C343.414 421.5 343.979 420.927 343.979 420.222C343.979 419.516 343.414 418.944 342.718 418.944C342.021 418.944 341.456 419.516 341.456 420.222C341.456 420.927 342.021 421.5 342.718 421.5Z" fill="white"/>
<path opacity="0.5" d="M222.474 353.853C223.171 353.853 223.735 353.281 223.735 352.575C223.735 351.869 223.171 351.297 222.474 351.297C221.777 351.297 221.212 351.869 221.212 352.575C221.212 353.281 221.777 353.853 222.474 353.853Z" fill="white"/>
<path opacity="0.5" d="M263.951 459.166C264.648 459.166 265.213 458.594 265.213 457.888C265.213 457.182 264.648 456.61 263.951 456.61C263.254 456.61 262.689 457.182 262.689 457.888C262.689 458.594 263.254 459.166 263.951 459.166Z" fill="white"/>
<path opacity="0.5" d="M10.1635 463C10.8603 463 11.4251 462.428 11.4251 461.722C11.4251 461.016 10.8603 460.444 10.1635 460.444C9.46666 460.444 8.90179 461.016 8.90179 461.722C8.90179 462.428 9.46666 463 10.1635 463Z" fill="white"/>
</g>
<path d="M36.4481 57.7064C47.4711 57.7064 56.407 48.6547 56.407 37.4888C56.407 26.3229 47.4711 17.2711 36.4481 17.2711C25.4251 17.2711 16.4893 26.3229 16.4893 37.4888C16.4893 48.6547 25.4251 57.7064 36.4481 57.7064Z" fill="url(#paint0_linear_42_46)" fill-opacity="0.8"/>
<path d="M190.862 70.5575C196.291 70.5575 200.693 66.0992 200.693 60.5995C200.693 55.0999 196.291 50.6416 190.862 50.6416C185.433 50.6416 181.032 55.0999 181.032 60.5995C181.032 66.0992 185.433 70.5575 190.862 70.5575Z" fill="url(#paint1_linear_42_46)" fill-opacity="0.8"/>
<path d="M40.7413 451.888C46.1705 451.888 50.5718 447.43 50.5718 441.93C50.5718 436.431 46.1705 431.972 40.7413 431.972C35.3121 431.972 30.9108 436.431 30.9108 441.93C30.9108 447.43 35.3121 451.888 40.7413 451.888Z" fill="url(#paint2_linear_42_46)" fill-opacity="0.8"/>
<path d="M428.546 59.0554C433.975 59.0554 438.376 54.5971 438.376 49.0975C438.376 43.5979 433.975 39.1395 428.546 39.1395C423.117 39.1395 418.715 43.5979 418.715 49.0975C418.715 54.5971 423.117 59.0554 428.546 59.0554Z" fill="url(#paint3_linear_42_46)" fill-opacity="0.8"/>
<defs>
<linearGradient id="paint0_linear_42_46" x1="50.5492" y1="51.7794" x2="21.9695" y2="23.5655" gradientUnits="userSpaceOnUse">
<stop stop-color="#014DA8"/>
<stop offset="0.1388" stop-color="#024799" stop-opacity="0.8612"/>
<stop offset="0.3419" stop-color="#03418B" stop-opacity="0.6581"/>
<stop offset="0.589" stop-color="#043E83" stop-opacity="0.411"/>
<stop offset="1" stop-color="#043D80" stop-opacity="0"/>
</linearGradient>
<linearGradient id="paint1_linear_42_46" x1="197.823" y1="67.6519" x2="183.733" y2="53.7422" gradientUnits="userSpaceOnUse">
<stop stop-color="#014DA8"/>
<stop offset="0.1388" stop-color="#024799" stop-opacity="0.8612"/>
<stop offset="0.3419" stop-color="#03418B" stop-opacity="0.6581"/>
<stop offset="0.589" stop-color="#043E83" stop-opacity="0.411"/>
<stop offset="1" stop-color="#043D80" stop-opacity="0"/>
</linearGradient>
<linearGradient id="paint2_linear_42_46" x1="47.6926" y1="434.886" x2="33.6026" y2="448.796" gradientUnits="userSpaceOnUse">
<stop stop-color="#014DA8"/>
<stop offset="0.1388" stop-color="#024799" stop-opacity="0.8612"/>
<stop offset="0.3419" stop-color="#03418B" stop-opacity="0.6581"/>
<stop offset="0.589" stop-color="#043E83" stop-opacity="0.411"/>
<stop offset="1" stop-color="#043D80" stop-opacity="0"/>
</linearGradient>
<linearGradient id="paint3_linear_42_46" x1="421.592" y1="56.1459" x2="435.682" y2="42.2362" gradientUnits="userSpaceOnUse">
<stop stop-color="#014DA8"/>
<stop offset="0.1388" stop-color="#024799" stop-opacity="0.8612"/>
<stop offset="0.3419" stop-color="#03418B" stop-opacity="0.6581"/>
<stop offset="0.589" stop-color="#043E83" stop-opacity="0.411"/>
<stop offset="1" stop-color="#043D80" stop-opacity="0"/>
</linearGradient>
</defs>
</svg>
