<svg width="260" height="260" viewBox="0 0 260 260" fill="none" xmlns="http://www.w3.org/2000/svg">
<path d="M253.921 147.587C264.844 79.6818 218.663 15.7773 150.774 4.85203C82.8845 -6.07323 18.9946 40.118 8.07191 108.023C-2.85082 175.928 43.3298 239.833 111.219 250.758C179.108 261.683 242.998 215.492 253.921 147.587Z" fill="url(#paint0_radial_9_4372)"/>
<path d="M130.199 248.747C196.941 248.747 251.046 194.63 251.046 127.873C251.046 61.1153 196.941 6.9978 130.199 6.9978C63.4573 6.9978 9.35229 61.1153 9.35229 127.873C9.35229 194.63 63.4573 248.747 130.199 248.747Z" fill="url(#paint1_radial_9_4372)"/>
<g style="mix-blend-mode:multiply">
<path d="M38.164 61.0463C43.5264 59.1782 57.1284 69.3441 55.8205 75.1221C54.5126 80.9001 50.8505 87.3733 55.8205 88.1553C60.7905 88.9373 69.2481 78.5107 69.2481 70.1695C69.2481 61.8283 80.8883 50.2287 87.3405 52.1403C93.7928 54.0518 93.3132 64.8693 98.3268 62.4365C103.34 60.0036 97.0189 50.2287 105.433 47.6655C113.847 45.1023 145.454 56.0502 148.026 67.9104C150.599 79.7706 155.787 95.2366 151.253 98.3212C146.719 101.406 162.98 128.732 168.691 127.95C183.993 125.647 175.797 155.58 168.691 160.098C161.585 164.617 137.694 178.736 129.454 167.18C121.215 155.624 98.3268 158.143 108.746 167.18C119.166 176.216 136.168 192.594 129.454 201.283C120.735 212.709 98.3704 222.31 92.6593 204.498C90.6539 198.199 58.4799 195.418 71.5587 183.862C84.6376 172.306 73.477 146.544 67.1991 156.188C60.9212 165.833 43.9623 172.263 41.3901 153.625C38.818 134.988 24.2132 145.241 16.4531 129.123C8.69298 113.005 22.9053 66.3899 38.164 61.0463Z" fill="#DDDDDD"/>
</g>
<g style="mix-blend-mode:multiply">
<path d="M188.03 82.066C175.881 81.6323 173.985 67.3202 169.548 69.055C165.111 70.7898 158.692 86.403 158.692 97.9395C158.692 109.476 175.278 119.147 184.842 113.379C194.406 107.611 195.871 82.3696 188.03 82.066Z" fill="#DDDDDD"/>
</g>
<g style="mix-blend-mode:multiply">
<path d="M223.306 79.7767C217.071 80.3574 210.156 92.3285 215.798 95.6339C221.44 98.9394 225.215 104.88 229.626 102.915C234.038 100.949 237.134 78.4367 223.306 79.7767Z" fill="#DDDDDD"/>
</g>
<g style="mix-blend-mode:multiply">
<path d="M200.053 102.54C201.459 98.6274 213.719 100.21 216.356 105.397C217.77 107.821 219.672 109.924 221.942 111.573C224.211 113.223 226.798 114.383 229.539 114.98C232.791 114.98 247.116 119.069 247.116 127.553C247.116 136.037 244.479 158.765 239.953 160.083C235.427 161.402 220.838 150.984 223.87 145.752C226.902 140.521 223.87 141.356 223.87 130.323C223.87 119.289 213.192 135.378 213.719 138.587C214.862 145.972 231.912 156.83 223.87 166.59C215.828 176.349 196.362 163.996 200.229 152.918C204.096 141.84 193.11 134.675 185.947 127.553C178.784 120.432 196.186 113.486 200.053 102.54Z" fill="#DDDDDD"/>
</g>
<g style="mix-blend-mode:multiply">
<path d="M119.905 36.5969C114.096 37.3145 113.321 47.2707 121.583 44.9834C129.845 42.6962 128.898 35.4757 119.905 36.5969Z" fill="#DDDDDD"/>
</g>
<path d="M106.777 118.566C111.341 116.491 125.534 120.848 113.988 127.612C102.441 134.375 94.7745 124.084 106.777 118.566Z" fill="#E0E0E0"/>
<path d="M131.46 219.618C128.304 221.448 127.617 229.431 135.166 226.479C144.36 222.82 139.008 215.21 131.46 219.618Z" fill="#E0E0E0"/>
<g style="mix-blend-mode:multiply">
<path d="M155.006 41.4645C152.274 42.8194 138.003 47.5192 146.765 49.9325C150.756 51.0334 167.975 49.0857 166.457 45.1905C166.009 44.1666 165.343 43.2472 164.504 42.4929C163.665 41.7386 162.672 41.1665 161.59 40.8144C160.508 40.4623 159.361 40.3382 158.227 40.4503C157.092 40.5623 155.994 40.908 155.006 41.4645Z" fill="#DDDDDD"/>
</g>
<path d="M177.518 172.997C176.425 170.929 162.886 172.321 167.511 178.169C172.136 184.016 172.01 178.646 174.575 179.561C179.747 181.311 178.359 174.549 177.518 172.997Z" fill="#E0E0E0"/>
<g style="mix-blend-mode:multiply">
<path d="M88.5562 178.221C88.5562 178.221 85.7559 173.282 83.4295 178.221C81.1031 183.159 89.7624 198.019 94.0705 194.023C98.3787 190.028 96.957 180.241 94.0705 180.825C93.0191 180.878 91.9706 180.669 91.0117 180.216C90.0529 179.764 89.2112 179.079 88.5562 178.221Z" fill="#DDDDDD"/>
</g>
<path d="M72.8178 217.337C63.1364 219.968 64.9545 231.6 73.9541 227.077C82.9538 222.553 74.9086 216.783 72.8178 217.337Z" fill="#DDDDDD"/>
<g style="mix-blend-mode:multiply">
<path d="M169.182 225.177C164.098 226.552 164.639 231.839 169.182 229.475C173.725 227.111 170.266 224.962 169.182 225.177Z" fill="#DDDDDD"/>
</g>
<g style="mix-blend-mode:screen" opacity="0.4">
<path d="M218.557 185.909C208.135 188.423 210.481 200.087 220.136 195.677C229.79 191.267 220.812 185.208 218.557 185.909Z" fill="#6B6B6B"/>
</g>
<path d="M45.1205 145.569C40.4518 145.143 42.6305 163.02 52.2793 161.148C61.9281 159.275 70.7765 151.826 53.8355 151.826C44.4536 151.826 48.322 145.824 45.1205 145.569Z" fill="#A8A8A8"/>
<g style="mix-blend-mode:multiply">
<path d="M60.5382 75.5244C60.5382 75.5244 52.4273 85.5073 59.23 83.3429C66.0328 81.1785 65.6839 69.517 60.5382 75.5244Z" fill="#DDDDDD"/>
</g>
<path d="M85.4146 55.3261C81.281 56.327 74.1949 61.1643 80.8722 63.6663C87.5495 66.1684 92.6369 53.533 85.4146 55.3261Z" fill="#D1D1D1"/>
<g style="mix-blend-mode:soft-light">
<path d="M23.6797 102.579C18.3565 136.77 50.994 188.801 86.8604 188.801C122.727 188.801 227.184 149.789 204.67 86.8865C192.976 54.3614 158.768 12.8942 122.901 12.8942C87.0349 12.8942 33.0608 43.1837 23.6797 102.579Z" fill="#C9C9C9"/>
</g>
<g style="mix-blend-mode:screen" opacity="0.3">
<path d="M101.903 71.7129C36.2887 102.919 31.0778 116.972 33.3359 102.526C42.3681 44.9153 94.5206 23.7041 107.765 23.7041C121.009 23.7041 203.298 23.4859 101.903 71.7129Z" fill="#FFF1D4"/>
</g>
<path d="M196.498 166.199C196.018 166.194 195.549 166.062 195.15 165.818C194.752 165.574 194.44 165.229 194.254 164.825C194.068 164.421 194.015 163.977 194.103 163.547C194.19 163.116 194.414 162.719 194.747 162.403C196.309 161.022 197.776 160.807 199.101 162.403C200.995 164.818 199.575 166.199 196.498 166.199Z" fill="url(#paint2_radial_9_4372)"/>
<path d="M14.4909 151.458C14.2376 151.444 13.9941 151.354 13.7914 151.199C13.5886 151.044 13.436 150.831 13.3528 150.588C13.2697 150.344 13.2599 150.081 13.3246 149.832C13.3894 149.582 13.5257 149.358 13.7163 149.188C14.582 148.354 15.1744 148.215 15.9034 149.188C16.6324 150.161 16.1312 151.458 14.4909 151.458Z" fill="url(#paint3_radial_9_4372)"/>
<path d="M161.898 218.283C161.643 218.28 161.395 218.224 161.188 218.123C160.98 218.022 160.822 217.88 160.734 217.716C160.646 217.553 160.633 217.375 160.695 217.206C160.758 217.037 160.894 216.885 161.085 216.77C161.943 216.214 162.575 216.121 163.253 216.77C163.93 217.418 163.704 218.283 161.898 218.283Z" fill="url(#paint4_radial_9_4372)"/>
<defs>
<radialGradient id="paint0_radial_9_4372" cx="0" cy="0" r="1" gradientUnits="userSpaceOnUse" gradientTransform="translate(83.4925 55.5696) scale(196.916 196.961)">
<stop stop-color="#F5F5F5"/>
<stop offset="1" stop-color="#F5F5F5"/>
</radialGradient>
<radialGradient id="paint1_radial_9_4372" cx="0" cy="0" r="1" gradientUnits="userSpaceOnUse" gradientTransform="translate(84.1124 57.7661) scale(191.112 191.156)">
<stop stop-color="#E0E0E0"/>
<stop offset="1" stop-color="#E0E0E0"/>
</radialGradient>
<radialGradient id="paint2_radial_9_4372" cx="0" cy="0" r="1" gradientUnits="userSpaceOnUse" gradientTransform="translate(193.895 163.395) scale(6.53203 5.95281)">
<stop stop-color="#F5F5F5"/>
<stop offset="1" stop-color="#DCE7F0"/>
</radialGradient>
<radialGradient id="paint3_radial_9_4372" cx="0" cy="0" r="1" gradientUnits="userSpaceOnUse" gradientTransform="translate(13.2151 149.79) scale(3.41735 3.47406)">
<stop stop-color="#F5F5F5"/>
<stop offset="1" stop-color="#DCE7F0"/>
</radialGradient>
<radialGradient id="paint4_radial_9_4372" cx="0" cy="0" r="1" gradientUnits="userSpaceOnUse" gradientTransform="translate(160.633 217.171) scale(3.38724 2.31604)">
<stop stop-color="#F5F5F5"/>
<stop offset="1" stop-color="#DCE7F0"/>
</radialGradient>
</defs>
</svg>
