<svg width="406" height="253" viewBox="0 0 406 253" fill="none" xmlns="http://www.w3.org/2000/svg">
<path opacity="0.2" d="M369.712 73.4291C356.805 32.8753 271.69 23.7606 179.604 53.0709C87.5177 82.3811 23.3311 139.017 36.239 179.571C49.1469 220.125 134.261 229.239 226.348 199.929C318.434 170.619 382.62 113.983 369.712 73.4291Z" fill="#29ABE2"/>
<path opacity="0.2" d="M341.137 82.5245C330.441 48.9181 259.912 41.3633 183.608 65.6504C107.303 89.9374 54.1178 136.869 64.8144 170.476C75.511 204.082 146.039 211.637 222.344 187.35C298.648 163.063 351.834 116.131 341.137 82.5245Z" fill="#29ABE2"/>
<path opacity="0.2" d="M308.764 92.8286C300.574 67.0975 246.572 61.3135 188.147 79.9098C129.721 98.506 88.9977 134.44 97.1877 160.172C105.378 185.903 159.38 191.687 217.805 173.09C276.23 154.494 316.954 118.56 308.764 92.8286Z" fill="#29ABE2"/>
<path opacity="0.2" d="M277.238 102.863C271.49 84.8045 233.582 80.7478 192.568 93.8022C151.555 106.857 122.966 132.078 128.714 150.137C134.462 168.196 172.369 172.252 213.383 159.198C254.397 146.144 282.986 120.922 277.238 102.863Z" fill="#29ABE2"/>
<path d="M196.702 106.882C169.381 115.623 150.031 131.491 153.498 142.322C156.965 153.152 181.916 154.856 209.251 146.115C236.572 137.373 255.922 121.505 252.455 110.675C248.988 99.844 224.023 98.1402 196.702 106.882Z" fill="url(#paint0_radial_10_4522)"/>
<path d="M369.843 73.3825C367.887 67.2338 364.272 61.7963 359.235 57.1144C351.678 50.0915 340.922 44.7577 327.721 41.1574C314.52 37.5719 298.889 35.7347 281.584 35.7347C251.359 35.7347 215.993 41.3204 179.545 52.9214C137.452 66.3152 101.183 85.428 75.4322 106.111C62.557 116.453 52.3043 127.18 45.2814 137.803C38.2438 148.411 34.436 158.916 34.436 168.769C34.436 172.487 34.9842 176.117 36.0954 179.614C38.0512 185.763 41.6663 191.2 46.7038 195.882C54.26 202.905 65.0165 208.239 78.2176 211.839C91.4188 215.424 107.05 217.262 124.355 217.262C154.58 217.262 189.946 211.676 226.394 200.075C268.486 186.681 304.756 167.568 330.506 146.885C343.382 136.544 353.634 125.817 360.657 115.194C367.695 104.585 371.502 94.0806 371.502 84.2278C371.502 80.509 370.954 76.8791 369.843 73.3825ZM360.405 115.031C339.381 146.767 289.392 179.703 226.29 199.779C189.872 211.365 154.535 216.951 124.355 216.951C101.301 216.951 81.2253 213.691 65.9647 207.379C58.3344 204.224 51.9042 200.312 46.8964 195.66C41.8885 191.008 38.303 185.614 36.3621 179.525C35.2509 176.043 34.7175 172.458 34.7175 168.769C34.7175 158.99 38.5105 148.545 45.5185 137.966C66.5425 106.23 116.532 73.2936 179.634 53.2177C216.052 41.6316 251.388 36.0459 281.569 36.0459C304.623 36.0459 324.698 39.3054 339.959 45.6171C347.589 48.7729 354.019 52.6844 359.027 57.3366C364.035 61.9889 367.621 67.3819 369.562 73.4714C370.673 76.9531 371.206 80.5386 371.206 84.2278C371.206 94.0065 367.413 104.452 360.405 115.031Z" fill="#29ABE2"/>
<path d="M332.477 68.9821C326.21 63.1594 317.29 58.7294 306.356 55.7661C295.422 52.7881 282.458 51.2769 268.116 51.2769C243.062 51.2769 213.77 55.8995 183.56 65.5151C148.683 76.6124 118.621 92.4508 97.2712 109.593C86.6036 118.157 78.114 127.061 72.2765 135.847C66.4537 144.648 63.2831 153.345 63.2831 161.523C63.2831 164.605 63.7276 167.613 64.661 170.517C66.2907 175.614 69.2836 180.133 73.4617 184.014C79.729 189.837 88.6483 194.267 99.5825 197.23C110.517 200.208 123.481 201.72 137.823 201.72C162.877 201.72 192.168 197.097 222.378 187.481C257.256 176.384 287.317 160.546 308.667 143.403C319.335 134.84 327.825 125.935 333.662 117.149C339.485 108.348 342.656 99.6514 342.656 91.4729C342.656 88.3912 342.211 85.3835 341.278 82.4796C339.648 77.368 336.655 72.8639 332.477 68.9821ZM333.41 116.986C315.987 143.285 274.576 170.561 222.29 187.2C192.109 196.801 162.832 201.423 137.823 201.423C118.71 201.423 102.101 198.727 89.4483 193.497C83.1218 190.889 77.8029 187.644 73.6544 183.792C69.5058 179.94 66.5426 175.48 64.9425 170.428C64.0239 167.554 63.5794 164.576 63.5794 161.523C63.5794 153.419 66.7204 144.766 72.5283 136.01C89.9521 109.712 131.363 82.4351 183.649 65.7966C213.83 56.1958 243.106 51.5732 268.116 51.5732C287.229 51.5732 303.837 54.2697 316.49 59.4998C322.817 62.1074 328.136 65.3522 332.284 69.2043C336.433 73.0565 339.396 77.5162 341.011 82.5685C341.93 85.4428 342.374 88.4208 342.374 91.4729C342.359 99.5774 339.218 108.215 333.41 116.986Z" fill="#29ABE2"/>
<path d="M302.148 82.4353C297.348 77.9757 290.518 74.5828 282.132 72.3011C273.761 70.0194 263.834 68.8638 252.84 68.8638C233.653 68.8638 211.222 72.4048 188.094 79.7684C161.38 88.2729 138.371 100.392 122.014 113.52C113.835 120.083 107.331 126.898 102.872 133.64C98.4119 140.381 95.9821 147.048 95.9821 153.316C95.9821 155.671 96.3228 157.983 97.034 160.22C98.2785 164.131 100.575 167.583 103.775 170.562C108.576 175.021 115.406 178.414 123.792 180.696C132.163 182.977 142.09 184.133 153.083 184.133C172.27 184.133 194.702 180.592 217.83 173.228C244.543 164.724 267.553 152.604 283.91 139.477C292.088 132.914 298.592 126.098 303.052 119.357C307.512 112.616 309.941 105.948 309.941 99.6813C309.941 97.3255 309.601 95.0142 308.889 92.777C307.645 88.8655 305.348 85.4134 302.148 82.4353ZM302.815 119.194C289.495 139.314 257.774 160.205 217.756 172.947C194.657 180.296 172.241 183.837 153.098 183.837C138.475 183.837 125.748 181.777 116.073 177.777C111.243 175.777 107.168 173.288 103.998 170.354C100.827 167.406 98.5601 163.998 97.3303 160.131C96.634 157.938 96.2932 155.657 96.2932 153.316C96.2932 147.122 98.6934 140.5 103.138 133.803C116.473 113.682 148.179 92.7918 188.198 80.0499C211.296 72.7011 233.713 69.1601 252.855 69.1601C267.478 69.1601 280.206 71.2195 289.88 75.2199C294.71 77.2201 298.785 79.7092 301.956 82.6427C305.126 85.5912 307.393 88.9989 308.623 92.8659C309.319 95.0586 309.66 97.3403 309.66 99.6813C309.66 105.874 307.26 112.482 302.815 119.194Z" fill="#29ABE2"/>
<path d="M272.62 95.5328C269.242 92.3918 264.441 90.0064 258.559 88.4062C252.677 86.8061 245.699 85.9912 237.995 85.9912C224.527 85.9912 208.762 88.4803 192.524 93.6511C173.767 99.622 157.602 108.141 146.135 117.357C140.401 121.965 135.823 126.75 132.682 131.491C129.541 136.233 127.837 140.915 127.837 145.33C127.837 146.989 128.074 148.619 128.578 150.189C129.452 152.945 131.067 155.375 133.319 157.464C136.697 160.605 141.497 162.991 147.379 164.591C153.261 166.191 160.24 167.006 167.944 167.006C181.412 167.006 197.176 164.517 213.415 159.346C232.172 153.375 248.336 144.856 259.804 135.64C265.538 131.032 270.116 126.247 273.257 121.505C276.398 116.764 278.102 112.082 278.102 107.667C278.102 106.008 277.865 104.378 277.361 102.807C276.487 100.067 274.872 97.6219 272.62 95.5328ZM273.02 121.342C268.353 128.395 260.456 135.596 250.203 142.144C239.965 148.693 227.371 154.59 213.326 159.064C197.117 164.22 181.382 166.709 167.944 166.709C157.676 166.709 148.757 165.257 141.971 162.457C138.578 161.05 135.719 159.316 133.511 157.257C131.289 155.197 129.704 152.812 128.844 150.101C128.355 148.56 128.118 146.974 128.118 145.33C128.118 140.989 129.793 136.351 132.919 131.654C137.586 124.602 145.483 117.401 155.736 110.853C165.973 104.304 178.567 98.4071 192.613 93.9326C208.822 88.7766 224.556 86.2875 237.995 86.2875C248.262 86.2875 257.181 87.7395 263.967 90.5398C267.36 91.9473 270.22 93.6808 272.427 95.7402C274.65 97.7997 276.235 100.185 277.094 102.896C277.583 104.437 277.82 106.023 277.82 107.667C277.82 112.008 276.131 116.646 273.02 121.342Z" fill="#29ABE2"/>
<path d="M220.408 44.2689C221.619 44.2689 222.601 43.2871 222.601 42.0761C222.601 40.865 221.619 39.8833 220.408 39.8833C219.197 39.8833 218.215 40.865 218.215 42.0761C218.215 43.2871 219.197 44.2689 220.408 44.2689Z" fill="url(#paint1_radial_10_4522)"/>
<path d="M195.65 165.672C196.673 165.672 197.502 164.843 197.502 163.82C197.502 162.797 196.673 161.968 195.65 161.968C194.627 161.968 193.798 162.797 193.798 163.82C193.798 164.843 194.627 165.672 195.65 165.672Z" fill="url(#paint2_radial_10_4522)"/>
<path d="M296.622 80.7758C298.234 80.7758 299.541 79.469 299.541 77.857C299.541 76.245 298.234 74.9382 296.622 74.9382C295.01 74.9382 293.703 76.245 293.703 77.857C293.703 79.469 295.01 80.7758 296.622 80.7758Z" fill="url(#paint3_radial_10_4522)"/>
<path d="M63.7126 168.695C65.5046 168.695 66.9573 167.242 66.9573 165.45C66.9573 163.658 65.5046 162.205 63.7126 162.205C61.9206 162.205 60.4679 163.658 60.4679 165.45C60.4679 167.242 61.9206 168.695 63.7126 168.695Z" fill="url(#paint4_radial_10_4522)"/>
<path d="M171.441 27.9268C60.7199 63.3521 -14.9163 136.188 2.49259 190.622C19.9015 245.057 123.777 260.48 234.498 225.055C345.219 189.645 420.855 116.794 403.446 62.3594C386.037 7.92504 282.161 -7.48371 171.441 27.9268Z" fill="url(#paint5_radial_10_4522)"/>
<defs>
<radialGradient id="paint0_radial_10_4522" cx="0" cy="0" r="1" gradientUnits="userSpaceOnUse" gradientTransform="translate(202.967 126.485) rotate(-17.7385) scale(51.9429 20.5933)">
<stop stop-color="white"/>
<stop offset="1" stop-color="white" stop-opacity="0"/>
</radialGradient>
<radialGradient id="paint1_radial_10_4522" cx="0" cy="0" r="1" gradientUnits="userSpaceOnUse" gradientTransform="translate(220.401 42.075) scale(2.18703)">
<stop stop-color="white"/>
<stop offset="0.022588" stop-color="#FCFDFE"/>
<stop offset="1" stop-color="#84AADA"/>
</radialGradient>
<radialGradient id="paint2_radial_10_4522" cx="0" cy="0" r="1" gradientUnits="userSpaceOnUse" gradientTransform="translate(195.655 163.824) rotate(180) scale(1.852)">
<stop stop-color="white"/>
<stop offset="0.022588" stop-color="#FCFDFE"/>
<stop offset="1" stop-color="#84AADA"/>
</radialGradient>
<radialGradient id="paint3_radial_10_4522" cx="0" cy="0" r="1" gradientUnits="userSpaceOnUse" gradientTransform="translate(296.625 77.851) rotate(45) scale(2.91815)">
<stop stop-color="white"/>
<stop offset="0.022588" stop-color="#FCFDFE"/>
<stop offset="1" stop-color="#84AADA"/>
</radialGradient>
<radialGradient id="paint4_radial_10_4522" cx="0" cy="0" r="1" gradientUnits="userSpaceOnUse" gradientTransform="translate(63.7133 165.458) rotate(-135) scale(3.24286)">
<stop stop-color="white"/>
<stop offset="0.022588" stop-color="#FCFDFE"/>
<stop offset="1" stop-color="#84AADA"/>
</radialGradient>
<radialGradient id="paint5_radial_10_4522" cx="0" cy="0" r="1" gradientUnits="userSpaceOnUse" gradientTransform="translate(202.954 126.501) rotate(-17.7374) scale(210.476 103.482)">
<stop stop-color="white"/>
<stop offset="1" stop-color="white" stop-opacity="0"/>
</radialGradient>
</defs>
</svg>
